<svg width="842" height="508" viewBox="0 0 842 508" fill="none" xmlns="http://www.w3.org/2000/svg">
<path d="M110.717 356.489C120.379 350.345 123.904 342.501 125.471 331.259C127.038 320.016 123.512 307.99 115.809 299.493C109.542 292.433 100.533 287.466 95.9637 279.099C91.1329 270.21 91.7857 258.445 84.8659 251.124C80.035 246.026 72.7235 244.457 66.8482 240.797C62.0174 237.79 58.1005 233.607 53.6613 230.077C49.2222 226.548 43.9997 223.41 38.2549 223.541C29.6378 223.802 22.7179 231.907 21.804 240.405C21.0206 248.902 25.3292 257.399 31.5962 263.151C36.1659 267.334 41.7801 270.733 44.6525 276.223C50.0056 286.551 43.2163 300.408 49.0916 310.474C53.2696 317.925 63.4536 321.847 64.4981 330.213C64.8897 333.351 63.8452 336.488 63.7147 339.625C63.323 349.43 72.0707 357.796 81.7324 359.888C91.5246 362.372 101.447 359.757 110.717 356.489Z" fill="#F5F5F5"/>
<path d="M55.2281 258.968C55.2281 258.968 55.4892 259.36 56.142 260.144C56.9254 260.928 57.8393 262.105 59.145 263.412C60.4506 264.85 62.0174 266.55 63.7147 268.641C65.412 270.733 67.501 273.086 69.4594 275.831C70.5039 277.138 71.5484 278.576 72.7235 280.145C73.8986 281.583 74.8125 283.283 75.9876 284.851C78.3377 288.119 80.4267 291.78 82.7768 295.701C87.216 303.545 91.7857 312.434 95.572 321.977C99.3583 331.651 102.1 341.194 104.189 349.953C105.103 354.397 106.017 358.581 106.539 362.502C106.8 364.463 107.192 366.424 107.323 368.254C107.453 370.084 107.714 371.915 107.845 373.614C108.237 377.013 108.367 380.15 108.498 382.765C108.759 385.51 108.759 387.863 108.759 389.693C108.759 391.523 108.759 392.961 108.889 394.138C108.889 395.184 108.889 395.707 109.02 395.707C109.02 395.707 109.151 395.184 109.151 394.138C109.151 392.961 109.281 391.523 109.281 389.693C109.412 387.732 109.412 385.379 109.281 382.765C109.151 380.02 109.151 376.882 108.759 373.483C108.628 371.784 108.498 369.954 108.237 368.124C108.106 366.293 107.714 364.332 107.453 362.372C106.931 358.319 106.017 354.136 105.234 349.691C103.275 340.802 100.403 331.259 96.6165 321.454C92.6996 311.781 88.2605 302.891 83.6908 295.048C81.3407 291.257 79.1211 287.466 76.771 284.198C75.5959 282.498 74.5514 280.929 73.3763 279.492C72.2013 278.054 71.1568 276.616 70.1123 275.308C68.0232 272.563 65.9342 270.341 64.2369 268.249C62.5396 266.157 60.8423 264.458 59.5367 263.151C58.231 261.844 57.1865 260.798 56.4032 260.013C55.6198 259.229 55.2281 258.837 55.2281 258.968Z" fill="#E0E0E0"/>
<path d="M835.864 136.608C835.864 136.608 823.591 128.503 808.576 157.917C793.561 187.33 787.947 204.194 787.947 204.194C787.947 204.194 784.03 210.338 779.722 206.285C775.544 202.233 769.668 190.86 762.487 192.951C755.045 195.043 752.564 203.409 754.001 215.697C755.437 227.986 757.526 254.784 757.787 257.268C757.918 259.621 756.612 263.151 753.348 260.928C750.084 258.706 730.891 237.398 721.36 247.072C711.829 256.745 721.36 290.211 722.404 293.871C723.318 297.532 722.666 299.1 720.968 300.015C719.271 300.93 713.526 293.218 707.781 287.335C702.167 281.452 694.464 275.7 689.503 281.845C684.411 287.858 682.844 312.957 706.737 353.744L719.01 371.915L740.944 370.738C787.816 365.248 806.748 348.907 808.576 341.194C810.404 333.481 801.134 330.867 793.169 329.952C785.075 328.906 775.413 329.037 775.152 327.076C774.891 325.115 775.674 323.677 779.199 322.239C782.724 320.801 815.104 308.251 817.062 294.917C819.021 281.452 790.558 278.969 786.772 277.792C782.986 276.485 784.944 273.347 786.902 272.04C788.991 270.733 811.709 256.222 822.285 249.947C832.861 243.673 838.083 236.744 835.211 229.554C832.469 222.626 819.935 224.848 814.19 223.933C808.445 223.018 810.926 216.09 810.926 216.09C810.926 216.09 820.979 201.318 835.472 171.643C849.834 141.968 835.602 137.001 835.602 137.001" fill="#EBEBEB"/>
<path d="M822.546 162.884C822.546 162.884 822.416 163.146 822.285 163.538C822.024 163.93 821.763 164.584 821.371 165.368C820.588 167.067 819.413 169.42 817.976 172.427C815.104 178.571 810.795 187.33 805.442 198.18C794.736 219.881 779.721 249.817 763.14 282.76C746.428 315.703 731.413 345.639 720.577 367.339C715.223 378.189 710.915 386.948 707.781 393.092C706.345 396.099 705.17 398.452 704.256 400.021C703.865 400.805 703.603 401.459 703.342 401.851C703.081 402.243 702.951 402.504 702.951 402.504C702.951 402.504 703.081 402.243 703.212 401.851C703.473 401.459 703.734 400.805 704.126 400.021C704.909 398.321 706.084 395.968 707.52 392.961C710.393 386.817 714.701 378.059 720.054 367.208C730.76 345.508 745.775 315.572 762.357 282.629C779.069 249.686 794.083 219.75 804.92 198.049C810.273 187.199 814.582 178.441 817.715 172.296C819.151 169.29 820.327 166.937 821.24 165.368C821.632 164.584 821.893 163.93 822.154 163.538C822.416 163.146 822.546 162.884 822.546 162.884Z" fill="#E0E0E0"/>
<path d="M770.19 209.292C770.19 209.292 770.452 209.815 770.713 210.73C770.974 211.645 771.496 213.083 771.888 214.913C772.932 218.443 774.107 223.279 775.413 228.639C776.719 233.999 777.763 238.836 778.677 242.496C779.069 244.196 779.46 245.503 779.722 246.679C779.983 247.725 780.113 248.248 779.983 248.248C779.983 248.248 779.721 247.725 779.46 246.81C779.199 245.895 778.677 244.457 778.285 242.627C777.371 239.097 776.196 234.26 774.891 228.77C773.585 223.41 772.41 218.573 771.627 214.913C771.235 213.214 770.843 211.906 770.582 210.73C770.19 209.815 770.06 209.292 770.19 209.292Z" fill="#E0E0E0"/>
<path d="M804.099 241.847C791.832 245.377 781.937 248.409 781.996 248.617C782.056 248.825 792.049 246.131 804.315 242.6C816.582 239.07 826.477 236.039 826.418 235.83C826.358 235.622 816.365 238.316 804.099 241.847Z" fill="#E0E0E0"/>
<path d="M754.131 298.055C754.131 298.055 754.653 297.924 755.698 297.924C756.873 297.924 758.309 297.924 760.137 297.924C763.793 297.924 769.015 297.924 774.629 297.662C780.244 297.401 785.336 297.139 789.122 296.747C790.819 296.617 792.386 296.486 793.561 296.355C794.606 296.224 795.128 296.224 795.128 296.355C795.128 296.486 794.606 296.486 793.561 296.617C792.517 296.747 791.08 297.009 789.252 297.139C785.597 297.532 780.505 298.055 774.76 298.185C769.146 298.447 763.923 298.316 760.268 298.185C758.44 298.055 756.873 298.055 755.828 297.924C754.653 298.185 754.131 298.185 754.131 298.055Z" fill="#E0E0E0"/>
<path d="M735.591 264.85C735.591 264.85 735.983 265.242 736.505 266.027C737.027 266.942 737.811 268.118 738.594 269.556C740.422 272.563 742.772 276.616 745.383 281.191C747.995 285.766 750.345 289.819 752.042 292.826C752.826 294.263 753.478 295.44 754.001 296.355C754.392 297.27 754.653 297.662 754.653 297.662C754.653 297.662 754.262 297.27 753.739 296.486C753.217 295.571 752.434 294.394 751.65 292.956C749.823 289.95 747.472 285.897 744.861 281.322C742.25 276.746 739.9 272.694 738.333 269.687C737.55 268.249 736.897 267.073 736.375 266.157C735.722 265.373 735.461 264.85 735.591 264.85Z" fill="#E0E0E0"/>
<path d="M705.431 305.375C705.431 305.375 705.823 305.898 706.476 306.944C707.128 308.12 708.042 309.558 709.218 311.389C711.437 315.18 714.571 320.409 717.965 326.161C721.36 331.912 724.363 337.272 726.582 341.063C727.627 342.893 728.41 344.462 729.063 345.639C729.716 346.684 729.977 347.338 729.977 347.338C729.977 347.338 729.585 346.815 728.933 345.769C728.28 344.593 727.366 343.155 726.191 341.325C723.971 337.534 720.838 332.305 717.443 326.553C714.048 320.801 711.045 315.441 708.826 311.65C707.781 309.82 706.998 308.251 706.345 307.075C705.692 306.029 705.301 305.506 705.431 305.375Z" fill="#E0E0E0"/>
<path d="M729.716 346.162C729.716 346.162 730.499 346.031 731.805 346.031C733.241 346.031 735.069 345.9 737.419 345.9C742.119 345.769 748.648 345.508 755.829 344.985C763.009 344.462 769.407 343.939 774.107 343.416C776.327 343.155 778.285 343.024 779.591 342.893C780.897 342.763 781.68 342.763 781.68 342.763C781.68 342.763 781.027 342.893 779.721 343.155C778.416 343.416 776.588 343.678 774.238 343.939C769.538 344.462 763.14 345.247 755.959 345.639C748.778 346.162 742.25 346.292 737.55 346.292C735.2 346.292 733.241 346.292 731.935 346.292C730.369 346.292 729.716 346.162 729.716 346.162Z" fill="#E0E0E0"/>
<path d="M835.211 507.608C835.211 507.739 648.245 508 417.671 508C186.966 508 0 507.869 0 507.608C0 507.477 186.966 507.216 417.671 507.216C648.245 507.346 835.211 507.477 835.211 507.608Z" fill="#263238"/>
<path d="M38.3855 416.492C43.2163 416.753 47.786 419.368 50.9195 423.028C54.053 426.689 56.0115 431.264 57.1865 435.97C59.5367 445.121 57.9699 455.71 55.2281 464.73C45.4359 461.069 39.43 450.611 36.8187 445.121C32.6407 436.493 30.2906 418.061 38.3855 416.492Z" fill="#E8505B"/>
<path d="M69.4595 475.972C66.4565 471.528 66.3259 465.253 68.8066 460.547C71.2873 455.71 75.9876 452.311 81.2101 450.742C83.5602 450.088 86.4326 449.696 88.5216 451.134C90.4801 452.442 91.2634 455.056 91.0023 457.409C90.7412 459.762 89.5661 461.854 88.1299 463.684C83.2991 470.09 77.4238 475.319 69.4595 475.972Z" fill="#E8505B"/>
<path d="M70.2428 506.301C70.2428 506.301 70.1123 505.647 69.8511 504.47C69.59 503.163 69.3289 501.333 68.9372 499.241C68.1538 494.927 66.9788 488.653 68.0233 481.855C68.9372 475.057 71.679 469.305 74.5514 465.776C75.9876 464.076 77.2932 462.769 78.3377 461.985C78.86 461.592 79.2517 461.331 79.5128 461.2C79.7739 461.069 79.9045 460.939 79.9045 460.939C80.0351 461.07 77.5544 462.507 74.9431 466.037C72.2013 469.436 69.59 475.188 68.6761 481.855C67.7621 488.522 68.8066 494.666 69.4595 499.111C69.8511 501.333 70.1123 503.032 70.2428 504.34C70.2428 505.647 70.2428 506.301 70.2428 506.301Z" fill="#263238"/>
<path d="M41.519 430.349C41.519 430.349 41.6496 430.61 41.9107 431.133C42.1718 431.656 42.4329 432.441 42.9552 433.356C43.8691 435.316 45.0442 438.062 46.4804 441.461C49.3528 448.389 53.2697 457.932 57.3171 468.652C61.3646 479.371 64.7592 489.045 67.1093 496.235C68.2844 499.764 69.1983 502.64 69.8511 504.601C70.1123 505.516 70.3734 506.301 70.504 506.954C70.6345 507.477 70.7651 507.739 70.7651 507.739C70.7651 507.739 70.6345 507.477 70.3734 506.954C70.1123 506.431 69.8511 505.647 69.59 504.732C68.8066 502.64 67.8927 499.895 66.5871 496.365C64.1064 489.306 60.5812 479.633 56.5337 468.913C52.4863 458.194 48.7 448.651 45.9581 441.722C44.6525 438.323 43.4774 435.578 42.6941 433.486C42.3024 432.571 42.0412 431.787 41.7801 431.264C41.519 430.61 41.519 430.349 41.519 430.349Z" fill="#263238"/>
<path d="M58.7533 486.169C53.0085 476.234 42.3024 469.436 30.9434 468.521C28.071 468.259 24.5458 468.782 23.2402 471.397C21.9346 474.011 23.6319 477.149 25.5903 479.24C33.6852 488.26 47.6555 491.398 58.8839 486.953" fill="#E8505B"/>
<path d="M35.252 476.364C35.252 476.364 35.9048 476.364 37.0799 476.495C37.6021 476.495 38.3855 476.626 39.1689 476.757C39.9522 476.887 40.9967 477.018 41.9107 477.279C42.9552 477.541 43.9997 477.802 45.1748 478.195C46.3498 478.587 47.5249 479.11 48.8305 479.632C51.3112 480.809 54.053 482.378 56.5337 484.339C59.0144 486.3 61.234 488.522 62.9313 490.744C63.7147 491.921 64.4981 492.967 65.1509 494.012C65.8037 495.058 66.326 496.104 66.8482 497.019C67.3705 497.934 67.6316 498.849 68.0233 499.634C68.415 500.418 68.5455 501.072 68.6761 501.594C69.0678 502.771 69.1983 503.294 69.1983 503.294C69.0678 503.294 68.415 500.81 66.4565 497.15C65.9343 496.235 65.412 495.189 64.7592 494.274C64.1064 493.228 63.323 492.182 62.5396 491.136C60.8423 489.045 58.7533 486.822 56.2726 484.862C53.7919 482.901 51.1807 481.463 48.7 480.155C47.3943 479.632 46.2193 479.11 45.0442 478.717C43.8691 478.325 42.8246 477.933 41.7801 477.672C37.8632 476.626 35.252 476.495 35.252 476.364Z" fill="#263238"/>
<path d="M696.422 0H122.468C112.545 0 104.45 7.97427 104.45 17.9094V423.813C104.45 433.748 112.415 441.722 122.337 441.722H342.597C342.597 441.722 356.567 485.123 313.22 507.608H519.249C519.249 507.608 470.157 490.744 482.822 441.722H696.422C706.345 441.722 714.31 433.748 714.31 423.813V17.9094C714.31 7.97427 706.345 0 696.422 0Z" fill="#263238"/>
<path d="M417.148 399.105C424.982 410.217 412.709 422.505 401.611 414.662C401.22 414.4 400.959 414.008 400.697 413.747C392.864 402.635 405.137 390.347 416.234 398.19C416.496 398.452 416.887 398.713 417.148 399.105Z" fill="#455A64"/>
<path d="M695.9 370.477H121.685C119.334 370.477 117.376 368.516 117.376 366.163V28.6289C117.376 26.2759 119.334 24.315 121.685 24.315H695.9C698.25 24.315 700.209 26.2759 700.209 28.6289V366.163C700.209 368.516 698.25 370.477 695.9 370.477Z" fill="#E0E0E0"/>
<path d="M700.209 49.6758H117.507V370.477H700.209V49.6758Z" fill="white"/>
<path d="M160.592 42.3551C163.188 42.3551 165.293 40.2481 165.293 37.649C165.293 35.0499 163.188 32.9429 160.592 32.9429C157.996 32.9429 155.892 35.0499 155.892 37.649C155.892 40.2481 157.996 42.3551 160.592 42.3551Z" fill="#455A64"/>
<path d="M132.391 42.3551C134.987 42.3551 137.091 40.2481 137.091 37.649C137.091 35.0499 134.987 32.9429 132.391 32.9429C129.795 32.9429 127.69 35.0499 127.69 37.649C127.69 40.2481 129.795 42.3551 132.391 42.3551Z" fill="#455A64"/>
<path d="M145.969 42.3551C148.565 42.3551 150.67 40.2481 150.67 37.649C150.67 35.0499 148.565 32.9429 145.969 32.9429C143.373 32.9429 141.269 35.0499 141.269 37.649C141.269 40.2481 143.373 42.3551 145.969 42.3551Z" fill="#455A64"/>
<path d="M682.06 69.0232H528.649V325.768H682.06V69.0232Z" fill="#F5F5F5"/>
<path d="M569.385 220.142L570.951 223.541L574.607 224.064L571.996 226.678L572.649 230.339L569.385 228.639L565.99 230.339L566.643 226.678L564.032 224.064L567.687 223.541L569.385 220.142Z" fill="#E8505B"/>
<path d="M587.663 220.142L589.23 223.541L592.886 224.064L590.275 226.678L590.928 230.339L587.663 228.639L584.269 230.339L584.922 226.678L582.31 224.064L585.966 223.541L587.663 220.142Z" fill="#E8505B"/>
<path d="M605.942 220.142L607.509 223.541L611.165 224.064L608.554 226.678L609.206 230.339L605.942 228.639L602.548 230.339L603.2 226.678L600.589 224.064L604.245 223.541L605.942 220.142Z" fill="#E8505B"/>
<path d="M624.221 220.142L625.788 223.541L629.444 224.064L626.832 226.678L627.485 230.339L624.221 228.639L620.826 230.339L621.479 226.678L618.868 224.064L622.524 223.541L624.221 220.142Z" fill="#E8505B"/>
<path d="M642.369 220.142L644.067 223.541L647.722 224.064L645.111 226.678L645.764 230.339L642.369 228.639L639.105 230.339L639.758 226.678L637.147 224.064L640.803 223.541L642.369 220.142Z" fill="#E8505B"/>
<path d="M573.04 250.732C587.39 250.732 599.022 250.556 599.022 250.34C599.022 250.123 587.39 249.947 573.04 249.947C558.691 249.947 547.058 250.123 547.058 250.34C547.058 250.556 558.691 250.732 573.04 250.732Z" fill="#E8505B"/>
<path d="M664.434 261.582C664.434 261.713 638.452 261.974 606.465 261.974C574.346 261.974 548.364 261.844 548.364 261.582C548.364 261.451 574.346 261.19 606.465 261.19C638.452 261.321 664.434 261.451 664.434 261.582Z" fill="#263238"/>
<path d="M664.434 271.256C664.434 271.387 638.452 271.648 606.465 271.648C574.346 271.648 548.364 271.517 548.364 271.256C548.364 271.125 574.346 270.864 606.465 270.864C638.452 270.994 664.434 271.125 664.434 271.256Z" fill="#263238"/>
<path d="M664.434 281.06C664.434 281.191 638.452 281.452 606.465 281.452C574.346 281.452 548.364 281.322 548.364 281.06C548.364 280.929 574.346 280.668 606.465 280.668C638.452 280.668 664.434 280.799 664.434 281.06Z" fill="#263238"/>
<path d="M664.434 290.734C664.434 290.865 638.452 291.126 606.465 291.126C574.346 291.126 548.364 290.995 548.364 290.734C548.364 290.472 574.346 290.342 606.465 290.342C638.452 290.472 664.434 290.603 664.434 290.734Z" fill="#263238"/>
<path d="M664.434 300.538C664.434 300.669 638.452 300.93 606.465 300.93C574.346 300.93 548.364 300.8 548.364 300.538C548.364 300.277 574.346 300.146 606.465 300.146C638.452 300.146 664.434 300.277 664.434 300.538Z" fill="#263238"/>
<path d="M670.832 82.0957H538.702V209.161H670.832V82.0957Z" fill="#E0E0E0"/>
<path d="M651.248 186.938L659.865 209.161H639.105L634.405 197.004L651.248 186.938Z" fill="#FFBE9D"/>
<path d="M571.996 209.161H628.399C629.313 200.795 629.835 192.951 629.835 192.951L632.708 200.795L656.34 188.899C656.34 188.899 647.722 165.891 640.541 158.178C631.402 148.374 615.082 149.289 615.082 149.289L593.8 149.681C593.8 149.681 585.705 150.465 578.002 154.256L577.48 154.387V154.518C572.91 158.44 559.07 177.003 559.07 177.003L564.162 181.97L574.607 191.644V191.775C574.868 192.951 571.996 209.161 571.996 209.161Z" fill="#E8505B"/>
<path d="M615.735 148.504C615.735 148.504 615.735 148.635 615.865 148.897C615.865 149.158 615.996 149.55 615.996 150.073C615.996 151.119 615.996 152.557 615.473 154.256C614.951 155.956 613.776 157.786 612.079 159.355C610.251 160.923 607.77 161.969 605.028 161.969C602.287 162.1 599.675 161.185 597.847 159.747C595.889 158.309 594.714 156.479 594.061 154.779C593.408 153.08 593.278 151.642 593.278 150.727C593.278 150.204 593.278 149.812 593.408 149.55C593.408 149.289 593.539 149.158 593.539 149.158C593.669 149.158 593.278 151.38 594.583 154.518C595.236 156.086 596.411 157.786 598.239 159.093C600.067 160.4 602.417 161.185 605.028 161.185C607.64 161.054 609.99 160.139 611.687 158.701C613.384 157.263 614.429 155.433 615.082 153.864C616.126 150.727 615.604 148.504 615.735 148.504Z" fill="#263238"/>
<path d="M635.841 153.603C635.841 153.733 635.319 153.603 634.274 153.995C633.361 154.256 632.055 155.041 631.01 156.479C629.966 157.917 629.183 159.878 628.921 162.231C628.66 164.584 628.53 167.198 628.399 169.943C628.269 175.434 628.399 180.401 628.66 184.062C628.791 185.761 628.921 187.199 628.921 188.376C629.052 189.422 629.052 189.944 628.921 189.944C628.921 189.944 628.791 189.422 628.53 188.376C628.399 187.33 628.138 185.892 628.007 184.062C627.616 180.401 627.355 175.434 627.485 169.943C627.616 167.198 627.616 164.584 628.007 162.1C628.399 159.747 629.182 157.524 630.358 156.086C631.533 154.649 632.969 153.864 633.883 153.603C634.405 153.472 634.797 153.472 635.058 153.472C635.711 153.603 635.841 153.603 635.841 153.603Z" fill="#263238"/>
<path d="M585.313 151.25C585.313 151.25 585.183 151.773 584.922 152.818C584.53 153.995 584.138 155.433 583.616 157.132C582.572 160.793 581.135 165.76 579.569 171.381C578.132 177.003 576.957 182.101 576.174 185.761C575.782 187.461 575.521 189.029 575.26 190.075C574.999 191.121 574.868 191.644 574.868 191.644C574.868 191.644 574.868 190.99 574.999 189.944C575.129 188.899 575.391 187.33 575.782 185.5C576.435 181.709 577.61 176.61 579.046 170.989C580.483 165.368 582.049 160.4 583.224 156.74C583.877 154.91 584.399 153.472 584.661 152.557C585.052 151.773 585.313 151.119 585.313 151.25Z" fill="#263238"/>
<path opacity="0.2" d="M628.007 171.381L635.841 199.226L632.708 200.795L629.835 192.951C629.835 192.951 626.963 176.48 628.007 171.381Z" fill="black"/>
<g opacity="0.2">
<path opacity="0.2" d="M586.227 151.25C581.658 153.603 592.755 159.485 597.847 159.485L594.322 149.55C594.453 149.55 587.794 150.465 586.227 151.25Z" fill="black"/>
</g>
<path d="M605.42 161.316C598.761 161.708 593.147 156.348 593.408 149.681C593.539 146.021 593.669 143.145 593.669 143.145C593.669 143.145 584.661 142.36 584.008 133.471C583.355 124.582 583.485 104.058 583.485 104.058C593.408 98.9594 605.42 99.613 614.69 105.888L616.126 106.803L615.996 150.204C615.865 156.086 611.295 160.923 605.42 161.316Z" fill="#FFBE9D"/>
<path d="M587.272 120.137C587.993 120.137 588.577 119.552 588.577 118.83C588.577 118.108 587.993 117.522 587.272 117.522C586.551 117.522 585.966 118.108 585.966 118.83C585.966 119.552 586.551 120.137 587.272 120.137Z" fill="#263238"/>
<path d="M584.269 117.13C584.399 117.261 585.183 116.607 586.488 116.477C587.663 116.346 588.577 116.999 588.708 116.738C588.708 116.607 588.577 116.346 588.186 116.084C587.794 115.823 587.141 115.562 586.358 115.692C585.574 115.692 584.922 116.084 584.661 116.477C584.269 116.738 584.138 116.999 584.269 117.13Z" fill="#263238"/>
<path d="M600.067 120.137C600.788 120.137 601.373 119.552 601.373 118.83C601.373 118.108 600.788 117.522 600.067 117.522C599.346 117.522 598.761 118.108 598.761 118.83C598.761 119.552 599.346 120.137 600.067 120.137Z" fill="#263238"/>
<path d="M597.195 117.13C597.325 117.261 598.109 116.607 599.414 116.477C600.589 116.346 601.503 116.999 601.634 116.738C601.634 116.607 601.503 116.346 601.111 116.084C600.72 115.823 600.067 115.562 599.284 115.692C598.5 115.692 597.847 116.084 597.586 116.477C597.195 116.738 597.195 116.999 597.195 117.13Z" fill="#263238"/>
<path d="M593.278 127.85C593.278 127.719 592.494 127.588 591.319 127.588C591.058 127.588 590.797 127.458 590.667 127.327C590.536 127.196 590.667 126.804 590.797 126.412C591.058 125.627 591.319 124.712 591.58 123.797C592.625 120.137 593.408 117.13 593.278 117.13C593.147 117.13 592.103 120.006 590.928 123.667C590.667 124.582 590.405 125.366 590.144 126.281C590.014 126.673 589.883 127.065 590.014 127.588C590.144 127.85 590.405 127.98 590.536 128.111C590.797 128.111 590.928 128.111 591.058 128.111C592.494 128.111 593.278 127.98 593.278 127.85Z" fill="#263238"/>
<path d="M593.539 143.014C593.539 143.014 599.153 143.145 604.898 138.961C604.898 138.961 602.548 145.498 593.669 145.367L593.539 143.014Z" fill="#EB996E"/>
<path d="M615.604 116.215C615.735 116.084 622.915 115.431 621.74 122.229C620.826 128.111 614.429 126.412 614.429 126.15C614.429 126.02 615.604 116.215 615.604 116.215Z" fill="#FFBE9D"/>
<path d="M616.91 123.536C616.91 123.536 617.04 123.667 617.171 123.667C617.301 123.797 617.562 123.797 617.954 123.797C618.607 123.667 619.129 122.621 619.26 121.575C619.26 121.052 619.26 120.529 619.129 120.137C618.999 119.745 618.737 119.353 618.476 119.353C618.215 119.222 617.954 119.483 617.824 119.614C617.693 119.745 617.824 119.875 617.693 119.875C617.693 119.875 617.562 119.745 617.693 119.483C617.693 119.353 617.824 119.222 617.954 119.091C618.085 118.96 618.346 118.96 618.476 118.96C618.868 118.96 619.26 119.483 619.521 120.006C619.782 120.529 619.782 121.052 619.782 121.706C619.651 122.882 618.999 123.928 618.085 124.189C617.693 124.32 617.301 124.059 617.171 123.928C616.91 123.667 616.91 123.536 616.91 123.536Z" fill="#EB996E"/>
<path d="M614.168 122.359C612.732 123.144 610.904 122.098 610.251 120.66C609.598 119.222 609.598 117.522 609.598 115.954C609.467 113.731 609.076 111.64 608.423 109.548C608.031 108.241 607.378 106.803 606.203 106.149C604.767 105.365 603.07 105.757 601.503 106.28C600.067 106.803 598.5 107.587 596.933 107.457C594.844 107.326 593.147 105.626 591.058 105.365C589.1 105.103 587.272 106.019 585.313 106.541C583.485 107.064 581.396 107.195 579.569 106.411C577.741 105.626 576.305 103.796 576.435 101.835C576.566 99.8744 578.655 98.175 580.483 98.6979C579.046 97.9135 578.916 95.6912 579.96 94.3839C581.135 93.2074 582.963 92.946 584.53 93.4689C586.097 93.9918 587.402 95.0376 588.708 96.2141C588.839 94.7761 590.405 93.5996 591.841 93.5996C593.278 93.4689 594.714 94.1225 596.019 95.0376C597.325 95.8219 598.37 96.8677 599.675 97.6521C602.286 99.0901 605.42 99.2208 608.292 99.7437C611.295 100.267 614.429 101.443 615.734 104.058C617.04 106.411 616.126 109.156 615.996 111.77C615.865 114.516 615.865 115.169 615.734 117.653C615.996 117.653 616.126 121.183 614.168 122.359Z" fill="#263238"/>
<path d="M592.233 131.51C592.233 131.641 592.625 131.771 593.147 131.771C593.8 131.771 594.583 131.51 595.367 130.987C596.15 130.464 596.542 129.68 596.672 129.157C596.803 128.634 596.803 128.242 596.672 128.242C596.542 128.242 596.15 129.549 594.844 130.595C593.669 131.379 592.233 131.249 592.233 131.51Z" fill="white"/>
<path d="M582.049 100.397C582.049 100.397 581.527 100.659 581.527 101.574C581.527 101.966 581.788 102.62 582.31 103.012C582.833 103.535 583.616 103.665 584.399 103.535C585.183 103.404 585.966 103.012 586.88 102.62C587.664 102.097 588.577 101.574 589.491 101.312C590.536 101.051 591.58 101.312 592.625 101.835C593.669 102.358 594.583 103.012 595.628 103.665C596.672 104.319 597.847 104.842 599.022 104.711C600.198 104.711 601.242 103.927 602.025 103.273C602.809 102.62 603.592 101.966 604.506 101.835C605.42 101.574 606.334 101.705 606.987 101.966C608.423 102.489 609.337 103.535 609.729 104.319C610.12 105.103 610.12 105.626 610.12 105.626C610.12 105.626 610.12 105.103 609.859 104.319C609.468 103.535 608.684 102.358 607.117 101.835C606.334 101.574 605.42 101.443 604.506 101.705C603.592 101.966 602.678 102.62 601.895 103.143C601.112 103.796 600.198 104.45 599.022 104.45C597.978 104.581 596.803 104.058 595.758 103.404C594.714 102.75 593.8 102.097 592.755 101.574C591.711 101.051 590.536 100.79 589.491 101.051C588.447 101.312 587.664 101.966 586.75 102.358C585.966 102.881 585.183 103.273 584.399 103.404C583.616 103.535 582.833 103.404 582.441 103.012C581.919 102.62 581.788 102.097 581.658 101.705C581.527 100.79 582.049 100.528 582.049 100.397Z" fill="#455A64"/>
<path d="M585.966 95.8219C585.966 95.8219 585.966 95.6912 585.705 95.5605C585.444 95.4298 585.183 95.4298 584.791 95.5605C584.399 95.6912 584.008 96.2141 584.008 96.8677C584.008 97.5214 584.53 98.175 585.313 98.4364C586.097 98.6979 587.011 98.5672 587.794 98.3057C588.708 98.0443 589.491 97.6521 590.536 97.5214C591.58 97.3906 592.494 97.9135 593.278 98.5672C594.061 99.2208 594.844 100.267 595.889 100.659C597.064 101.182 598.239 100.79 599.284 100.397C600.328 100.005 601.242 99.613 602.287 99.4822C604.245 99.2208 606.073 99.7437 607.248 100.659C608.554 101.443 609.206 102.489 609.598 103.273C609.99 104.058 610.12 104.45 610.12 104.45C610.12 104.45 609.99 103.927 609.598 103.273C609.206 102.489 608.423 101.443 607.248 100.528C605.942 99.613 604.114 99.0901 602.156 99.3515C601.112 99.4822 600.198 99.8744 599.153 100.267C598.109 100.659 597.064 100.92 596.02 100.528C594.975 100.005 594.322 99.0901 593.408 98.4364C592.625 97.6521 591.58 97.1292 590.536 97.2599C589.491 97.3906 588.577 97.7828 587.794 98.0443C587.011 98.3057 586.097 98.4364 585.444 98.175C584.791 97.9135 584.269 97.3906 584.269 96.737C584.138 96.2141 584.53 95.6912 584.922 95.5605C585.313 95.4298 585.705 95.4298 585.836 95.5605C585.836 95.6912 585.966 95.8219 585.966 95.8219Z" fill="#455A64"/>
<path d="M612.209 102.75C612.34 102.75 612.862 101.705 614.037 101.051C615.212 100.267 616.387 100.397 616.387 100.136C616.387 100.005 616.126 99.8744 615.604 99.8744C615.082 99.8744 614.429 100.005 613.776 100.397C613.123 100.79 612.732 101.443 612.47 101.835C612.079 102.358 612.079 102.75 612.209 102.75Z" fill="#263238"/>
<path d="M613.254 96.2141C613.123 96.2141 613.384 97.6521 613.123 99.2208C612.993 100.79 612.34 102.097 612.47 102.227C612.601 102.358 613.515 101.182 613.776 99.3515C613.907 97.5214 613.384 96.0834 613.254 96.2141Z" fill="#263238"/>
<path d="M615.212 120.006C615.212 120.006 615.865 119.091 615.604 117.522C615.473 116.738 614.821 115.954 614.168 115.039C613.907 114.646 613.515 114.124 613.515 113.601C613.384 113.078 613.515 112.424 613.776 111.901C614.168 110.725 614.298 109.548 614.037 108.502C613.776 107.456 613.123 106.672 612.47 106.149C611.818 105.757 611.034 105.626 610.643 105.626C610.251 105.626 609.99 105.757 609.99 105.757C609.99 105.757 610.251 105.757 610.643 105.626C611.034 105.626 611.687 105.757 612.34 106.149C612.993 106.541 613.515 107.326 613.776 108.372C614.037 109.417 613.907 110.594 613.515 111.64C613.384 112.163 613.254 112.816 613.254 113.47C613.384 114.124 613.645 114.516 614.037 115.039C614.69 115.823 615.343 116.607 615.473 117.392C615.604 118.176 615.604 118.83 615.473 119.222C615.343 119.745 615.212 120.006 615.212 120.006Z" fill="#455A64"/>
<path d="M608.815 183.277C608.815 183.277 608.815 183.539 608.815 184.062C608.815 184.715 608.815 185.369 608.945 186.284C608.945 188.245 609.076 190.99 609.076 194.258L608.945 193.997C610.12 195.173 611.557 196.35 612.993 197.788H612.601C614.69 196.873 617.04 195.958 619.521 195.043L619.26 195.304C619.26 195.043 619.39 194.912 619.39 194.651C620.174 190.467 620.826 186.676 621.479 183.277L621.74 183.67C617.954 183.67 614.69 183.539 612.34 183.539C611.295 183.539 610.381 183.539 609.598 183.408C609.206 183.277 608.815 183.277 608.815 183.277C608.815 183.277 609.076 183.277 609.729 183.147C610.381 183.147 611.295 183.147 612.34 183.016C614.69 183.016 617.954 182.885 621.871 182.885H622.263V183.277C621.61 186.676 620.957 190.598 620.304 194.651C620.304 194.912 620.174 195.043 620.174 195.304V195.435L620.043 195.566C617.562 196.481 615.212 197.527 613.123 198.311L612.993 198.442L612.862 198.311C611.426 197.004 610.12 195.696 608.945 194.52L608.815 194.389V194.258C608.815 190.86 608.945 188.114 608.945 186.153C608.945 185.238 608.945 184.585 609.076 183.931C608.815 183.408 608.815 183.277 608.815 183.277Z" fill="#263238"/>
<path d="M621.088 186.676C621.088 186.807 618.346 187.199 614.951 187.199C611.557 187.199 608.815 186.938 608.815 186.676C608.815 186.546 611.557 186.546 614.951 186.415C618.346 186.415 621.088 186.415 621.088 186.676Z" fill="#263238"/>
<path d="M562.204 179.879C562.465 180.14 541.314 209.161 541.314 209.161H562.073L574.738 191.644L562.204 179.879Z" fill="#FFBE9D"/>
<path d="M520.032 21.3083H301.339V387.209H520.032V21.3083Z" fill="#F5F5F5"/>
<path d="M359.44 236.744L361.79 241.45L367.012 242.235L363.226 246.026L364.14 251.255L359.44 248.771L354.739 251.255L355.653 246.026L351.867 242.235L357.089 241.45L359.44 236.744Z" fill="#E8505B"/>
<path d="M385.422 236.744L387.772 241.45L392.994 242.235L389.208 246.026L390.122 251.255L385.422 248.771L380.721 251.255L381.635 246.026L377.849 242.235L383.071 241.45L385.422 236.744Z" fill="#E8505B"/>
<path d="M411.534 236.744L413.884 241.45L419.107 242.235L415.32 246.026L416.234 251.255L411.534 248.771L406.834 251.255L407.748 246.026L403.962 242.235L409.184 241.45L411.534 236.744Z" fill="#E8505B"/>
<path d="M437.516 236.744L439.866 241.45L445.089 242.235L441.302 246.026L442.216 251.255L437.516 248.771L432.816 251.255L433.73 246.026L429.944 242.235L435.166 241.45L437.516 236.744Z" fill="#E8505B"/>
<path d="M463.629 236.744L465.979 241.45L471.201 242.235L467.415 246.026L468.329 251.255L463.629 248.771L458.928 251.255L459.842 246.026L456.056 242.235L461.279 241.45L463.629 236.744Z" fill="#E8505B"/>
<path d="M401.872 279.622C401.872 279.753 385.291 280.014 364.793 280.014C344.294 280.014 327.713 279.884 327.713 279.622C327.713 279.361 344.294 279.23 364.793 279.23C385.291 279.361 401.872 279.491 401.872 279.622Z" fill="#E8505B"/>
<path d="M495.094 295.832C495.094 295.963 458.015 296.224 412.318 296.224C366.621 296.224 329.541 296.094 329.541 295.832C329.541 295.701 366.621 295.44 412.318 295.44C458.015 295.44 495.094 295.571 495.094 295.832Z" fill="#263238"/>
<path d="M495.094 309.558C495.094 309.689 458.015 309.951 412.318 309.951C366.621 309.951 329.541 309.82 329.541 309.558C329.541 309.297 366.621 309.166 412.318 309.166C458.015 309.297 495.094 309.428 495.094 309.558Z" fill="#263238"/>
<path d="M495.094 323.415C495.094 323.546 458.015 323.807 412.318 323.807C366.621 323.807 329.541 323.677 329.541 323.415C329.541 323.285 366.621 323.023 412.318 323.023C458.015 323.154 495.094 323.285 495.094 323.415Z" fill="#263238"/>
<path d="M495.094 337.272C495.094 337.403 458.015 337.664 412.318 337.664C366.621 337.664 329.541 337.534 329.541 337.272C329.541 337.142 366.621 336.88 412.318 336.88C458.015 337.011 495.094 337.142 495.094 337.272Z" fill="#263238"/>
<path d="M495.094 351.129C495.094 351.26 458.015 351.521 412.318 351.521C366.621 351.521 329.541 351.391 329.541 351.129C329.541 350.998 366.621 350.737 412.318 350.737C458.015 350.868 495.094 350.998 495.094 351.129Z" fill="#263238"/>
<path d="M504.234 39.8713H315.832V221.057H504.234V39.8713Z" fill="#E0E0E0"/>
<path d="M399.261 69.8075C401.22 63.1405 407.226 58.1729 414.015 56.6042C420.674 55.0355 429.03 52.8132 435.166 55.9506C438.952 57.9115 442.739 60.7875 444.175 64.8399C446.003 69.6768 443.261 78.5661 441.825 83.5337C440.389 88.5013 439.475 94.1225 442.086 98.4365C444.697 102.62 450.05 104.319 453.445 107.979C458.015 113.078 457.362 122.098 452.009 126.412C457.884 126.02 462.976 132.164 462.715 138.046C462.454 144.06 458.145 149.158 452.923 151.903C447.57 154.648 441.564 155.171 435.558 155.171C428.246 155.171 420.804 154.387 413.623 152.949C407.617 151.642 401.481 149.681 397.564 144.975C394.039 140.661 392.994 134.778 392.994 129.157C392.994 109.417 403.309 89.8086 398.87 70.4612" fill="#263238"/>
<path d="M403.962 65.3628C397.825 61.0489 389.077 60.7874 382.68 64.7092C376.282 68.631 372.496 76.3438 373.41 83.7952C373.932 87.7169 375.499 91.6387 374.585 95.4298C372.757 102.489 362.704 105.234 361.398 112.555C360.876 115.431 361.92 118.307 362.704 121.052C363.487 123.797 364.009 126.935 362.573 129.549C361.529 131.379 359.57 132.556 358.003 134.125C353.173 138.961 353.173 147.589 357.351 153.08C361.398 158.57 368.579 161.315 375.499 161.054C382.419 160.793 388.947 158.047 394.822 154.518" fill="#263238"/>
<path d="M389.6 73.2064L389.73 77.9125L390.644 148.374C390.775 156.609 397.825 163.015 406.573 162.753C415.451 162.623 422.632 155.694 422.632 147.459C422.632 138.831 422.893 129.68 422.893 129.68C422.893 129.68 433.991 127.85 436.341 113.208C437.516 106.019 437.124 94.1225 436.472 84.3181C435.949 75.5595 428.246 69.0232 419.499 69.9383L389.6 73.2064Z" fill="#B78876"/>
<path d="M430.857 92.6845C430.857 93.7303 430.074 94.5147 429.03 94.5147C427.985 94.5147 427.202 93.861 427.071 92.8152C427.071 91.7694 427.855 90.9851 428.899 90.9851C429.944 90.9851 430.857 91.7694 430.857 92.6845Z" fill="#263238"/>
<path d="M433.86 90.5929C433.599 90.8544 432.163 89.8085 430.205 89.8085C428.246 89.8085 426.68 90.8544 426.549 90.5929C426.418 90.4622 426.679 90.07 427.332 89.5471C427.985 89.0242 429.03 88.632 430.335 88.632C431.641 88.632 432.685 89.1549 433.208 89.5471C433.73 90.07 433.991 90.4622 433.86 90.5929Z" fill="#263238"/>
<path d="M411.534 92.6845C411.534 93.7303 410.751 94.5147 409.706 94.5147C408.662 94.5147 407.878 93.8611 407.748 92.8153C407.748 91.7695 408.531 90.9851 409.576 90.9851C410.62 90.9851 411.534 91.7695 411.534 92.6845Z" fill="#263238"/>
<path d="M414.145 90.9851C413.884 91.2465 412.448 90.2007 410.49 90.2007C408.531 90.2007 406.965 91.2465 406.834 90.9851C406.703 90.8544 406.965 90.4622 407.617 89.9393C408.27 89.4164 409.315 89.0242 410.62 89.0242C411.926 89.0242 412.97 89.5471 413.493 89.9393C414.015 90.4622 414.276 90.8544 414.145 90.9851Z" fill="#263238"/>
<path d="M421.457 105.888C421.457 105.757 422.632 105.496 424.721 105.234C425.243 105.234 425.766 105.103 425.766 104.711C425.896 104.319 425.635 103.796 425.374 103.143C424.852 101.835 424.329 100.659 423.807 99.2208C421.718 93.5996 420.151 89.0242 420.412 89.0242C420.674 88.8935 422.501 93.3382 424.59 98.9594C425.113 100.397 425.635 101.705 426.027 102.881C426.157 103.404 426.549 104.188 426.288 104.842C426.157 105.234 425.765 105.496 425.504 105.626C425.113 105.757 424.852 105.757 424.59 105.757C422.763 106.019 421.457 106.019 421.457 105.888Z" fill="#263238"/>
<path d="M422.763 129.68C422.763 129.68 412.97 130.334 403.309 124.451C403.309 124.451 408.009 134.517 422.632 133.079L422.763 129.68Z" fill="#AA6550"/>
<path d="M420.543 110.725C419.76 109.81 418.585 109.287 417.279 109.417C416.365 109.548 415.582 109.94 415.059 110.594C414.537 111.248 414.407 112.293 414.929 112.947C415.451 113.731 416.626 113.862 417.54 113.601C418.454 113.339 419.368 112.686 420.151 112.032C420.412 111.901 420.543 111.64 420.674 111.378C420.804 111.378 420.804 110.986 420.543 110.725Z" fill="#AA6550"/>
<path d="M415.582 107.326C415.973 107.326 415.973 109.548 417.801 110.986C419.629 112.555 421.979 112.293 421.979 112.555C421.979 112.686 421.457 112.947 420.543 112.947C419.629 112.947 418.193 112.686 417.018 111.77C415.843 110.855 415.451 109.548 415.32 108.633C415.19 107.849 415.32 107.326 415.582 107.326Z" fill="#263238"/>
<path d="M401.868 66.2073C401.736 66.1493 401.559 66.2629 401.472 66.4612C401.385 66.6595 401.421 66.8673 401.553 66.9254C401.685 66.9835 401.863 66.8698 401.95 66.6715C402.037 66.4732 402 66.2654 401.868 66.2073Z" fill="#263238"/>
<path d="M388.816 142.23C393.125 140.792 396.519 137.131 398.086 132.817C399.653 128.503 399.653 123.797 398.347 119.353C397.825 117.261 396.911 115.169 397.825 113.208C398.478 111.77 399.914 110.986 400.959 109.94C403.57 107.587 404.875 104.188 405.137 100.79C405.398 97.3907 404.484 93.8611 403.309 90.7236C402.656 89.0242 401.742 87.0633 402.395 85.2332C402.786 83.9259 403.962 83.1416 404.875 82.2265C406.964 80.2656 408.662 78.0433 409.967 75.4287C410.881 73.5986 411.534 71.507 410.62 69.6768C409.576 67.4545 406.834 66.8008 404.353 66.6701C398.608 66.2779 392.211 67.4545 388.555 72.0299C385.291 76.0824 384.899 81.5729 384.638 86.8019C383.855 103.143 383.202 119.614 385.944 135.693" fill="#263238"/>
<path d="M441.955 71.6377C441.303 72.2913 440.258 72.422 439.475 72.945C438.691 73.4679 438.169 74.1215 437.386 74.7751C436.994 75.1673 436.602 75.5595 436.211 75.9516C436.08 76.0824 436.08 76.2131 435.949 76.2131L435.558 76.6053C435.166 76.8667 434.905 77.2589 434.513 77.5204C433.73 78.174 432.816 79.0891 431.38 80.0041C430.074 80.9192 428.116 81.8343 426.027 82.3572C421.588 83.2723 417.801 82.3572 414.929 81.0499C412.056 79.612 410.098 77.7818 408.923 76.2131C406.442 72.945 406.051 70.1997 407.226 68.7617C408.401 67.3237 411.273 67.4545 414.407 68.2388C415.973 68.631 417.671 69.0232 419.107 69.1539C420.674 69.2846 421.979 69.2846 422.893 69.0232C423.285 68.8925 423.807 68.7617 424.721 68.3696C425.504 67.9774 426.549 67.4545 427.724 66.9316C428.246 66.6701 428.899 66.4087 429.552 66.1472C429.813 66.0165 430.205 65.8858 430.596 65.755C430.988 65.6243 431.38 65.4936 431.771 65.3629C433.338 64.9707 434.774 64.84 436.08 64.9707C438.822 65.2321 441.172 66.5394 442.086 68.1081C443 69.9383 442.608 71.1148 441.955 71.6377Z" fill="#263238"/>
<path d="M368.448 152.295C368.448 152.295 368.318 152.295 368.187 152.034C368.057 151.903 367.796 151.642 367.665 151.38C367.143 150.727 366.621 149.812 366.229 148.374C365.837 146.936 365.576 145.106 365.968 143.145C366.359 141.053 367.534 138.831 369.493 137.131C371.451 135.301 373.932 133.994 376.282 132.164C377.457 131.249 378.502 130.072 379.416 128.765C380.199 127.458 380.591 125.758 380.46 124.189C380.069 120.921 377.327 118.045 377.066 114.124C376.804 110.332 379.024 106.149 382.68 104.45C384.377 103.535 386.336 102.881 387.641 101.574C389.077 100.397 389.73 98.5672 389.6 96.737C389.6 94.9069 388.947 93.2074 388.294 91.6387C387.511 90.07 386.597 88.5013 385.813 87.0633C385.03 85.4946 384.377 83.9259 384.116 82.2265C383.855 80.527 384.116 78.9583 384.769 77.5203C385.944 74.6444 388.033 72.5528 390.252 71.1148C392.472 69.6768 394.822 69.1539 396.911 68.7617C399 68.5003 400.697 68.3695 402.134 68.3695C403.57 68.3695 404.745 68.5003 405.398 68.5003C405.789 68.5003 406.051 68.5003 406.312 68.631C406.442 68.631 406.573 68.631 406.573 68.631C406.573 68.631 406.181 68.631 405.398 68.631C404.614 68.631 403.57 68.631 402.134 68.631C400.697 68.631 399 68.7617 396.911 69.0232C394.953 69.4153 392.603 70.069 390.514 71.3762C388.425 72.6835 386.336 74.7751 385.291 77.5203C384.769 78.9583 384.508 80.3963 384.769 81.965C385.03 83.5337 385.552 85.1024 386.336 86.5404C387.119 88.1091 388.033 89.5471 388.816 91.1158C389.6 92.8152 390.122 94.5147 390.252 96.4756C390.383 98.4365 389.6 100.528 388.033 101.835C386.466 103.143 384.638 103.796 382.941 104.711C379.416 106.411 377.457 110.202 377.718 113.862C377.849 117.522 380.591 120.398 381.113 123.928C381.374 125.758 380.852 127.458 380.069 128.896C379.155 130.334 377.98 131.51 376.804 132.425C374.324 134.255 371.843 135.563 369.885 137.262C367.926 138.961 366.751 141.053 366.359 143.014C365.968 144.975 366.098 146.805 366.49 148.112C367.273 151.119 368.579 152.165 368.448 152.295Z" fill="#455A64"/>
<path d="M449.659 149.419C449.528 149.419 450.572 149.158 450.964 147.851C451.095 147.197 451.225 146.413 450.834 145.498C450.442 144.583 449.659 143.798 448.614 143.145C447.57 142.491 446.394 141.968 445.089 141.053C443.914 140.269 442.608 138.961 442.478 137.131C442.347 135.301 443.13 133.602 444.175 132.164C445.219 130.595 446.525 129.418 447.57 127.85C448.614 126.412 449.136 124.582 448.875 122.882C448.614 121.183 447.831 119.614 446.917 118.307C445.089 115.692 442.739 113.731 441.172 111.77C439.605 109.81 438.822 107.849 438.691 106.411C438.561 105.757 438.691 105.103 438.691 104.842C438.691 104.45 438.822 104.319 438.822 104.319C438.952 104.319 438.691 105.103 438.952 106.411C439.214 107.718 439.997 109.548 441.564 111.509C443 113.47 445.35 115.3 447.439 118.045C448.353 119.353 449.267 120.921 449.528 122.882C449.659 123.797 449.659 124.843 449.397 125.758C449.136 126.673 448.614 127.588 448.092 128.373C447.047 129.941 445.611 131.249 444.567 132.687C443.522 134.125 442.869 135.693 443 137.262C443.13 138.831 444.175 140.007 445.35 140.792C446.525 141.576 447.7 142.23 448.745 142.883C449.789 143.668 450.572 144.452 450.964 145.498C451.356 146.413 451.225 147.459 450.964 148.112C450.703 148.766 450.311 149.289 449.92 149.419C449.789 149.419 449.659 149.419 449.659 149.419Z" fill="#455A64"/>
<path d="M443 65.755C443 65.755 443 65.8858 443 66.1472C443 66.4087 443 66.9316 442.869 67.4545C442.608 68.5003 442.086 70.1997 440.65 71.6377C439.214 73.0757 436.733 74.2522 433.991 73.9907C432.685 73.86 431.249 73.4678 429.944 72.5528C428.638 71.6377 427.724 70.4612 426.679 69.4153C425.635 68.2388 424.721 67.193 423.546 66.4087C422.371 65.6243 421.196 64.9707 419.89 64.5785C417.41 63.7942 414.929 63.9249 413.101 64.3171C411.142 64.7092 409.706 65.4936 408.792 66.1472C407.878 66.8008 407.356 67.193 407.356 67.0623C407.356 67.0623 407.748 66.5394 408.662 65.8858C409.576 65.2321 411.012 64.3171 412.97 63.7941C414.929 63.2712 417.41 63.1405 420.021 63.9249C421.326 64.3171 422.632 64.9707 423.807 65.755C424.982 66.5394 426.157 67.7159 427.071 68.8925C428.116 70.069 429.03 71.2455 430.205 72.0299C431.38 72.8142 432.685 73.2064 433.86 73.3371C436.472 73.5986 438.691 72.5528 440.127 71.2455C441.564 69.9383 442.216 68.3695 442.478 67.3237C442.869 66.2779 442.869 65.6243 443 65.755Z" fill="#455A64"/>
<path d="M414.668 83.1415C414.407 83.6644 412.448 83.403 410.098 83.6644C407.748 83.9259 405.789 84.5795 405.528 84.0566C405.398 83.7952 405.659 83.2723 406.442 82.7494C407.226 82.2265 408.401 81.7036 409.837 81.5728C411.273 81.4421 412.579 81.7036 413.362 81.965C414.276 82.4879 414.798 82.8801 414.668 83.1415Z" fill="#263238"/>
<path d="M433.208 84.841C432.816 85.2332 431.51 84.841 429.813 84.841C428.116 84.7103 426.679 85.1024 426.418 84.7103C426.288 84.4488 426.549 84.0566 427.071 83.5337C427.724 83.1415 428.638 82.7494 429.813 82.7494C430.988 82.7494 431.902 83.1415 432.555 83.6644C433.077 84.0566 433.338 84.5795 433.208 84.841Z" fill="#263238"/>
<path d="M376.282 221.58C376.935 222.757 371.843 205.37 371.843 205.37L367.534 221.319L335.547 221.58C335.547 221.58 353.695 162.361 362.312 153.995C373.54 143.145 394.561 142.622 394.561 142.622L407.095 153.341L426.941 143.145C426.941 143.145 427.202 143.145 427.724 143.275C441.041 144.844 452.531 153.08 458.537 165.107L480.08 221.057H451.617L445.481 204.586L447.57 221.057" fill="#E8505B"/>
<path d="M384.246 143.929L413.101 209.684L427.724 143.275C427.724 143.275 423.677 143.014 417.932 142.883C414.798 142.752 411.012 155.433 407.095 155.302C404.614 155.302 402.134 142.491 399.653 142.491C396.519 142.491 393.386 142.622 390.644 142.752C388.163 142.622 386.074 143.668 384.246 143.929Z" fill="#FAFAFA"/>
<path d="M389.73 144.452V138.438C389.73 138.438 406.964 138.7 407.226 152.426C407.226 152.426 409.706 138.831 423.546 138.438L424.46 143.014L420.543 158.832L410.49 165.499H396.911L391.297 158.178L389.73 144.452Z" fill="#FAFAFA"/>
<path d="M412.84 211.383C412.84 211.383 412.84 211.122 412.97 210.599C413.101 210.076 413.362 209.423 413.754 208.638C414.145 207.854 414.929 206.808 415.843 205.893C416.757 204.847 417.801 203.801 418.976 202.625C421.196 200.141 424.068 197.265 426.157 193.343C427.202 191.382 427.855 189.16 427.985 186.807C428.116 184.454 427.463 181.97 426.027 180.009L425.504 179.356H426.288C426.549 179.356 426.81 179.356 427.202 179.356C428.377 179.094 429.421 178.441 430.205 177.395C430.988 176.48 431.38 175.303 431.641 174.127C432.033 171.774 431.51 169.42 431.119 167.067C430.335 162.623 429.682 158.57 429.16 155.041C428.638 151.642 428.246 148.897 427.855 146.936C427.724 146.021 427.593 145.367 427.593 144.713C427.593 144.19 427.463 143.929 427.593 143.929C427.593 143.929 427.724 144.19 427.855 144.713C427.985 145.236 428.116 146.021 428.246 146.936C428.638 148.897 429.16 151.642 429.682 155.041C430.335 158.44 430.988 162.492 431.771 166.937C432.163 169.159 432.685 171.643 432.294 174.127C432.163 175.434 431.641 176.741 430.727 177.787C429.944 178.833 428.768 179.748 427.332 180.009C426.941 180.009 426.679 180.009 426.288 180.009L426.549 179.486C428.246 181.578 428.768 184.323 428.638 186.807C428.507 189.291 427.724 191.644 426.679 193.605C424.46 197.657 421.588 200.402 419.237 202.886C418.062 204.063 417.018 205.109 415.973 206.154C415.059 207.069 414.407 207.985 413.884 208.769C413.231 210.338 412.97 211.383 412.84 211.383Z" fill="#263238"/>
<path d="M412.84 210.861C412.84 210.861 412.579 210.73 412.318 210.207C411.926 209.684 411.404 209.161 410.881 208.377C409.576 206.808 407.748 204.716 405.267 201.971C402.917 199.357 400.045 196.219 397.172 192.428C395.736 190.598 394.169 188.506 393.125 186.153C392.08 183.8 391.558 180.794 392.603 178.179C392.733 177.787 392.864 177.525 393.125 177.133L393.255 177.656C390.644 176.741 388.425 175.172 386.858 173.212C385.16 171.251 383.985 169.159 383.202 166.937C381.505 162.492 381.505 158.309 381.635 154.779C381.766 151.25 382.288 148.504 382.68 146.674C382.81 145.759 382.941 145.106 383.071 144.452C383.202 143.929 383.202 143.668 383.202 143.668C383.202 143.668 383.202 143.929 383.202 144.452C383.071 144.975 383.071 145.759 382.941 146.674C382.68 148.635 382.288 151.38 382.158 154.779C382.027 158.178 382.158 162.361 383.855 166.675C384.638 168.767 385.813 170.858 387.511 172.689C389.077 174.519 391.166 176.087 393.647 177.003L394.039 177.133L393.778 177.525C393.647 177.787 393.516 178.179 393.386 178.441C392.472 180.924 392.864 183.67 393.908 185.892C394.953 188.245 396.389 190.206 397.825 192.036C400.697 195.827 403.439 198.964 405.789 201.71C408.14 204.455 409.967 206.677 411.142 208.246C411.795 209.03 412.187 209.684 412.448 210.076C412.709 210.599 412.84 210.861 412.84 210.861Z" fill="#263238"/>
<path d="M412.579 221.449C412.448 221.449 412.318 218.835 412.448 215.567C412.579 212.299 412.709 209.684 412.97 209.684C413.232 209.684 413.232 212.299 413.101 215.567C412.97 218.835 412.709 221.449 412.579 221.449Z" fill="#263238"/>
<path d="M371.06 209.292C371.06 209.292 371.19 208.507 371.582 207.069C371.974 205.632 372.496 203.54 373.018 200.925C374.063 195.696 374.977 188.245 374.585 180.14C374.324 176.088 373.932 172.166 373.018 168.767C372.104 165.368 370.668 162.492 368.971 160.4C367.273 158.309 365.445 157.132 364.27 156.348C362.965 155.694 362.181 155.433 362.181 155.302C362.181 155.302 362.443 155.302 362.834 155.433C363.226 155.564 363.748 155.694 364.401 156.086C365.707 156.74 367.665 157.917 369.362 160.008C371.19 162.1 372.757 164.976 373.671 168.505C374.585 171.904 375.107 175.826 375.238 180.009C375.629 188.245 374.585 195.696 373.41 200.925C372.757 203.54 372.235 205.632 371.712 207.069C371.451 207.723 371.321 208.377 371.19 208.769C371.06 209.161 371.06 209.292 371.06 209.292Z" fill="#263238"/>
<path d="M445.742 198.703C445.742 198.703 445.611 197.919 445.611 196.481C445.611 195.043 445.611 193.082 445.481 190.598C445.35 185.63 444.828 178.702 443.783 171.12C442.086 159.224 439.214 149.289 438.3 145.628L438.169 145.236L438.43 145.498C439.344 146.151 439.736 146.543 439.736 146.543C439.736 146.543 439.214 146.282 438.3 145.628L438.43 145.498C439.605 149.027 442.739 158.832 444.436 170.858C445.481 178.441 445.872 185.369 446.003 190.467C446.003 192.951 446.003 195.043 445.872 196.481C445.872 197.919 445.742 198.703 445.742 198.703Z" fill="#263238"/>
<path d="M403.962 144.713C403.962 144.713 403.57 144.713 403.178 145.106C402.786 145.367 402.264 146.021 401.742 146.936C400.828 148.766 399.784 151.38 399.522 154.518L399.392 155.433L398.87 154.779C398.608 154.387 398.217 153.995 397.956 153.472C395.736 150.596 393.647 148.243 392.08 146.413C390.514 144.713 389.469 143.668 389.6 143.537C389.6 143.537 390.775 144.452 392.472 146.021C394.169 147.72 396.389 150.073 398.608 152.949C398.87 153.341 399.261 153.864 399.522 154.256L398.87 154.387C399.261 151.119 400.306 148.374 401.481 146.674C402.003 145.759 402.525 145.106 403.178 144.844C403.7 144.452 403.962 144.583 403.962 144.713Z" fill="#263238"/>
<path d="M424.199 143.406C424.329 143.406 423.415 144.713 421.849 146.674C420.412 148.635 418.193 151.25 415.843 154.126C415.451 154.648 415.059 155.171 414.537 155.694L414.015 156.348V155.433C414.015 153.864 413.884 152.295 413.623 150.988C413.362 149.681 412.97 148.504 412.448 147.72C411.404 146.021 410.098 145.498 410.229 145.367C410.229 145.367 410.62 145.367 411.012 145.759C411.534 146.021 412.187 146.543 412.84 147.459C413.493 148.374 414.015 149.55 414.276 150.857C414.537 152.295 414.668 153.864 414.668 155.433L414.015 155.171C414.407 154.648 414.798 154.126 415.19 153.603C417.54 150.727 419.76 148.112 421.326 146.282C423.154 144.452 424.068 143.275 424.199 143.406Z" fill="#263238"/>
<path d="M412.318 208.115C412.318 208.115 412.187 207.331 412.056 205.893C411.926 204.324 411.665 202.363 411.404 199.88C410.881 194.781 410.229 187.853 409.576 180.14C408.923 172.427 408.27 165.499 407.878 160.4C407.748 157.917 407.617 155.956 407.487 154.387C407.356 152.949 407.356 152.165 407.487 152.165C407.487 152.165 407.617 152.949 407.748 154.387C407.878 155.956 408.14 157.917 408.401 160.4C408.923 165.499 409.576 172.427 410.229 180.14C410.881 187.853 411.534 194.781 411.926 199.88C412.056 202.363 412.187 204.324 412.318 205.893C412.318 207.331 412.318 208.115 412.318 208.115Z" fill="#263238"/>
<path d="M412.318 164.322C412.318 164.322 412.84 163.93 413.493 164.453C413.754 164.714 414.145 165.107 414.145 165.629C414.145 166.283 413.623 166.806 413.101 167.067C412.448 167.329 411.795 167.067 411.404 166.545C411.012 166.022 411.142 165.499 411.273 165.107C411.534 164.322 412.187 164.191 412.187 164.322C412.187 164.453 411.795 164.584 411.795 165.237C411.795 165.499 411.795 165.891 412.056 166.152C412.318 166.414 412.709 166.545 413.101 166.414C413.493 166.283 413.754 166.022 413.754 165.629C413.754 165.368 413.623 164.976 413.362 164.845C412.84 164.322 412.318 164.453 412.318 164.322Z" fill="#263238"/>
<path d="M414.798 180.532C414.798 180.401 415.32 180.271 415.973 180.924C416.234 181.186 416.496 181.709 416.365 182.362C416.234 183.016 415.582 183.408 414.929 183.408C414.276 183.408 413.623 183.016 413.362 182.493C413.231 181.97 413.362 181.447 413.623 181.055C414.276 180.271 414.929 180.532 414.798 180.532C414.798 180.663 414.276 180.663 414.015 181.186C413.884 181.447 413.754 181.839 413.884 182.101C414.015 182.362 414.407 182.624 414.798 182.624C415.19 182.624 415.582 182.362 415.712 182.101C415.843 181.839 415.712 181.447 415.582 181.186C415.32 180.663 414.798 180.663 414.798 180.532Z" fill="#263238"/>
<g opacity="0.3">
<path opacity="0.3" d="M382.549 144.583C380.069 153.341 377.849 163.146 382.288 170.989C383.594 173.342 385.552 175.303 386.858 177.787C389.077 181.839 389.208 186.807 390.514 191.252C393.255 200.272 403.178 209.03 412.448 210.468C407.617 204.586 400.175 197.004 395.736 190.337C394.3 188.245 393.255 186.807 392.733 184.454C392.211 181.97 391.819 179.486 393.386 177.525C387.119 176.61 383.594 170.074 382.419 163.93C381.244 157.655 381.766 151.25 383.202 145.106" fill="black"/>
</g>
<g opacity="0.3">
<path opacity="0.3" d="M446.003 190.86C444.436 200.141 445.481 212.429 451.225 220.011C453.314 209.815 452.27 196.35 446.003 187.984" fill="black"/>
</g>
<path d="M293.375 76.4745H139.963V333.22H293.375V76.4745Z" fill="#F5F5F5"/>
<path d="M180.699 227.593L182.266 230.992L185.922 231.515L183.31 234.13L183.963 237.79L180.699 235.96L177.304 237.79L177.957 234.13L175.346 231.515L179.002 230.992L180.699 227.593Z" fill="#E8505B"/>
<path d="M198.978 227.593L200.545 230.992L204.2 231.515L201.589 234.13L202.242 237.79L198.978 235.96L195.583 237.79L196.236 234.13L193.625 231.515L197.281 230.992L198.978 227.593Z" fill="#E8505B"/>
<path d="M217.126 227.593L218.823 230.992L222.479 231.515L219.868 234.13L220.521 237.79L217.126 235.96L213.862 237.79L214.515 234.13L211.904 231.515L215.559 230.992L217.126 227.593Z" fill="#E8505B"/>
<path d="M235.405 227.593L237.102 230.992L240.758 231.515L238.147 234.13L238.799 237.79L235.405 235.96L232.141 237.79L232.794 234.13L230.182 231.515L233.838 230.992L235.405 227.593Z" fill="#E8505B"/>
<path d="M253.684 227.593L255.381 230.992L259.037 231.515L256.425 234.13L257.078 237.79L253.684 235.96L250.42 237.79L251.072 234.13L248.461 231.515L252.117 230.992L253.684 227.593Z" fill="#E8505B"/>
<path d="M184.355 258.052C198.704 258.052 210.337 257.877 210.337 257.66C210.337 257.444 198.704 257.268 184.355 257.268C170.005 257.268 158.373 257.444 158.373 257.66C158.373 257.877 170.005 258.052 184.355 258.052Z" fill="#E8505B"/>
<path d="M275.749 269.033C275.749 269.164 249.767 269.426 217.779 269.426C185.66 269.426 159.678 269.295 159.678 269.033C159.678 268.772 185.66 268.641 217.779 268.641C249.767 268.641 275.749 268.772 275.749 269.033Z" fill="#263238"/>
<path d="M275.749 278.707C275.749 278.838 249.767 279.099 217.779 279.099C185.66 279.099 159.678 278.969 159.678 278.707C159.678 278.446 185.66 278.315 217.779 278.315C249.767 278.446 275.749 278.576 275.749 278.707Z" fill="#263238"/>
<path d="M275.749 288.381C275.749 288.512 249.767 288.773 217.779 288.773C185.66 288.773 159.678 288.642 159.678 288.381C159.678 288.25 185.66 287.989 217.779 287.989C249.767 288.119 275.749 288.25 275.749 288.381Z" fill="#263238"/>
<path d="M275.749 298.185C275.749 298.316 249.767 298.577 217.779 298.577C185.66 298.577 159.678 298.447 159.678 298.185C159.678 298.055 185.66 297.793 217.779 297.793C249.767 297.793 275.749 297.924 275.749 298.185Z" fill="#263238"/>
<path d="M275.749 307.859C275.749 307.99 249.767 308.251 217.779 308.251C185.66 308.251 159.678 308.12 159.678 307.859C159.678 307.728 185.66 307.467 217.779 307.467C249.767 307.598 275.749 307.728 275.749 307.859Z" fill="#263238"/>
<path d="M281.885 89.4164H149.756V216.482H281.885V89.4164Z" fill="#E0E0E0"/>
<path d="M224.046 152.426C224.046 155.694 224.307 157.655 224.438 160.923C224.438 161.708 224.568 162.753 225.09 163.146C225.613 163.538 226.396 163.538 227.049 163.276C227.702 163.015 228.093 162.492 228.616 161.838C232.271 157.394 234.491 151.772 235.013 146.021C235.013 145.498 235.013 144.975 234.752 144.583C234.23 143.929 233.316 144.19 232.532 144.583C228.877 146.282 225.874 149.027 224.046 152.426Z" fill="#263238"/>
<path d="M201.85 112.947V116.215L202.503 165.629C202.634 171.381 207.595 175.826 213.731 175.695C219.868 175.565 224.96 170.728 224.96 164.976C224.96 158.832 225.09 152.426 225.09 152.426C225.09 152.426 232.924 151.119 234.491 140.922C235.274 135.824 235.013 127.458 234.621 120.66C234.23 114.516 228.877 109.94 222.74 110.594L201.85 112.947Z" fill="#FFBE9D"/>
<path d="M230.705 126.542C230.705 127.196 230.182 127.85 229.399 127.85C228.616 127.85 228.093 127.327 228.093 126.673C228.093 126.02 228.616 125.366 229.399 125.366C230.182 125.366 230.705 125.889 230.705 126.542Z" fill="#263238"/>
<path d="M232.924 125.104C232.794 125.235 231.749 124.582 230.313 124.582C228.877 124.582 227.832 125.235 227.702 125.104C227.571 124.974 227.832 124.712 228.224 124.451C228.616 124.059 229.399 123.797 230.313 123.797C231.227 123.797 231.88 124.189 232.402 124.451C232.794 124.712 232.924 124.974 232.924 125.104Z" fill="#263238"/>
<path d="M217.126 126.542C217.126 127.196 216.604 127.85 215.82 127.85C215.037 127.85 214.515 127.327 214.515 126.673C214.515 126.02 215.037 125.366 215.82 125.366C216.604 125.366 217.126 125.889 217.126 126.542Z" fill="#263238"/>
<path d="M219.085 125.366C218.954 125.497 217.909 124.843 216.473 124.843C215.037 124.843 213.993 125.497 213.862 125.366C213.731 125.235 213.993 124.974 214.384 124.712C214.776 124.32 215.559 124.059 216.473 124.059C217.387 124.059 218.04 124.451 218.562 124.712C218.954 124.974 219.085 125.235 219.085 125.366Z" fill="#263238"/>
<path d="M224.176 135.824C224.176 135.693 225.09 135.563 226.527 135.432C226.918 135.432 227.179 135.301 227.31 135.04C227.441 134.778 227.179 134.386 227.049 133.994C226.657 133.079 226.396 132.164 226.004 131.249C224.568 127.327 223.393 124.189 223.654 124.059C223.785 124.059 225.09 127.065 226.657 130.987C227.049 131.902 227.31 132.817 227.702 133.732C227.832 134.125 228.093 134.647 227.832 135.17C227.702 135.432 227.441 135.693 227.179 135.693C226.918 135.824 226.788 135.824 226.527 135.824C225.09 135.824 224.176 135.955 224.176 135.824Z" fill="#263238"/>
<path d="M225.09 152.557C225.09 152.557 218.171 152.949 211.381 148.897C211.381 148.897 214.645 155.956 224.96 154.91L225.09 152.557Z" fill="#EB996E"/>
<path d="M223.524 139.223C223.001 138.569 222.087 138.177 221.304 138.308C220.651 138.438 220.129 138.7 219.737 139.223C219.346 139.746 219.346 140.399 219.607 140.922C219.998 141.445 220.782 141.576 221.435 141.445C222.087 141.314 222.74 140.792 223.263 140.399C223.393 140.269 223.524 140.138 223.654 140.007C223.654 139.615 223.785 139.354 223.524 139.223Z" fill="#EB996E"/>
<path d="M219.998 136.739C220.26 136.739 220.26 138.308 221.565 139.354C222.871 140.399 224.438 140.269 224.568 140.53C224.568 140.661 224.176 140.792 223.524 140.792C222.871 140.792 221.826 140.661 221.043 139.876C220.26 139.223 219.868 138.308 219.868 137.654C219.737 137.131 219.868 136.739 219.998 136.739Z" fill="#263238"/>
<path d="M217.126 112.032C218.171 112.293 219.085 113.078 219.737 113.993C220.39 114.908 220.912 115.823 221.696 116.738C223.393 118.568 226.396 118.96 228.616 117.784C229.399 118.568 230.574 119.483 231.619 119.091C232.271 118.83 232.663 118.307 232.794 117.653C232.924 117 232.794 116.346 232.532 115.692C231.488 113.208 228.746 111.901 226.004 111.378C222.74 110.725 219.346 110.986 216.343 112.163" fill="#263238"/>
<path d="M192.45 217.005C192.972 217.92 189.316 205.632 189.316 205.632L186.313 216.743L163.856 216.874C163.856 216.874 176.521 175.303 182.657 169.421C190.491 161.838 205.245 161.446 205.245 161.446L228.093 161.838C228.093 161.838 228.224 161.838 228.616 161.838C237.886 163.015 245.98 168.767 250.158 177.133L265.304 216.351H245.328L241.019 204.716L242.455 216.351" fill="#263238"/>
<path d="M238.277 160.531C237.624 158.832 235.144 158.962 233.969 157.524C232.794 155.956 233.838 153.864 234.752 152.034C239.061 143.668 238.669 133.732 237.886 124.451C237.494 120.398 237.102 116.346 235.405 112.686C231.88 105.496 223.524 99.7437 213.209 100.136C204.723 100.528 198.325 108.11 193.755 115.3C189.186 122.49 186.705 133.602 188.272 141.968C189.055 146.151 193.494 149.419 192.711 153.603C192.189 156.217 189.447 159.355 189.969 161.969C190.752 165.499 195.844 166.806 198.978 168.767C202.111 170.858 204.723 173.604 207.464 176.218C210.206 178.833 213.209 181.186 216.734 182.493C220.26 183.67 224.568 183.539 227.441 181.055C232.141 177.133 231.749 169.42 236.058 164.976C237.233 163.799 239.061 162.231 238.277 160.531ZM231.619 115.3C233.316 117.915 233.446 121.313 233.969 124.451C234.621 129.68 235.013 135.17 234.099 140.399C233.185 145.628 230.966 150.857 227.179 154.518C223.393 158.178 217.648 160.139 212.556 158.962C206.681 157.524 204.853 152.426 203.286 146.674C201.589 140.922 205.245 135.693 206.942 129.941C208.248 125.497 208.639 119.222 211.512 115.692C214.384 112.032 219.084 111.901 220.521 111.901C220.39 111.901 228.093 110.071 231.619 115.3Z" fill="#E8505B"/>
<g opacity="0.3">
<path opacity="0.3" d="M190.361 157.786C193.755 159.616 196.497 162.623 199.37 165.368C202.111 168.113 205.245 170.728 209.162 171.774C212.948 172.819 217.518 171.643 219.476 168.113C208.639 169.943 197.15 163.146 193.364 152.818" fill="black"/>
</g>
<g opacity="0.3">
<path opacity="0.3" d="M233.446 155.433C232.794 158.178 230.835 160.531 228.354 161.838C227.832 162.1 227.179 162.361 226.657 162.753C226.135 163.146 225.874 163.93 226.135 164.453C226.396 165.107 227.31 165.368 227.963 165.107C228.616 164.845 229.138 164.322 229.66 163.93C231.488 162.1 233.446 160.139 233.969 157.524" fill="black"/>
</g>
<path d="M692.636 232.038C703.236 232.038 711.829 223.434 711.829 212.821C711.829 202.208 703.236 193.605 692.636 193.605C682.036 193.605 673.443 202.208 673.443 212.821C673.443 223.434 682.036 232.038 692.636 232.038Z" fill="#E0E0E0"/>
<path d="M689.764 220.926C689.764 220.796 690.678 219.881 692.506 218.443C694.203 217.005 696.683 214.913 699.295 212.821V213.344L699.164 213.214C696.553 210.861 694.203 208.769 692.506 207.2C690.808 205.631 689.764 204.716 689.894 204.586C689.894 204.455 691.069 205.37 692.897 206.808C694.725 208.246 697.075 210.338 699.686 212.56L699.817 212.691L700.078 212.952L699.817 213.214C697.075 215.436 694.725 217.397 692.897 218.704C690.939 220.273 689.894 221.057 689.764 220.926Z" fill="#263238"/>
<path d="M130.693 232.038C141.293 232.038 149.886 223.434 149.886 212.821C149.886 202.208 141.293 193.605 130.693 193.605C120.094 193.605 111.501 202.208 111.501 212.821C111.501 223.434 120.094 232.038 130.693 232.038Z" fill="#E0E0E0"/>
<path d="M133.566 204.716C133.566 204.847 132.652 205.762 130.824 207.2C129.127 208.638 126.646 210.73 124.035 212.821V212.298L124.165 212.429C126.777 214.782 129.127 216.874 130.824 218.443C132.521 220.011 133.566 220.926 133.435 221.057C133.435 221.188 132.26 220.273 130.432 218.835C128.604 217.397 126.254 215.305 123.643 213.083L123.512 212.952L123.251 212.691L123.512 212.429C126.254 210.207 128.604 208.246 130.432 206.939C132.391 205.37 133.435 204.586 133.566 204.716Z" fill="#263238"/>
<path d="M339.333 25.3608C304.734 43.7931 279.274 74.6444 267.784 112.163C244.153 189.683 287.761 272.04 365.184 295.701C412.709 310.212 461.931 299.362 498.489 270.994L622.132 425.904L641.064 410.74L516.376 254.523C530.738 238.836 541.966 219.881 548.495 198.311C550.061 193.213 551.367 187.984 552.281 182.885C558.548 150.073 553.587 116.346 537.658 86.4097C519.249 51.7674 488.436 26.2759 450.964 14.772C413.623 3.13742 373.932 6.92846 339.333 25.3608ZM444.044 37.9104C475.379 47.4534 501.1 68.7617 516.376 97.6521C531.783 126.542 534.916 159.747 525.385 191.121C505.539 255.83 436.994 292.303 372.365 272.563C307.737 252.693 271.31 184.062 291.025 119.353C300.556 87.9784 321.838 62.2254 350.692 46.9305C379.546 31.3742 412.709 28.2367 444.044 37.9104Z" fill="#455A64"/>
</svg>
