<svg width="267" height="165" viewBox="0 0 267 165" fill="none" xmlns="http://www.w3.org/2000/svg">
<g clip-path="url(#clip0)">
<path d="M58.0657 19.0517H0.114868V58.0732H58.0657V19.0517Z" fill="white"/>
<path d="M58.065 58.035C58.065 58.035 58.065 57.8055 58.065 57.3082C58.065 56.8491 58.065 56.1605 58.065 55.2423C58.065 53.4442 58.065 50.8046 58.0269 47.3997C58.0269 40.6283 57.9889 30.8729 57.9889 19.0135L58.065 19.09C42.0838 19.09 21.9551 19.09 0.114151 19.1282L0.228303 19.0135C0.228303 32.9005 0.228303 46.1373 0.228303 58.035L0.152202 57.9585C17.1988 57.9968 31.696 57.9968 41.8935 57.9968C46.9923 57.9968 51.0637 58.035 53.8033 58.035C55.1731 58.035 56.2386 58.035 56.9615 58.035C57.304 58.035 57.6084 58.035 57.7986 58.035C57.9508 58.035 58.065 58.035 58.065 58.035C58.065 58.035 57.9889 58.035 57.7986 58.035C57.6084 58.035 57.342 58.035 56.9996 58.035C56.2766 58.035 55.2112 58.035 53.8414 58.035C51.0637 58.035 47.0304 58.035 41.9316 58.0733C31.696 58.0733 17.1988 58.1115 0.114151 58.1115L0 58.1498V58.035C0 46.1373 0 32.9388 0 19.0135V18.8987H0.114151C21.9551 18.8987 42.0838 18.8987 58.065 18.9369H58.1411V19.0135C58.1411 30.9112 58.103 40.6666 58.103 47.4762C58.103 50.8428 58.103 53.5208 58.065 55.3188C58.065 56.1987 58.065 56.8873 58.065 57.3464C58.065 57.8055 58.065 58.035 58.065 58.035Z" fill="#E0E0E0"/>
<path d="M0.114868 22.533C0.114868 22.4565 13.0901 22.4183 29.0713 22.4183C45.0524 22.4183 58.0276 22.4565 58.0276 22.533C58.0276 22.6096 45.0524 22.6478 29.0713 22.6478C13.052 22.6096 0.114868 22.5713 0.114868 22.533Z" fill="#E0E0E0"/>
<g opacity="0.3">
<g opacity="0.3">
<path opacity="0.3" d="M1.94061 21.2323C2.19279 21.2323 2.39722 21.0268 2.39722 20.7733C2.39722 20.5197 2.19279 20.3142 1.94061 20.3142C1.68844 20.3142 1.48401 20.5197 1.48401 20.7733C1.48401 21.0268 1.68844 21.2323 1.94061 21.2323Z" fill="#E0E0E0"/>
</g>
</g>
<g opacity="0.3">
<g opacity="0.3">
<path opacity="0.3" d="M3.50067 21.2323C3.75285 21.2323 3.95728 21.0268 3.95728 20.7733C3.95728 20.5197 3.75285 20.3142 3.50067 20.3142C3.2485 20.3142 3.04407 20.5197 3.04407 20.7733C3.04407 21.0268 3.2485 21.2323 3.50067 21.2323Z" fill="#E0E0E0"/>
</g>
</g>
<g opacity="0.3">
<g opacity="0.3">
<path opacity="0.3" d="M5.09882 21.2323C5.35099 21.2323 5.55542 21.0268 5.55542 20.7733C5.55542 20.5197 5.35099 20.3142 5.09882 20.3142C4.84664 20.3142 4.64221 20.5197 4.64221 20.7733C4.64221 21.0268 4.84664 21.2323 5.09882 21.2323Z" fill="#E0E0E0"/>
</g>
</g>
<path d="M20.5472 26.5882H5.09875V42.1203H20.5472V26.5882Z" fill="#E0E0E0"/>
<path d="M50.1124 30.9877C50.1124 31.0642 44.1005 31.1025 36.6426 31.1025C29.2228 31.1025 23.1727 31.0642 23.1727 30.9877C23.1727 30.9112 29.1847 30.873 36.6426 30.873C44.0624 30.873 50.1124 30.9112 50.1124 30.9877Z" fill="#E0E0E0"/>
<path d="M50.1124 33.857C50.1124 33.9335 44.1005 33.9717 36.6426 33.9717C29.2228 33.9717 23.1727 33.9335 23.1727 33.857C23.1727 33.7804 29.1847 33.7422 36.6426 33.7422C44.0624 33.7804 50.1124 33.8187 50.1124 33.857Z" fill="#E0E0E0"/>
<path d="M50.1124 36.7644C50.1124 36.8409 44.1005 36.8792 36.6426 36.8792C29.2228 36.8792 23.1727 36.8409 23.1727 36.7644C23.1727 36.6879 29.1847 36.6497 36.6426 36.6497C44.0624 36.6497 50.1124 36.6879 50.1124 36.7644Z" fill="#E0E0E0"/>
<path d="M39.0778 39.6337C39.0778 39.6337 38.8495 39.6719 38.469 39.6719C38.0124 39.6719 37.4416 39.7102 36.7567 39.7102C35.3108 39.7102 33.3322 39.7485 31.1253 39.7485C28.9183 39.7485 26.9397 39.7485 25.4938 39.7102C24.8089 39.7102 24.2381 39.6719 23.7815 39.6719C23.363 39.6719 23.1727 39.6337 23.1727 39.6337C23.1727 39.6337 23.401 39.5954 23.7815 39.5954C24.2381 39.5954 24.8089 39.5572 25.4938 39.5572C26.9397 39.5572 28.9183 39.5189 31.1253 39.5189C33.3322 39.5189 35.3108 39.5189 36.7567 39.5572C37.4416 39.5572 38.0124 39.5954 38.469 39.5954C38.8876 39.6337 39.0778 39.6337 39.0778 39.6337Z" fill="#E0E0E0"/>
<path d="M13.3177 47.3615H6.05005V54.6685H13.3177V47.3615Z" fill="#E0E0E0"/>
<path d="M26.4831 47.3615H19.2155V54.6685H26.4831V47.3615Z" fill="#E0E0E0"/>
<path d="M39.6866 47.3615H32.4189V54.6685H39.6866V47.3615Z" fill="#E0E0E0"/>
<path d="M52.8521 47.3615H45.5845V54.6685H52.8521V47.3615Z" fill="#E0E0E0"/>
<path d="M116.511 0.0765076H66.5887V20.4672H116.511V0.0765076Z" fill="white"/>
<path d="M116.511 20.4672C116.511 20.4672 116.511 20.3524 116.511 20.0846C116.511 19.8551 116.511 19.4725 116.511 19.0134C116.511 18.0953 116.511 16.7181 116.511 14.9583C116.511 11.4387 116.511 6.35057 116.472 0.0382564L116.511 0.0765129C103.802 0.0765129 86.1462 0.0765129 66.5883 0.114769L66.6644 0.0382564C66.6644 7.19221 66.6644 14.0784 66.6644 20.4289L66.5883 20.3524C81.0475 20.3524 93.528 20.3907 102.394 20.3907C106.808 20.3907 110.346 20.3907 112.782 20.4289C113.999 20.4289 114.912 20.4289 115.559 20.4289C115.864 20.4289 116.13 20.4289 116.282 20.4289C116.434 20.4672 116.511 20.4672 116.511 20.4672C116.511 20.4672 116.434 20.4672 116.282 20.4672C116.13 20.4672 115.864 20.4672 115.559 20.4672C114.912 20.4672 113.999 20.4672 112.782 20.4672C110.346 20.4672 106.846 20.4672 102.432 20.5054C93.5661 20.5054 81.0855 20.5437 66.5883 20.5437H66.5122V20.4672C66.5122 14.1166 66.5122 7.23047 66.5122 0.0765129V0H66.5883C86.1462 0 103.802 0 116.511 0.0382564H116.549V0.0765129C116.549 6.38882 116.511 11.4769 116.511 15.0348C116.511 16.7946 116.511 18.1336 116.511 19.09C116.511 19.549 116.511 19.8933 116.511 20.1229C116.511 20.3524 116.511 20.4672 116.511 20.4672Z" fill="#E0E0E0"/>
<path d="M66.6653 2.83097C66.6653 2.79271 77.8141 2.75446 91.5883 2.75446C105.363 2.75446 116.511 2.79271 116.511 2.83097C116.511 2.86922 105.363 2.90748 91.5883 2.90748C77.8141 2.90748 66.6653 2.86922 66.6653 2.83097Z" fill="#E0E0E0"/>
<g opacity="0.3">
<g opacity="0.3">
<path opacity="0.3" d="M68.3766 1.98934C68.5868 1.98934 68.7571 1.81806 68.7571 1.60678C68.7571 1.39549 68.5868 1.22421 68.3766 1.22421C68.1665 1.22421 67.9961 1.39549 67.9961 1.60678C67.9961 1.81806 68.1665 1.98934 68.3766 1.98934Z" fill="#EBEBEB"/>
</g>
</g>
<g opacity="0.3">
<g opacity="0.3">
<path opacity="0.3" d="M69.6323 1.98934C69.8425 1.98934 70.0128 1.81806 70.0128 1.60678C70.0128 1.39549 69.8425 1.22421 69.6323 1.22421C69.4222 1.22421 69.2518 1.39549 69.2518 1.60678C69.2518 1.81806 69.4222 1.98934 69.6323 1.98934Z" fill="#EBEBEB"/>
</g>
</g>
<g opacity="0.3">
<g opacity="0.3">
<path opacity="0.3" d="M70.8499 1.98934C71.06 1.98934 71.2304 1.81806 71.2304 1.60678C71.2304 1.39549 71.06 1.22421 70.8499 1.22421C70.6397 1.22421 70.4694 1.39549 70.4694 1.60678C70.4694 1.81806 70.6397 1.98934 70.8499 1.98934Z" fill="#EBEBEB"/>
</g>
</g>
<path d="M82.912 6.15927H70.85V18.2866H82.912V6.15927Z" fill="#E0E0E0"/>
<path d="M113.086 9.37284C113.086 9.4111 106.884 9.44935 99.236 9.44935C91.5878 9.44935 85.3856 9.4111 85.3856 9.37284C85.3856 9.33458 91.5878 9.29633 99.236 9.29633C106.846 9.29633 113.086 9.33458 113.086 9.37284Z" fill="#E0E0E0"/>
<path d="M113.086 11.8595C113.086 11.8978 106.884 11.936 99.236 11.936C91.5878 11.936 85.3856 11.8978 85.3856 11.8595C85.3856 11.8212 91.5878 11.783 99.236 11.783C106.846 11.783 113.086 11.8212 113.086 11.8595Z" fill="#E0E0E0"/>
<path d="M103.193 14.3462C103.193 14.3462 103.117 14.3462 103.003 14.3462C102.85 14.3462 102.698 14.3462 102.47 14.3462C102.013 14.3462 101.366 14.3462 100.567 14.3844C98.9311 14.3844 96.7242 14.3844 94.2509 14.4227C91.7777 14.4227 89.5707 14.4227 87.9346 14.3844C87.1355 14.3844 86.4886 14.3844 86.032 14.3462C85.8037 14.3462 85.6515 14.3462 85.4993 14.3462C85.3852 14.3462 85.3091 14.3462 85.3091 14.3462C85.3091 14.3462 85.3852 14.3462 85.4993 14.3462C85.6515 14.3462 85.8037 14.3462 86.032 14.3462C86.4886 14.3462 87.1355 14.3462 87.9346 14.3079C89.5707 14.3079 91.7777 14.3079 94.2509 14.2697C96.6862 14.2697 98.9311 14.2697 100.567 14.3079C101.366 14.3079 102.013 14.3079 102.47 14.3462C102.698 14.3462 102.85 14.3462 103.003 14.3462C103.117 14.3079 103.193 14.3079 103.193 14.3462Z" fill="#E0E0E0"/>
<path d="M251.209 27.2768C251.209 27.2768 251.285 27.1621 251.475 26.9708C251.704 26.7412 251.97 26.4734 252.313 26.1291C252.997 25.4405 253.987 24.4841 255.052 23.4512L255.09 23.4129V23.566C253.987 22.533 253.035 21.6149 252.313 20.9263C251.97 20.6202 251.704 20.3524 251.475 20.1229C251.285 19.9316 251.171 19.8168 251.209 19.8168C251.209 19.8168 251.323 19.8933 251.552 20.0846C251.78 20.2759 252.084 20.5437 252.427 20.8498C253.15 21.5001 254.139 22.4183 255.242 23.4512L255.319 23.5277L255.242 23.6042L255.204 23.6425C254.139 24.6754 253.15 25.6318 252.427 26.2822C252.084 26.5882 251.78 26.856 251.552 27.0856C251.323 27.2003 251.209 27.2768 251.209 27.2768Z" fill="#E0E0E0"/>
<path d="M242.762 19.8168C242.762 19.8168 242.686 19.9316 242.496 20.1229C242.267 20.3524 242.001 20.6202 241.658 20.9645C240.974 21.6531 239.984 22.6096 238.919 23.6425L238.881 23.6807V23.5277C239.984 24.5606 240.935 25.4788 241.658 26.1674C242.001 26.4734 242.267 26.7412 242.496 26.9708C242.686 27.1621 242.8 27.2768 242.762 27.2768C242.762 27.2768 242.648 27.2003 242.419 27.009C242.191 26.8178 241.887 26.55 241.544 26.2439C240.821 25.5936 239.832 24.6754 238.729 23.6425L238.652 23.566L238.729 23.4894L238.767 23.4512C239.832 22.4183 240.821 21.4619 241.544 20.8115C241.887 20.5054 242.191 20.2377 242.419 20.0081C242.648 19.8933 242.762 19.8168 242.762 19.8168Z" fill="#E0E0E0"/>
<path d="M246.914 23.4694C245.773 26.5366 244.896 29.0412 244.955 29.0634C245.014 29.0856 245.987 26.6171 247.128 23.5498C248.269 20.4825 249.146 17.978 249.087 17.9558C249.028 17.9336 248.056 20.4021 246.914 23.4694Z" fill="#E0E0E0"/>
<path d="M260.798 34.3925C260.798 34.3925 260.798 34.2395 260.798 33.9717C260.798 33.7039 260.798 33.2831 260.798 32.7858C260.798 31.7146 260.798 30.1843 260.76 28.2332C260.76 24.2928 260.722 18.7074 260.722 11.936L260.798 12.0125C252.959 12.0125 243.523 12.0125 233.402 12.0125L233.516 11.8978C233.516 20.0081 233.516 27.6977 233.516 34.3543L233.44 34.2778C241.582 34.2778 248.431 34.316 253.226 34.316C255.623 34.316 257.525 34.316 258.819 34.3543C259.466 34.3543 259.961 34.3543 260.303 34.3543C260.455 34.3543 260.608 34.3543 260.684 34.3543C260.722 34.3925 260.798 34.3925 260.798 34.3925C260.798 34.3925 260.76 34.3925 260.684 34.3925C260.608 34.3925 260.455 34.3925 260.303 34.3925C259.961 34.3925 259.466 34.3925 258.819 34.3925C257.525 34.3925 255.623 34.3925 253.226 34.4308C248.393 34.4308 241.544 34.469 233.363 34.469H233.287V34.3925C233.287 27.7359 233.287 20.0464 233.287 11.936V11.8595H233.402C243.523 11.8595 252.959 11.8595 260.798 11.8595H260.874V11.936C260.874 18.7074 260.836 24.3311 260.836 28.2715C260.836 30.2226 260.836 31.7528 260.798 32.824C260.798 33.3214 260.798 33.7422 260.798 34.01C260.798 34.2778 260.798 34.3925 260.798 34.3925Z" fill="#E0E0E0"/>
<path d="M260.989 15.2643C260.989 15.3026 254.786 15.3791 247.176 15.3791C239.528 15.3791 233.364 15.3408 233.364 15.2643C233.364 15.2261 239.566 15.1495 247.176 15.1495C254.824 15.1878 260.989 15.2261 260.989 15.2643Z" fill="#E0E0E0"/>
<path d="M235.228 14.0019C235.438 14.0019 235.608 13.8306 235.608 13.6193C235.608 13.408 235.438 13.2367 235.228 13.2367C235.018 13.2367 234.847 13.408 234.847 13.6193C234.847 13.8306 235.018 14.0019 235.228 14.0019Z" fill="#E0E0E0"/>
<path d="M236.598 14.0019C236.808 14.0019 236.978 13.8306 236.978 13.6193C236.978 13.408 236.808 13.2367 236.598 13.2367C236.388 13.2367 236.217 13.408 236.217 13.6193C236.217 13.8306 236.388 14.0019 236.598 14.0019Z" fill="#E0E0E0"/>
<path d="M237.93 14.0019C238.14 14.0019 238.31 13.8306 238.31 13.6193C238.31 13.408 238.14 13.2367 237.93 13.2367C237.719 13.2367 237.549 13.408 237.549 13.6193C237.549 13.8306 237.719 14.0019 237.93 14.0019Z" fill="#E0E0E0"/>
<path d="M254.481 133.171C256.08 132.367 257.944 132.253 259.694 132.52C260.646 132.673 261.635 132.979 262.282 133.668C262.929 134.395 263.043 135.619 262.32 136.269C261.863 136.652 261.254 136.69 260.684 136.69C259.314 136.69 257.792 136.422 256.688 137.264C256.08 137.723 255.661 138.527 254.9 138.756C254.177 138.986 253.34 138.565 252.959 137.876C252.579 137.226 252.541 136.384 252.731 135.619C252.693 135.619 252.883 133.974 254.481 133.171Z" fill="#EBEBEB"/>
<path d="M250.829 126.131C251.78 127.509 253.682 127.05 254.558 126.208C255.433 125.366 255.813 124.142 256.118 122.956C256.879 120.278 257.678 117.447 257.107 114.731C256.955 113.928 256.65 113.086 256.08 112.512C255.509 111.9 254.634 111.556 253.835 111.747C252.883 112.015 252.313 112.933 251.856 113.813C250.6 116.414 249.953 119.322 249.915 122.229C249.915 123.568 250.068 124.984 250.829 126.131Z" fill="#EBEBEB"/>
<path d="M248.165 128.121C249.23 126.858 249.421 125.022 248.964 123.454C248.507 121.885 247.442 120.546 246.224 119.437C244.779 118.174 243.104 117.141 241.316 116.529C240.593 116.261 239.87 116.07 239.109 116.147C238.348 116.223 237.587 116.606 237.245 117.256C236.712 118.251 237.207 119.437 237.777 120.431C238.729 122.153 239.794 123.798 241.012 125.366C241.963 126.629 243.104 127.853 244.55 128.427C246.034 129.001 247.556 128.924 248.355 127.891" fill="#EBEBEB"/>
<path d="M250.791 147.096C250.791 147.096 250.829 146.866 250.867 146.446C250.905 145.987 250.981 145.413 251.019 144.724C251.095 143.997 251.209 143.117 251.399 142.199C251.59 141.243 251.894 140.248 252.313 139.215C252.731 138.182 253.226 137.264 253.835 136.499C254.405 135.734 255.09 135.198 255.737 134.892C256.384 134.586 256.955 134.433 257.335 134.395C257.754 134.357 257.944 134.318 257.944 134.318C257.944 134.318 257.716 134.28 257.297 134.318C256.879 134.357 256.308 134.433 255.623 134.777C254.938 135.083 254.215 135.619 253.606 136.384C252.997 137.149 252.465 138.106 252.046 139.139C251.628 140.172 251.323 141.205 251.133 142.161C250.943 143.117 250.867 143.997 250.791 144.724C250.753 145.451 250.714 146.063 250.714 146.446C250.753 146.866 250.753 147.096 250.791 147.096Z" fill="#E0E0E0"/>
<path d="M250.905 145.757C250.905 145.757 250.905 145.642 250.905 145.451C250.905 145.221 250.905 144.954 250.905 144.609C250.905 143.882 250.905 142.811 250.943 141.511C251.019 138.909 251.247 136.116 251.666 132.176C252.084 128.465 252.617 124.142 253.188 121.349C253.302 120.699 253.454 120.125 253.568 119.628C253.682 119.131 253.758 118.671 253.873 118.327C253.949 117.983 254.025 117.715 254.063 117.524C254.101 117.332 254.139 117.256 254.101 117.218C254.101 117.218 254.063 117.294 253.987 117.486C253.911 117.715 253.835 117.945 253.758 118.289C253.644 118.633 253.53 119.054 253.416 119.59C253.302 120.087 253.15 120.661 252.997 121.311C252.427 123.874 251.818 127.394 251.399 131.373C250.981 135.313 250.79 138.947 250.752 141.549C250.752 142.85 250.752 143.921 250.79 144.648C250.829 144.992 250.829 145.26 250.829 145.489C250.867 145.681 250.867 145.757 250.905 145.757Z" fill="#E0E0E0"/>
<path d="M250.905 138.833C250.905 138.833 250.905 138.527 250.905 137.953C250.867 137.379 250.79 136.575 250.638 135.581C250.486 134.586 250.22 133.4 249.877 132.138C249.725 131.564 249.345 130.148 248.431 128.044C247.252 125.213 245.616 122.88 244.208 121.426C243.865 121.043 243.523 120.776 243.218 120.508C243.066 120.393 242.914 120.24 242.8 120.163C242.648 120.049 242.534 119.972 242.419 119.896C241.963 119.59 241.696 119.398 241.696 119.437C241.658 119.475 242.724 120.125 244.094 121.579C245.463 123.033 247.023 125.328 248.203 128.159C248.85 129.689 249.307 131.067 249.649 132.214C250.029 133.477 250.258 134.663 250.448 135.619C250.638 136.614 250.714 137.417 250.79 137.953C250.867 138.527 250.905 138.833 250.905 138.833Z" fill="#E0E0E0"/>
<path d="M244.246 151.075L244.931 160.6H257.107L257.792 151.075H244.246Z" fill="#E0E0E0"/>
<path d="M259.276 147.326H243.066V151.075H259.276V147.326Z" fill="#E0E0E0"/>
<path d="M243.066 160.256V161.289H243.827H258.971V160.256H243.066Z" fill="#EBEBEB"/>
<path d="M244.55 163.125L243.827 161.289H258.401L257.525 163.125H244.55Z" fill="#E0E0E0"/>
<path d="M257.564 154.173C257.564 154.173 257.564 154.212 257.525 154.25C257.487 154.326 257.411 154.403 257.335 154.479C257.145 154.709 256.917 155.015 256.612 155.398L256.574 155.436L256.536 155.398C256.08 154.786 255.509 153.944 254.786 152.987H254.9C254.367 153.714 253.797 154.556 253.188 155.436L253.15 155.512L253.074 155.436C252.427 154.671 251.742 153.867 251.019 152.987H251.133C251.095 153.026 251.057 153.064 251.019 153.141C250.372 153.944 249.763 154.709 249.192 155.436L249.116 155.512L249.078 155.436C248.469 154.556 247.899 153.753 247.366 152.987H247.48C246.643 153.944 245.92 154.786 245.349 155.398L245.311 155.436L245.273 155.398C245.007 154.939 244.779 154.556 244.626 154.288C244.55 154.173 244.512 154.059 244.474 153.982C244.436 153.906 244.436 153.867 244.436 153.867C244.436 153.867 244.474 153.906 244.512 153.944C244.55 154.02 244.626 154.097 244.702 154.212C244.855 154.479 245.121 154.862 245.387 155.321H245.311C245.844 154.671 246.567 153.867 247.404 152.873L247.442 152.796L247.48 152.873C248.013 153.6 248.584 154.441 249.231 155.321H249.116C249.687 154.594 250.296 153.829 250.943 153.026C250.981 152.987 251.019 152.911 251.057 152.873L251.133 152.796L251.209 152.873C251.932 153.714 252.617 154.556 253.226 155.321H253.112C253.72 154.441 254.329 153.638 254.862 152.873L254.9 152.796L254.938 152.873C255.623 153.867 256.194 154.709 256.65 155.321H256.574C256.879 154.939 257.145 154.633 257.297 154.441C257.373 154.365 257.449 154.288 257.487 154.212C257.564 154.212 257.564 154.173 257.564 154.173Z" fill="#F5F5F5"/>
<path d="M251.133 151.075C254.895 151.075 257.944 151.04 257.944 150.998C257.944 150.956 254.895 150.922 251.133 150.922C247.371 150.922 244.322 150.956 244.322 150.998C244.322 151.04 247.371 151.075 251.133 151.075Z" fill="#F5F5F5"/>
<path d="M251.171 161.48C255.269 161.48 258.591 161.446 258.591 161.404C258.591 161.362 255.269 161.327 251.171 161.327C247.073 161.327 243.751 161.362 243.751 161.404C243.751 161.446 247.073 161.48 251.171 161.48Z" fill="#F5F5F5"/>
<path d="M223.889 161.327H35.0444C32.0003 161.327 29.489 158.841 29.489 155.742V31.3703C29.489 29.7252 30.8208 28.3863 32.4569 28.3863H226.857C228.265 28.3863 229.406 29.534 229.406 30.9494V155.704C229.406 158.841 226.933 161.327 223.889 161.327Z" fill="#455A64"/>
<path d="M232.526 163.125H26.3689C23.4771 163.125 21.156 160.792 21.156 157.884V151.495H237.739V157.884C237.739 160.754 235.418 163.125 232.526 163.125Z" fill="#455A64"/>
<path d="M223.508 33.7039H34.8922V145.948H223.508V33.7039Z" fill="#E0E0E0"/>
<path d="M109.776 151.495L112.439 155.78H150.261L152.773 151.495H109.776Z" fill="#263238"/>
<path d="M218.371 40.2075H40.4856V145.948H218.371V40.2075Z" fill="#263238"/>
<path d="M54.1076 142.811C54.0315 142.811 53.9554 120.278 53.9554 92.5041C53.9554 64.7299 54.0315 42.1968 54.1076 42.1968C54.1837 42.1968 54.2599 64.7299 54.2599 92.5041C54.2979 120.316 54.2218 142.811 54.1076 142.811Z" fill="#E0E0E0"/>
<path d="M47.6392 51.4932C49.2363 51.4932 50.531 51.4246 50.531 51.3401C50.531 51.2556 49.2363 51.1871 47.6392 51.1871C46.042 51.1871 44.7473 51.2556 44.7473 51.3401C44.7473 51.4246 46.042 51.4932 47.6392 51.4932Z" fill="#E0E0E0"/>
<path d="M47.8673 45.793C49.4644 45.793 50.7591 45.7244 50.7591 45.6399C50.7591 45.5554 49.4644 45.4869 47.8673 45.4869C46.2702 45.4869 44.9755 45.5554 44.9755 45.6399C44.9755 45.7244 46.2702 45.793 47.8673 45.793Z" fill="#E0E0E0"/>
<path d="M47.6392 57.6525C49.2363 57.6525 50.531 57.584 50.531 57.4994C50.531 57.4149 49.2363 57.3464 47.6392 57.3464C46.042 57.3464 44.7473 57.4149 44.7473 57.4994C44.7473 57.584 46.042 57.6525 47.6392 57.6525Z" fill="#E0E0E0"/>
<path d="M47.6392 63.8117C49.2363 63.8117 50.531 63.7432 50.531 63.6587C50.531 63.5742 49.2363 63.5057 47.6392 63.5057C46.042 63.5057 44.7473 63.5742 44.7473 63.6587C44.7473 63.7432 46.042 63.8117 47.6392 63.8117Z" fill="#E0E0E0"/>
<path d="M47.6392 69.971C49.2363 69.971 50.531 69.9025 50.531 69.818C50.531 69.7335 49.2363 69.665 47.6392 69.665C46.042 69.665 44.7473 69.7335 44.7473 69.818C44.7473 69.9025 46.042 69.971 47.6392 69.971Z" fill="#E0E0E0"/>
<path d="M47.6392 76.1303C49.2363 76.1303 50.531 76.0618 50.531 75.9773C50.531 75.8928 49.2363 75.8242 47.6392 75.8242C46.042 75.8242 44.7473 75.8928 44.7473 75.9773C44.7473 76.0618 46.042 76.1303 47.6392 76.1303Z" fill="#E0E0E0"/>
<path d="M47.6392 82.2513C49.2363 82.2513 50.531 82.1828 50.531 82.0983C50.531 82.0138 49.2363 81.9453 47.6392 81.9453C46.042 81.9453 44.7473 82.0138 44.7473 82.0983C44.7473 82.1828 46.042 82.2513 47.6392 82.2513Z" fill="#E0E0E0"/>
<path d="M47.6392 88.4106C49.2363 88.4106 50.531 88.3421 50.531 88.2576C50.531 88.1731 49.2363 88.1046 47.6392 88.1046C46.042 88.1046 44.7473 88.1731 44.7473 88.2576C44.7473 88.3421 46.042 88.4106 47.6392 88.4106Z" fill="#E0E0E0"/>
<path d="M47.6392 94.5699C49.2363 94.5699 50.531 94.5014 50.531 94.4169C50.531 94.3324 49.2363 94.2639 47.6392 94.2639C46.042 94.2639 44.7473 94.3324 44.7473 94.4169C44.7473 94.5014 46.042 94.5699 47.6392 94.5699Z" fill="#E0E0E0"/>
<path d="M47.6392 100.729C49.2363 100.729 50.531 100.661 50.531 100.576C50.531 100.492 49.2363 100.423 47.6392 100.423C46.042 100.423 44.7473 100.492 44.7473 100.576C44.7473 100.661 46.042 100.729 47.6392 100.729Z" fill="#E0E0E0"/>
<path d="M47.6392 106.889C49.2363 106.889 50.531 106.82 50.531 106.735C50.531 106.651 49.2363 106.582 47.6392 106.582C46.042 106.582 44.7473 106.651 44.7473 106.735C44.7473 106.82 46.042 106.889 47.6392 106.889Z" fill="#E0E0E0"/>
<path d="M47.6392 113.048C49.2363 113.048 50.531 112.979 50.531 112.895C50.531 112.81 49.2363 112.742 47.6392 112.742C46.042 112.742 44.7473 112.81 44.7473 112.895C44.7473 112.979 46.042 113.048 47.6392 113.048Z" fill="#E0E0E0"/>
<path d="M47.6392 119.169C49.2363 119.169 50.531 119.1 50.531 119.016C50.531 118.931 49.2363 118.863 47.6392 118.863C46.042 118.863 44.7473 118.931 44.7473 119.016C44.7473 119.1 46.042 119.169 47.6392 119.169Z" fill="#E0E0E0"/>
<path d="M47.6392 125.328C49.2363 125.328 50.531 125.26 50.531 125.175C50.531 125.091 49.2363 125.022 47.6392 125.022C46.042 125.022 44.7473 125.091 44.7473 125.175C44.7473 125.26 46.042 125.328 47.6392 125.328Z" fill="#E0E0E0"/>
<path d="M47.6392 131.487C49.2363 131.487 50.531 131.419 50.531 131.334C50.531 131.25 49.2363 131.181 47.6392 131.181C46.042 131.181 44.7473 131.25 44.7473 131.334C44.7473 131.419 46.042 131.487 47.6392 131.487Z" fill="#E0E0E0"/>
<path d="M47.6392 137.647C49.2363 137.647 50.531 137.578 50.531 137.494C50.531 137.409 49.2363 137.341 47.6392 137.341C46.042 137.341 44.7473 137.409 44.7473 137.494C44.7473 137.578 46.042 137.647 47.6392 137.647Z" fill="#E0E0E0"/>
<path d="M66.2077 51.1489C70.3476 51.1489 73.7037 51.0803 73.7037 50.9958C73.7037 50.9113 70.3476 50.8428 66.2077 50.8428C62.0678 50.8428 58.7118 50.9113 58.7118 50.9958C58.7118 51.0803 62.0678 51.1489 66.2077 51.1489Z" fill="#FF725E"/>
<path d="M66.2077 137.647C70.3476 137.647 73.7037 137.578 73.7037 137.494C73.7037 137.409 70.3476 137.341 66.2077 137.341C62.0678 137.341 58.7118 137.409 58.7118 137.494C58.7118 137.578 62.0678 137.647 66.2077 137.647Z" fill="#FF725E"/>
<path d="M94.5933 63.6587C94.5933 63.7352 88.315 63.8117 80.5527 63.8117C72.7904 63.8117 66.5121 63.7352 66.5121 63.6587C66.5121 63.5822 72.7904 63.5057 80.5527 63.5057C88.315 63.5057 94.5933 63.5822 94.5933 63.6587Z" fill="#FF725E"/>
<path d="M127.05 63.6587C127.05 63.7352 120.772 63.8117 113.01 63.8117C105.247 63.8117 98.9691 63.7352 98.9691 63.6587C98.9691 63.5822 105.247 63.5057 113.01 63.5057C120.734 63.5057 127.05 63.5822 127.05 63.6587Z" fill="#E0E0E0"/>
<path d="M114.646 69.818C114.646 69.8945 105.4 69.971 93.9845 69.971C82.5694 69.971 73.3231 69.8945 73.3231 69.818C73.3231 69.7415 82.5694 69.665 93.9845 69.665C105.362 69.6267 114.646 69.7032 114.646 69.818Z" fill="#E0E0E0"/>
<path d="M114.646 75.9773C114.646 76.0538 105.4 76.1303 93.9845 76.1303C82.5694 76.1303 73.3231 76.0538 73.3231 75.9773C73.3231 75.9008 82.5694 75.8243 93.9845 75.8243C105.362 75.786 114.646 75.8625 114.646 75.9773Z" fill="#E0E0E0"/>
<path d="M143.108 94.4169C143.108 94.4934 133.861 94.5699 122.446 94.5699C111.031 94.5699 101.785 94.4934 101.785 94.4169C101.785 94.3404 111.031 94.2639 122.446 94.2639C133.823 94.2639 143.108 94.3404 143.108 94.4169Z" fill="#E0E0E0"/>
<path d="M130.817 82.0983C130.817 82.1748 121.571 82.2513 110.156 82.2513C98.7409 82.2513 89.4946 82.1748 89.4946 82.0983C89.4946 82.0218 98.7409 81.9453 110.156 81.9453C121.571 81.9453 130.817 82.0218 130.817 82.0983Z" fill="#E0E0E0"/>
<path d="M181.348 82.0983C181.348 82.1748 172.102 82.2513 160.687 82.2513C149.272 82.2513 140.026 82.1748 140.026 82.0983C140.026 82.0218 149.272 81.9453 160.687 81.9453C172.102 81.9453 181.348 82.0218 181.348 82.0983Z" fill="#E0E0E0"/>
<path d="M163.769 69.818C163.769 69.8945 154.523 69.971 143.108 69.971C131.693 69.971 122.446 69.8945 122.446 69.818C122.446 69.7415 131.693 69.665 143.108 69.665C154.523 69.6267 163.769 69.7032 163.769 69.818Z" fill="#FAFAFA"/>
<path d="M192.345 94.4169C192.345 94.4934 183.099 94.5699 171.684 94.5699C160.268 94.5699 151.022 94.4934 151.022 94.4169C151.022 94.3404 160.268 94.2639 171.684 94.2639C183.099 94.2639 192.345 94.3404 192.345 94.4169Z" fill="#FAFAFA"/>
<path d="M186.637 75.9773C186.637 76.0538 172.254 76.1303 154.523 76.1303C136.791 76.1303 122.408 76.0538 122.408 75.9773C122.408 75.9008 136.791 75.8243 154.523 75.8243C172.254 75.786 186.637 75.8625 186.637 75.9773Z" fill="#455A64"/>
<path d="M66.2077 57.6525C70.3476 57.6525 73.7037 57.584 73.7037 57.4994C73.7037 57.4149 70.3476 57.3464 66.2077 57.3464C62.0678 57.3464 58.7118 57.4149 58.7118 57.4994C58.7118 57.584 62.0678 57.6525 66.2077 57.6525Z" fill="#FAFAFA"/>
<path d="M66.2077 131.487C70.3476 131.487 73.7037 131.419 73.7037 131.334C73.7037 131.25 70.3476 131.181 66.2077 131.181C62.0678 131.181 58.7118 131.25 58.7118 131.334C58.7118 131.419 62.0678 131.487 66.2077 131.487Z" fill="#FAFAFA"/>
<path d="M73.6275 82.2513C77.7674 82.2513 81.1235 82.1828 81.1235 82.0983C81.1235 82.0138 77.7674 81.9453 73.6275 81.9453C69.4876 81.9453 66.1316 82.0138 66.1316 82.0983C66.1316 82.1828 69.4876 82.2513 73.6275 82.2513Z" fill="#FAFAFA"/>
<path d="M193.829 82.2513C197.969 82.2513 201.325 82.1828 201.325 82.0983C201.325 82.0138 197.969 81.9453 193.829 81.9453C189.689 81.9453 186.333 82.0138 186.333 82.0983C186.333 82.1828 189.689 82.2513 193.829 82.2513Z" fill="#FF725E"/>
<path d="M94.5933 106.697C94.5933 106.774 88.315 106.85 80.5527 106.85C72.7904 106.85 66.5121 106.774 66.5121 106.697C66.5121 106.621 72.7904 106.544 80.5527 106.544C88.315 106.506 94.5933 106.582 94.5933 106.697Z" fill="#FF725E"/>
<path d="M127.05 106.697C127.05 106.774 120.772 106.85 113.01 106.85C105.247 106.85 98.9691 106.774 98.9691 106.697C98.9691 106.621 105.247 106.544 113.01 106.544C120.734 106.506 127.05 106.582 127.05 106.697Z" fill="#E0E0E0"/>
<path d="M114.646 112.857C114.646 112.933 105.4 113.01 93.9845 113.01C82.5694 113.01 73.3231 112.933 73.3231 112.857C73.3231 112.78 82.5694 112.703 93.9845 112.703C105.362 112.665 114.646 112.742 114.646 112.857Z" fill="#E0E0E0"/>
<path d="M114.646 118.978C114.646 119.054 105.4 119.131 93.9845 119.131C82.5694 119.131 73.3231 119.054 73.3231 118.978C73.3231 118.901 82.5694 118.825 93.9845 118.825C105.362 118.825 114.646 118.901 114.646 118.978Z" fill="#E0E0E0"/>
<path d="M130.817 125.137C130.817 125.213 121.571 125.29 110.156 125.29C98.7409 125.29 89.4946 125.213 89.4946 125.137C89.4946 125.06 98.7409 124.984 110.156 124.984C121.571 124.984 130.817 125.06 130.817 125.137Z" fill="#E0E0E0"/>
<path d="M181.348 125.137C181.348 125.213 172.102 125.29 160.687 125.29C149.272 125.29 140.026 125.213 140.026 125.137C140.026 125.06 149.272 124.984 160.687 124.984C172.102 124.984 181.348 125.06 181.348 125.137Z" fill="#E0E0E0"/>
<path d="M163.769 112.857C163.769 112.933 154.523 113.01 143.108 113.01C131.693 113.01 122.446 112.933 122.446 112.857C122.446 112.78 131.693 112.703 143.108 112.703C154.523 112.665 163.769 112.742 163.769 112.857Z" fill="#FAFAFA"/>
<path d="M186.637 118.978C186.637 119.054 172.254 119.131 154.523 119.131C136.791 119.131 122.408 119.054 122.408 118.978C122.408 118.901 136.791 118.825 154.523 118.825C172.254 118.825 186.637 118.901 186.637 118.978Z" fill="#455A64"/>
<path d="M73.6275 125.29C77.7674 125.29 81.1235 125.221 81.1235 125.137C81.1235 125.052 77.7674 124.984 73.6275 124.984C69.4876 124.984 66.1316 125.052 66.1316 125.137C66.1316 125.221 69.4876 125.29 73.6275 125.29Z" fill="#FAFAFA"/>
<path d="M193.829 125.29C197.969 125.29 201.325 125.221 201.325 125.137C201.325 125.052 197.969 124.984 193.829 124.984C189.689 124.984 186.333 125.052 186.333 125.137C186.333 125.221 189.689 125.29 193.829 125.29Z" fill="#FF725E"/>
<path d="M205.32 155.359C205.32 155.398 167.041 155.474 119.783 155.474C72.5241 155.474 34.2454 155.436 34.2454 155.359C34.2454 155.321 72.5241 155.245 119.783 155.245C167.041 155.283 205.32 155.321 205.32 155.359Z" fill="#263238"/>
<path d="M27.853 121.655C22.602 116.261 14.3831 114.004 7.11548 115.955C13.4319 120.202 20.5092 122.459 28.0813 122.535" fill="#FF725E"/>
<path d="M20.8516 96.6357C21.7268 90.5147 19.3296 83.5903 14.7635 79.1143C14.6113 85.1971 17.1607 92.045 20.8516 96.6357Z" fill="#FF725E"/>
<path d="M24.5045 108.227C21.2322 101.953 15.9051 96.827 9.55066 93.843C11.4532 100.92 17.4652 106.697 24.5806 108.304" fill="#FF725E"/>
<path d="M25.2656 110.446C21.5747 110.561 17.8457 110.408 14.269 109.49C10.6922 108.534 7.30575 106.735 4.90857 103.866C12.1001 103.866 19.2536 106.085 25.1895 110.102" fill="#FF725E"/>
<path d="M23.401 103.101C25.2655 96.0619 28.3476 91.1651 33.8649 87.2247C34.2834 90.6677 33.4463 94.2256 31.5438 97.0948C29.6413 99.9641 26.6733 102.145 23.401 103.101Z" fill="#FF725E"/>
<path d="M37.2894 115.267C37.4036 111.173 34.74 107.156 30.973 105.588C31.3155 109.222 34.1312 113.43 37.2894 115.267Z" fill="#FF725E"/>
<path d="M39.0778 109.299C39.4963 103.407 43.6438 97.9747 49.1992 96.0237C47.9435 101.953 44.557 106.85 39.0778 109.299Z" fill="#FF725E"/>
<path d="M36.4143 119.857C37.708 117.983 39.8388 116.835 42.0458 116.261C44.2527 115.687 46.5357 115.649 48.8188 115.573C45.7747 118.978 41.1706 120.89 36.6046 120.699" fill="#FF725E"/>
<path d="M33.7888 134.892C37.8983 133.63 42.4263 133.936 46.3074 135.81C50.1886 137.647 53.3087 140.975 54.9449 144.992C47.2206 143.5 39.6486 140.057 33.7888 134.892Z" fill="#FF725E"/>
<path d="M25.3417 129.689C26.6354 133.477 26.369 138.067 23.5533 141.319C22.3737 137.417 23.0586 133.018 25.3417 129.689Z" fill="#FF725E"/>
<path d="M20.357 127.585C20.0146 132.444 16.8944 137.035 12.5186 139.177C12.2903 139.292 12.062 139.368 11.8337 139.292C11.4913 139.139 11.4532 138.68 11.4913 138.297C12.062 133.4 15.6388 128.695 20.357 127.585Z" fill="#FF725E"/>
<path d="M17.1234 127.088C14.9545 129.422 11.8344 130.837 8.63817 130.837C5.47998 130.837 2.28374 129.498 0.114868 127.164C5.51803 126.552 11.7583 126.17 17.1234 127.088Z" fill="#FF725E"/>
<path d="M16.2856 83.6668C16.2856 83.6668 16.2856 83.7051 16.3237 83.8198C16.3617 83.9346 16.3998 84.0876 16.4759 84.2789C16.6281 84.6997 16.8564 85.2736 17.1228 86.0387C17.4272 86.8038 17.7316 87.722 18.1501 88.8314C18.3404 89.367 18.5687 89.9409 18.7589 90.5912C18.9872 91.2033 19.2155 91.8537 19.4438 92.5423C20.3951 95.2968 21.4605 98.5868 22.602 102.259C23.7435 105.932 24.9231 110.025 26.0646 114.31C27.2061 118.595 28.2335 122.727 29.1086 126.476C29.9458 130.225 30.6687 133.63 31.2014 136.499C31.3536 137.226 31.4678 137.914 31.5819 138.527C31.6961 139.177 31.8102 139.789 31.8863 140.363C32.0766 141.511 32.2668 142.505 32.381 143.309C32.4951 144.112 32.6093 144.724 32.6473 145.145C32.6854 145.336 32.7234 145.527 32.7234 145.642C32.7234 145.757 32.7615 145.795 32.7615 145.795C32.7615 145.795 32.7615 145.757 32.7615 145.642C32.7615 145.527 32.7234 145.374 32.6854 145.145C32.6093 144.724 32.5332 144.074 32.4571 143.27C32.3429 142.467 32.1907 141.472 32.0005 140.325C31.9244 139.751 31.8102 139.139 31.6961 138.488C31.5819 137.838 31.4678 137.149 31.3156 136.461C30.8209 133.591 30.098 130.187 29.2608 126.438C28.3857 122.688 27.3964 118.557 26.2549 114.272C25.0753 109.987 23.8957 105.932 22.7542 102.221C21.6127 98.5486 20.5092 95.2585 19.558 92.504C19.3297 91.8154 19.1014 91.1651 18.8731 90.553C18.6448 89.9409 18.4165 89.367 18.2262 88.8314C17.8457 87.7602 17.4652 86.8038 17.1608 86.0387C16.8564 85.2736 16.6281 84.6997 16.4759 84.2789C16.3998 84.0876 16.3237 83.9346 16.2856 83.8198C16.3237 83.7051 16.2856 83.6668 16.2856 83.6668Z" fill="#263238"/>
<path d="M45.9649 99.1989C45.9649 99.1989 45.9269 99.2372 45.8888 99.2755C45.8127 99.352 45.7366 99.4285 45.6225 99.5433C45.3942 99.7728 45.0517 100.155 44.6712 100.614C43.8722 101.571 42.6926 102.986 41.475 104.861C40.2574 106.735 39.0017 109.146 38.1646 112.015C37.2894 114.846 36.7187 118.098 36.186 121.502C35.0825 128.274 33.7507 134.357 32.7614 138.718C32.2668 140.898 31.8863 142.658 31.5819 143.921C31.4677 144.533 31.3536 144.992 31.2775 145.336C31.2394 145.489 31.2394 145.604 31.2014 145.719C31.2014 145.795 31.1633 145.834 31.2014 145.834C31.2014 145.834 31.2014 145.795 31.2394 145.719C31.2775 145.642 31.2775 145.489 31.3536 145.336C31.4297 144.992 31.5438 144.533 31.696 143.921C32.0004 142.697 32.419 140.937 32.9136 138.756C33.941 134.395 35.3108 128.312 36.4143 121.541C36.947 118.174 37.5177 114.922 38.3929 112.091C39.23 109.26 40.4476 106.85 41.6652 104.976C42.8448 103.063 43.9863 101.647 44.7854 100.691C45.1659 100.194 45.5083 99.8493 45.6986 99.5815C45.8127 99.4667 45.8888 99.352 45.9269 99.3137C45.9649 99.2372 45.9649 99.1989 45.9649 99.1989Z" fill="#263238"/>
<path d="M15.4866 126.858C15.4866 126.858 15.5627 126.897 15.6768 126.897C15.829 126.897 16.0193 126.935 16.2476 126.973C16.3617 126.973 16.5139 127.011 16.6661 127.011C16.8183 127.05 16.9705 127.05 17.1608 127.088C17.5032 127.126 17.8837 127.203 18.3023 127.279C18.5306 127.317 18.7589 127.356 18.9872 127.432C19.2155 127.509 19.4438 127.547 19.7102 127.623C20.2048 127.738 20.7375 127.93 21.2702 128.083C22.3737 128.465 23.5152 128.962 24.6948 129.613C25.8743 130.263 26.9017 131.028 27.7769 131.755C28.1954 132.138 28.614 132.52 28.9564 132.903C29.3369 133.247 29.6033 133.63 29.8696 133.974C30.174 134.318 30.3643 134.663 30.5546 134.93C30.7448 135.198 30.897 135.466 31.0112 135.696C31.1253 135.887 31.2014 136.04 31.3156 136.193C31.3917 136.308 31.4297 136.346 31.4297 136.346C31.4297 136.346 31.3917 136.269 31.3536 136.155C31.2775 136.002 31.2014 135.849 31.0873 135.657C30.9731 135.428 30.8209 135.16 30.6306 134.892C30.4404 134.586 30.2501 134.242 29.9457 133.898C29.6794 133.553 29.375 133.171 29.0325 132.788C28.6901 132.406 28.2715 132.023 27.853 131.64C26.9778 130.875 25.9504 130.11 24.7709 129.46C23.5913 128.809 22.4118 128.312 21.3083 127.93C20.7375 127.776 20.2429 127.585 19.7102 127.47C19.4438 127.394 19.2155 127.356 18.9872 127.279C18.7589 127.241 18.5306 127.203 18.3023 127.164C17.8837 127.088 17.4652 127.05 17.1227 127.011C16.9705 126.973 16.7803 126.973 16.6281 126.973C16.4759 126.973 16.3617 126.973 16.2095 126.935C15.9812 126.935 15.791 126.935 15.6388 126.897C15.5627 126.82 15.4866 126.82 15.4866 126.858Z" fill="#263238"/>
<path d="M13.9645 99.3137C13.9645 99.3137 14.0786 99.4667 14.345 99.6963C14.6494 99.9641 15.0299 100.27 15.4484 100.653C16.3997 101.456 17.6934 102.566 19.1774 103.79C20.6233 105.014 21.9551 106.085 22.9444 106.889C23.401 107.271 23.7815 107.577 24.0859 107.807C24.3522 108.036 24.5045 108.151 24.5425 108.113C24.5425 108.113 24.4283 107.96 24.162 107.73C23.8576 107.462 23.4771 107.156 23.0585 106.774C22.1073 105.97 20.8136 104.861 19.3296 103.637C17.8837 102.412 16.5519 101.341 15.5626 100.538C15.106 100.155 14.7255 99.8493 14.4211 99.6198C14.1167 99.4285 13.9645 99.3137 13.9645 99.3137Z" fill="#263238"/>
<path d="M19.0238 108.304C15.5172 107.263 12.66 106.468 12.6422 106.529C12.6243 106.589 15.4525 107.483 18.9591 108.525C22.4658 109.566 25.3229 110.361 25.3408 110.3C25.3587 110.24 22.5305 109.346 19.0238 108.304Z" fill="#263238"/>
<path d="M23.0967 103.637C23.0967 103.637 23.2108 103.484 23.4011 103.216C23.5913 102.91 23.8577 102.527 24.1621 102.068C24.8089 101.112 25.6841 99.7728 26.7495 98.3955C27.8149 96.9801 28.8423 95.7559 29.6033 94.9142C29.9458 94.4934 30.2502 94.1491 30.5165 93.8813C30.7448 93.6517 30.859 93.4987 30.8209 93.4987C30.8209 93.4987 30.6687 93.6135 30.4404 93.843C30.2121 94.0726 29.8697 94.4169 29.4892 94.8377C28.6901 95.6793 27.6627 96.9035 26.5973 98.319C25.5319 99.7345 24.6567 101.073 24.0479 102.03C23.7435 102.527 23.5152 102.91 23.363 103.216C23.1728 103.484 23.0967 103.637 23.0967 103.637Z" fill="#263238"/>
<path d="M32.9517 107.615C32.9137 107.615 33.18 108.036 33.5986 108.725C34.0171 109.413 34.5879 110.332 35.1967 111.364C35.8055 112.436 36.3002 113.392 36.6426 114.081C36.9851 114.808 37.2134 115.228 37.2514 115.228C37.2895 115.228 37.0992 114.769 36.7948 114.042C36.4904 113.316 35.9958 112.321 35.387 111.288C34.7781 110.217 34.2074 109.299 33.7508 108.648C33.2942 107.998 32.9898 107.615 32.9517 107.615Z" fill="#263238"/>
<path d="M36.3383 120.049C36.3383 120.087 36.909 119.819 37.7842 119.398C38.6593 119.016 39.915 118.48 41.3229 117.983C42.7307 117.485 44.0245 117.141 44.9377 116.873C45.8889 116.644 46.4597 116.491 46.4597 116.453C46.4597 116.453 46.3075 116.453 46.0411 116.491C45.7748 116.529 45.3943 116.606 44.8996 116.72C43.9484 116.912 42.6546 117.256 41.2468 117.753C39.8389 118.251 38.6213 118.786 37.7461 119.245C37.3276 119.475 36.9471 119.666 36.7188 119.781C36.4524 119.972 36.3383 120.049 36.3383 120.049Z" fill="#263238"/>
<path d="M33.6747 134.93C33.6747 134.93 33.7508 134.969 33.8649 135.007C34.0171 135.045 34.1693 135.083 34.3596 135.122C34.8542 135.237 35.4631 135.39 36.2621 135.543C37.8602 135.925 40.0672 136.384 42.4263 137.188C44.7854 137.991 46.8021 139.024 48.1719 139.904C48.8568 140.363 49.3895 140.745 49.77 141.013C50.1505 141.281 50.3408 141.434 50.3408 141.434C50.3408 141.434 50.3027 141.396 50.2266 141.281C50.1505 141.205 49.9983 141.09 49.8461 140.937C49.5037 140.631 48.971 140.21 48.2861 139.751C46.9162 138.833 44.8996 137.761 42.5404 136.958C40.1813 136.155 37.9363 135.696 36.3382 135.39C35.5772 135.237 34.9303 135.122 34.4357 135.007C33.941 134.969 33.6747 134.892 33.6747 134.93Z" fill="#263238"/>
<path d="M24.6245 134.096C24.2657 136.564 24.0256 138.571 24.0884 138.581C24.1512 138.59 24.4929 136.597 24.8518 134.13C25.2107 131.663 25.4507 129.655 25.388 129.646C25.3252 129.636 24.9834 131.629 24.6245 134.096Z" fill="#263238"/>
<path d="M14.0786 134.93C14.1167 134.93 14.4211 134.548 14.9918 133.859C15.5245 133.171 16.2855 132.253 17.1226 131.258C17.9598 130.263 18.7588 129.345 19.3296 128.695C19.9003 128.044 20.2428 127.623 20.2428 127.623C20.2428 127.623 20.1286 127.7 19.9384 127.853C19.7481 128.006 19.5198 128.274 19.2154 128.58C18.6066 129.192 17.8076 130.11 16.9704 131.105C16.1333 132.138 15.3723 133.056 14.8777 133.783C14.6113 134.127 14.4211 134.433 14.2689 134.624C14.1547 134.816 14.0786 134.93 14.0786 134.93Z" fill="#263238"/>
<path d="M40.5238 144.265V149.2H39.3062L34.8923 163.125H25.1894L20.9278 149.353L19.2916 149.2V144.265H40.5238Z" fill="#FF725E"/>
<g opacity="0.3">
<path opacity="0.3" d="M40.5238 144.265V149.2H39.3062L34.8923 163.125H25.1894L20.9278 149.353L19.2916 149.2V144.265H40.5238Z" fill="black"/>
</g>
<path d="M29.6793 149.468C34.975 149.468 39.268 149.417 39.268 149.353C39.268 149.29 34.975 149.238 29.6793 149.238C24.3836 149.238 20.0906 149.29 20.0906 149.353C20.0906 149.417 24.3836 149.468 29.6793 149.468Z" fill="#263238"/>
<path d="M13.0894 117.447C13.0894 117.447 13.3177 117.524 13.6982 117.6C14.1548 117.715 14.7255 117.83 15.4104 118.021C16.8563 118.365 18.835 118.939 20.9658 119.666C23.0966 120.393 24.9991 121.158 26.369 121.732C27.0158 122.038 27.5485 122.268 27.9671 122.459C28.3476 122.612 28.5759 122.727 28.5759 122.688C28.5759 122.688 28.3856 122.574 28.0051 122.382C27.6246 122.191 27.0919 121.923 26.407 121.617C25.0752 121.005 23.1727 120.202 21.0038 119.475C18.835 118.748 16.8563 118.212 15.4104 117.906C14.6875 117.753 14.0787 117.639 13.6982 117.562C13.3177 117.447 13.0894 117.409 13.0894 117.447Z" fill="#263238"/>
<path d="M30.0599 157.196C33.7795 157.196 36.7948 157.144 36.7948 157.081C36.7948 157.018 33.7795 156.966 30.0599 156.966C26.3403 156.966 23.325 157.018 23.325 157.081C23.325 157.144 26.3403 157.196 30.0599 157.196Z" fill="#FAFAFA"/>
<path d="M30.0979 156.048C34.0487 156.048 37.2514 155.997 37.2514 155.933C37.2514 155.87 34.0487 155.818 30.0979 155.818C26.1472 155.818 22.9445 155.87 22.9445 155.933C22.9445 155.997 26.1472 156.048 30.0979 156.048Z" fill="#FAFAFA"/>
<path d="M260.874 163.202C260.874 163.24 202.885 163.317 131.35 163.317C59.7772 163.317 1.78833 163.278 1.78833 163.202C1.78833 163.164 59.7772 163.087 131.35 163.087C202.885 163.125 260.874 163.164 260.874 163.202Z" fill="#263238"/>
<path d="M225.336 17.7134H123.361V81.2191H209.202L214.529 93.4994L219.248 81.2191H225.336V17.7134Z" fill="#FAFAFA"/>
<path d="M225.335 17.7127C225.335 18.3248 225.373 42.1969 225.411 81.2184V81.2949H225.335C223.47 81.2949 221.377 81.2949 219.247 81.2949L219.323 81.2567C217.839 85.1206 216.241 89.2523 214.604 93.537L214.528 93.7283L214.452 93.537C212.778 89.6731 210.99 85.5031 209.125 81.2567L209.201 81.2949C186.143 81.2949 159.622 81.2949 131.578 81.2949C128.839 81.2949 126.099 81.2949 123.36 81.2949H123.283V81.1802C123.283 58.5706 123.283 37.0705 123.283 17.6745V17.598H123.36C183.555 17.6745 224.536 17.7127 225.335 17.7127C224.536 17.7127 183.555 17.751 123.36 17.7892L123.436 17.7127C123.436 37.1087 123.436 58.5706 123.436 81.2184L123.322 81.1036C126.023 81.1036 128.763 81.1036 131.54 81.1036C159.584 81.1036 186.105 81.1036 209.163 81.1036H209.239L209.277 81.1419C211.142 85.4266 212.93 89.5966 214.604 93.4222H214.452C216.088 89.1375 217.687 84.9676 219.171 81.1419L219.209 81.1036H219.247C221.377 81.1036 223.47 81.1036 225.335 81.1036L225.259 81.1802C225.297 42.1968 225.335 18.3248 225.335 17.7127Z" fill="#263238"/>
<path d="M225.297 23.9103C225.297 23.9868 202.505 24.0633 174.423 24.0633C146.304 24.0633 123.55 23.9868 123.55 23.9103C123.55 23.8337 146.342 23.7572 174.423 23.7572C202.505 23.7572 225.297 23.8337 225.297 23.9103Z" fill="#263238"/>
<path d="M127.964 21.9592C128.426 21.9592 128.801 21.5824 128.801 21.1176C128.801 20.6527 128.426 20.2759 127.964 20.2759C127.501 20.2759 127.127 20.6527 127.127 21.1176C127.127 21.5824 127.501 21.9592 127.964 21.9592Z" fill="#263238"/>
<path d="M130.97 21.9592C131.432 21.9592 131.807 21.5824 131.807 21.1176C131.807 20.6527 131.432 20.2759 130.97 20.2759C130.507 20.2759 130.133 20.6527 130.133 21.1176C130.133 21.5824 130.507 21.9592 130.97 21.9592Z" fill="#263238"/>
<path d="M134.014 21.9592C134.476 21.9592 134.851 21.5824 134.851 21.1176C134.851 20.6527 134.476 20.2759 134.014 20.2759C133.551 20.2759 133.177 20.6527 133.177 21.1176C133.177 21.5824 133.551 21.9592 134.014 21.9592Z" fill="#263238"/>
<path d="M134.508 35.2724L132.073 36.2288L134.508 37.1853V37.7591L131.464 36.5349V35.9611L134.508 34.7368V35.2724Z" fill="#263238"/>
<path d="M137.02 32.824H137.628L135.383 39.2894H134.775L137.02 32.824Z" fill="#263238"/>
<path d="M140.863 35.9228V36.4967L137.819 37.7209V37.147L140.254 36.1906L137.819 35.2342V34.6603L140.863 35.9228Z" fill="#263238"/>
<path d="M141.624 38.1799C141.624 37.9121 141.852 37.7209 142.08 37.7209C142.309 37.7209 142.537 37.9121 142.537 38.1799C142.537 38.4477 142.347 38.639 142.08 38.639C141.852 38.639 141.624 38.4477 141.624 38.1799Z" fill="#263238"/>
<path d="M143.184 38.1799C143.184 37.9121 143.412 37.7209 143.64 37.7209C143.869 37.7209 144.097 37.9121 144.097 38.1799C144.097 38.4477 143.907 38.639 143.64 38.639C143.412 38.639 143.184 38.4477 143.184 38.1799Z" fill="#263238"/>
<path d="M144.744 38.1799C144.744 37.9121 144.972 37.7209 145.2 37.7209C145.429 37.7209 145.657 37.9121 145.657 38.1799C145.657 38.4477 145.467 38.639 145.2 38.639C144.934 38.639 144.744 38.4477 144.744 38.1799Z" fill="#263238"/>
<path d="M198.89 44.3392C198.89 44.4157 183.822 44.4922 165.215 44.4922C146.608 44.4922 131.54 44.4157 131.54 44.3392C131.54 44.2627 146.608 44.1862 165.215 44.1862C183.822 44.1862 198.89 44.2627 198.89 44.3392Z" fill="#455A64"/>
<path d="M206.652 44.6835C208.438 44.6835 209.886 44.615 209.886 44.5305C209.886 44.446 208.438 44.3775 206.652 44.3775C204.866 44.3775 203.418 44.446 203.418 44.5305C203.418 44.615 204.866 44.6835 206.652 44.6835Z" fill="#263238"/>
<path d="M215.784 44.6835C217.738 44.6835 219.323 44.615 219.323 44.5305C219.323 44.446 217.738 44.3775 215.784 44.3775C213.83 44.3775 212.245 44.446 212.245 44.5305C212.245 44.615 213.83 44.6835 215.784 44.6835Z" fill="#263238"/>
<path d="M174.423 50.0394C174.423 50.1159 164.835 50.1924 153.039 50.1924C141.205 50.1924 131.655 50.1159 131.655 50.0394C131.655 49.9629 141.243 49.8864 153.039 49.8864C164.835 49.8864 174.423 49.9629 174.423 50.0394Z" fill="#455A64"/>
<path d="M174.119 71.31C174.119 71.3865 164.53 71.4631 152.734 71.4631C140.901 71.4631 131.35 71.3865 131.35 71.31C131.35 71.2335 140.939 71.157 152.734 71.157C164.53 71.157 174.119 71.2335 174.119 71.31Z" fill="#455A64"/>
<path d="M184.164 50.1924C187.379 50.1924 189.986 50.1239 189.986 50.0394C189.986 49.9549 187.379 49.8864 184.164 49.8864C180.949 49.8864 178.342 49.9549 178.342 50.0394C178.342 50.1239 180.949 50.1924 184.164 50.1924Z" fill="#263238"/>
<path d="M184.012 71.4631C187.227 71.4631 189.834 71.3945 189.834 71.31C189.834 71.2255 187.227 71.157 184.012 71.157C180.797 71.157 178.19 71.2255 178.19 71.31C178.19 71.3945 180.797 71.4631 184.012 71.4631Z" fill="#263238"/>
<path d="M132.986 53.0999C133.785 53.0999 134.432 53.0314 134.432 52.9469C134.432 52.8624 133.785 52.7939 132.986 52.7939C132.188 52.7939 131.54 52.8624 131.54 52.9469C131.54 53.0314 132.188 53.0999 132.986 53.0999Z" fill="#FF725E"/>
<path d="M141.243 53.1382C142.967 53.1382 144.363 53.0697 144.363 52.9852C144.363 52.9007 142.967 52.8322 141.243 52.8322C139.52 52.8322 138.123 52.9007 138.123 52.9852C138.123 53.0697 139.52 53.1382 141.243 53.1382Z" fill="#263238"/>
<path d="M148.054 53.1382C149.546 53.1382 150.756 53.0697 150.756 52.9852C150.756 52.9007 149.546 52.8322 148.054 52.8322C146.562 52.8322 145.353 52.9007 145.353 52.9852C145.353 53.0697 146.562 53.1382 148.054 53.1382Z" fill="#263238"/>
<path d="M156.083 53.1382C157.596 53.1382 158.823 53.0697 158.823 52.9852C158.823 52.9007 157.596 52.8322 156.083 52.8322C154.57 52.8322 153.343 52.9007 153.343 52.9852C153.343 53.0697 154.57 53.1382 156.083 53.1382Z" fill="#263238"/>
<path d="M163.389 53.1382C164.755 53.1382 165.862 53.0697 165.862 52.9852C165.862 52.9007 164.755 52.8322 163.389 52.8322C162.023 52.8322 160.915 52.9007 160.915 52.9852C160.915 53.0697 162.023 53.1382 163.389 53.1382Z" fill="#263238"/>
<path d="M189.263 52.9852C189.263 53.0617 184.354 53.1382 178.304 53.1382C172.254 53.1382 167.346 53.0617 167.346 52.9852C167.346 52.9087 172.254 52.8322 178.304 52.8322C184.392 52.8704 189.263 52.9087 189.263 52.9852Z" fill="#263238"/>
<path d="M132.796 56.7725C133.49 56.7725 134.052 56.704 134.052 56.6195C134.052 56.535 133.49 56.4665 132.796 56.4665C132.103 56.4665 131.54 56.535 131.54 56.6195C131.54 56.704 132.103 56.7725 132.796 56.7725Z" fill="#FF725E"/>
<path d="M132.834 60.5982C133.549 60.5982 134.128 60.5297 134.128 60.4452C134.128 60.3607 133.549 60.2921 132.834 60.2921C132.12 60.2921 131.54 60.3607 131.54 60.4452C131.54 60.5297 132.12 60.5982 132.834 60.5982Z" fill="#FF725E"/>
<path d="M132.834 64.8829C133.549 64.8829 134.128 64.8144 134.128 64.7299C134.128 64.6454 133.549 64.5769 132.834 64.5769C132.12 64.5769 131.54 64.6454 131.54 64.7299C131.54 64.8144 132.12 64.8829 132.834 64.8829Z" fill="#FF725E"/>
<path d="M148.054 64.6916C153.392 64.6916 157.719 64.6231 157.719 64.5386C157.719 64.4541 153.392 64.3856 148.054 64.3856C142.717 64.3856 138.39 64.4541 138.39 64.5386C138.39 64.6231 142.717 64.6916 148.054 64.6916Z" fill="#263238"/>
<path d="M146.837 60.5982C151.922 60.5982 156.045 60.5297 156.045 60.4452C156.045 60.3607 151.922 60.2921 146.837 60.2921C141.751 60.2921 137.628 60.3607 137.628 60.4452C137.628 60.5297 141.751 60.5982 146.837 60.5982Z" fill="#263238"/>
<path d="M200.526 56.4282C200.526 56.5047 186.485 56.5813 169.172 56.5813C151.859 56.5813 137.819 56.5047 137.819 56.4282C137.819 56.3517 151.859 56.2752 169.172 56.2752C186.485 56.3135 200.526 56.3517 200.526 56.4282Z" fill="#263238"/>
<path d="M231.614 43.6888V97.6304L223.281 104.631H231.614H232.413H266.887V43.6888H231.614Z" fill="#FAFAFA"/>
<path d="M231.613 43.6888C231.613 43.6888 231.803 43.6888 232.222 43.6888C232.64 43.6888 233.249 43.6888 234.048 43.6888C235.646 43.6888 238.044 43.6888 241.088 43.6888C247.214 43.6888 256.041 43.6506 266.924 43.6506H267V43.7271C267 60.0243 267 81.2949 267.038 104.67V104.784H266.924C264.983 104.784 262.891 104.784 260.798 104.784C247.518 104.784 234.809 104.784 223.28 104.784H223.014L223.204 104.631C226.096 102.221 228.873 99.8875 231.537 97.6304L231.499 97.7069C231.499 81.5627 231.537 68.0582 231.537 58.6088C231.537 53.9033 231.537 50.1542 231.575 47.6292C231.575 46.3668 231.575 45.4104 231.575 44.7218C231.575 44.4157 231.575 44.1479 231.575 43.9949C231.613 43.7653 231.613 43.6888 231.613 43.6888C231.613 43.6888 231.613 43.7653 231.613 43.9566C231.613 44.1097 231.613 44.3774 231.613 44.7218C231.613 45.3721 231.613 46.3668 231.613 47.6292C231.613 50.1924 231.613 53.9033 231.651 58.6471C231.651 68.0964 231.689 81.5627 231.689 97.7069V97.7452L231.651 97.7834C228.988 100.041 226.21 102.374 223.318 104.784L223.242 104.631C234.771 104.631 247.48 104.631 260.76 104.631C262.852 104.631 264.945 104.631 266.886 104.631L266.772 104.746C266.772 81.3331 266.772 60.0626 266.81 43.8036L266.886 43.8801C256.041 43.8801 247.214 43.8419 241.088 43.8419C238.044 43.8419 235.646 43.8419 234.048 43.8419C233.249 43.8419 232.64 43.8419 232.222 43.8419C231.841 43.6888 231.613 43.6888 231.613 43.6888Z" fill="#263238"/>
<path d="M234.086 47.0937C234.486 47.0937 234.809 46.7682 234.809 46.3668C234.809 45.9654 234.486 45.6399 234.086 45.6399C233.687 45.6399 233.363 45.9654 233.363 46.3668C233.363 46.7682 233.687 47.0937 234.086 47.0937Z" fill="#263238"/>
<path d="M236.674 47.0937C237.073 47.0937 237.397 46.7682 237.397 46.3668C237.397 45.9654 237.073 45.6399 236.674 45.6399C236.274 45.6399 235.951 45.9654 235.951 46.3668C235.951 46.7682 236.274 47.0937 236.674 47.0937Z" fill="#263238"/>
<path d="M239.261 47.0937C239.66 47.0937 239.984 46.7682 239.984 46.3668C239.984 45.9654 239.66 45.6399 239.261 45.6399C238.862 45.6399 238.538 45.9654 238.538 46.3668C238.538 46.7682 238.862 47.0937 239.261 47.0937Z" fill="#263238"/>
<path d="M257.183 62.9701C257.183 63.0466 252.693 63.0848 247.176 63.0848C241.658 63.0848 237.168 63.0466 237.168 62.9701C237.168 62.8935 241.658 62.8553 247.176 62.8553C252.731 62.8553 257.183 62.9318 257.183 62.9701Z" fill="#FF725E"/>
<path d="M261.369 67.8669C261.369 67.9434 255.927 67.9817 249.192 67.9817C242.457 67.9817 237.016 67.9434 237.016 67.8669C237.016 67.7904 242.457 67.7521 249.192 67.7521C255.927 67.7521 261.369 67.7904 261.369 67.8669Z" fill="#FF725E"/>
<path d="M262.358 86.077C262.358 86.1535 256.536 86.1917 249.383 86.1917C242.229 86.1917 236.407 86.1535 236.407 86.077C236.407 86.0004 242.229 85.9622 249.383 85.9622C256.536 85.9622 262.358 86.0004 262.358 86.077Z" fill="#FF725E"/>
<path d="M237.853 70.4683C238.526 70.4683 239.071 70.417 239.071 70.3536C239.071 70.2902 238.526 70.2388 237.853 70.2388C237.181 70.2388 236.636 70.2902 236.636 70.3536C236.636 70.417 237.181 70.4683 237.853 70.4683Z" fill="#FF725E"/>
<path d="M244.931 70.5066C246.423 70.5066 247.632 70.4552 247.632 70.3918C247.632 70.3284 246.423 70.277 244.931 70.277C243.439 70.277 242.229 70.3284 242.229 70.3918C242.229 70.4552 243.439 70.5066 244.931 70.5066Z" fill="#FF725E"/>
<path d="M250.752 70.5066C252.013 70.5066 253.035 70.4552 253.035 70.3918C253.035 70.3284 252.013 70.277 250.752 70.277C249.491 70.277 248.469 70.3284 248.469 70.3918C248.469 70.4552 249.491 70.5066 250.752 70.5066Z" fill="#FF725E"/>
<path d="M237.663 73.6436C238.251 73.6436 238.728 73.5922 238.728 73.5288C238.728 73.4654 238.251 73.4141 237.663 73.4141C237.075 73.4141 236.598 73.4654 236.598 73.5288C236.598 73.5922 237.075 73.6436 237.663 73.6436Z" fill="#FF725E"/>
<path d="M237.739 76.8954C238.349 76.8954 238.843 76.8441 238.843 76.7807C238.843 76.7173 238.349 76.6659 237.739 76.6659C237.13 76.6659 236.636 76.7173 236.636 76.7807C236.636 76.8441 237.13 76.8954 237.739 76.8954Z" fill="#FF725E"/>
<path d="M237.739 80.568C238.349 80.568 238.843 80.5167 238.843 80.4533C238.843 80.3899 238.349 80.3385 237.739 80.3385C237.13 80.3385 236.636 80.3899 236.636 80.4533C236.636 80.5167 237.13 80.568 237.739 80.568Z" fill="#FF725E"/>
<path d="M250.752 80.3768C255.313 80.3768 259.009 80.3254 259.009 80.262C259.009 80.1986 255.313 80.1472 250.752 80.1472C246.192 80.1472 242.495 80.1986 242.495 80.262C242.495 80.3254 246.192 80.3768 250.752 80.3768Z" fill="#FF725E"/>
<path d="M249.687 76.8954C254.037 76.8954 257.563 76.8441 257.563 76.7807C257.563 76.7173 254.037 76.6659 249.687 76.6659C245.337 76.6659 241.811 76.7173 241.811 76.7807C241.811 76.8441 245.337 76.8954 249.687 76.8954Z" fill="#FF725E"/>
<path d="M239.337 91.0503C239.947 91.0503 240.441 90.9989 240.441 90.9355C240.441 90.8721 239.947 90.8207 239.337 90.8207C238.728 90.8207 238.234 90.8721 238.234 90.9355C238.234 90.9989 238.728 91.0503 239.337 91.0503Z" fill="#FF725E"/>
<path d="M239.337 94.7229C239.947 94.7229 240.441 94.6715 240.441 94.6081C240.441 94.5447 239.947 94.4933 239.337 94.4933C238.728 94.4933 238.234 94.5447 238.234 94.6081C238.234 94.6715 238.728 94.7229 239.337 94.7229Z" fill="#FF725E"/>
<path d="M252.35 94.5699C256.911 94.5699 260.607 94.5185 260.607 94.4551C260.607 94.3917 256.911 94.3403 252.35 94.3403C247.79 94.3403 244.094 94.3917 244.094 94.4551C244.094 94.5185 247.79 94.5699 252.35 94.5699Z" fill="#FF725E"/>
<path d="M251.285 91.0503C255.635 91.0503 259.162 90.9989 259.162 90.9355C259.162 90.8721 255.635 90.8207 251.285 90.8207C246.935 90.8207 243.409 90.8721 243.409 90.9355C243.409 90.9989 246.935 91.0503 251.285 91.0503Z" fill="#FF725E"/>
<path d="M263.423 73.3376C263.423 73.4141 258.629 73.4523 252.693 73.4523C246.757 73.4523 241.963 73.4141 241.963 73.3376C241.963 73.261 246.757 73.2228 252.693 73.2228C258.629 73.2228 263.423 73.2993 263.423 73.3376Z" fill="#FF725E"/>
<path d="M266.581 49.1595C266.581 49.236 258.819 49.2743 249.268 49.2743C239.718 49.2743 231.955 49.236 231.955 49.1595C231.955 49.083 239.718 49.0447 249.268 49.0447C258.819 49.0447 266.581 49.1212 266.581 49.1595Z" fill="#263238"/>
<path d="M240.859 60.1391C242.877 60.1391 244.512 60.0877 244.512 60.0243C244.512 59.961 242.877 59.9096 240.859 59.9096C238.842 59.9096 237.206 59.961 237.206 60.0243C237.206 60.0877 238.842 60.1391 240.859 60.1391Z" fill="#FF725E"/>
<path d="M238.652 53.4825C239.598 53.4825 240.365 53.4311 240.365 53.3677C240.365 53.3043 239.598 53.2529 238.652 53.2529C237.707 53.2529 236.94 53.3043 236.94 53.3677C236.94 53.4311 237.707 53.4825 238.652 53.4825Z" fill="#FF725E"/>
<path d="M209.81 131.946L217.458 124.333L203.798 100.806C202.39 99.1607 200.564 97.8982 198.547 97.1331L193.753 95.2968L181.805 93.0779L173.32 96.4445C171.189 97.2862 169.857 99.505 170.124 101.8L172.331 120.623L173.624 145.107L204.483 139.713L201.363 130.646L201.477 116.529L209.81 131.946Z" fill="#FF725E"/>
<path d="M201.705 130.072C201.782 130.072 201.782 125.175 201.744 119.131C201.705 113.086 201.591 108.189 201.515 108.189C201.439 108.189 201.439 113.086 201.477 119.131C201.515 125.175 201.629 130.072 201.705 130.072Z" fill="#263238"/>
<path d="M200.564 133.668L181.919 126.131C180.397 125.519 179.37 124.104 179.256 122.497L177.886 104.517C177.886 104.517 178.038 96.8653 173.282 96.4828L170.58 97.5539C167.08 99.4285 166.204 104.517 166.699 108.495C167.384 114.119 167.65 122.038 168.411 126.897C169.02 130.875 171.417 134.012 175.184 135.39L198.167 140.401L200.564 133.668Z" fill="#FF725E"/>
<path d="M178.152 107.233C178.152 107.233 178.19 107.386 178.228 107.654C178.266 107.96 178.304 108.342 178.342 108.84C178.457 109.911 178.571 111.365 178.723 113.201C178.875 115.037 179.065 117.256 179.294 119.666C179.332 120.278 179.408 120.89 179.446 121.541C179.484 122.191 179.522 122.841 179.674 123.454C179.826 124.104 180.131 124.678 180.587 125.137C181.082 125.596 181.691 125.94 182.3 126.208C187.437 128.427 192.193 130.301 195.617 131.602C197.33 132.253 198.699 132.75 199.689 133.132C200.145 133.324 200.526 133.438 200.792 133.553C201.059 133.668 201.173 133.706 201.173 133.706C201.173 133.706 201.021 133.668 200.792 133.592C200.526 133.515 200.145 133.362 199.651 133.209C198.661 132.865 197.254 132.406 195.541 131.755C192.079 130.493 187.322 128.695 182.186 126.438C181.539 126.132 180.93 125.787 180.397 125.328C179.864 124.831 179.56 124.18 179.408 123.53C179.256 122.88 179.218 122.191 179.18 121.579C179.142 120.929 179.065 120.317 179.027 119.704C178.837 117.256 178.685 115.075 178.533 113.239C178.419 111.403 178.304 109.911 178.228 108.878C178.19 108.381 178.19 107.998 178.152 107.692C178.152 107.348 178.152 107.233 178.152 107.233Z" fill="#263238"/>
<path d="M167.46 116.988C167.46 116.988 167.498 117.065 167.498 117.218C167.498 117.409 167.536 117.639 167.574 117.906C167.612 118.557 167.688 119.398 167.803 120.47C167.917 121.541 168.031 122.841 168.221 124.257C168.411 125.672 168.64 127.241 169.058 128.809C169.248 129.613 169.553 130.34 169.971 130.99C170.39 131.64 170.885 132.214 171.379 132.712C172.369 133.745 173.434 134.471 174.347 134.969C176.25 135.963 177.658 135.963 177.62 136.04C177.62 136.04 177.543 136.04 177.391 136.04C177.239 136.04 177.011 136.002 176.706 135.963C176.098 135.849 175.26 135.619 174.271 135.122C173.282 134.624 172.216 133.898 171.189 132.865C170.694 132.367 170.2 131.755 169.743 131.105C169.286 130.454 168.982 129.651 168.792 128.848C168.373 127.241 168.145 125.672 167.955 124.257C167.764 122.841 167.65 121.541 167.574 120.47C167.498 119.398 167.46 118.518 167.422 117.906C167.422 117.639 167.422 117.409 167.422 117.218C167.46 117.065 167.46 116.988 167.46 116.988Z" fill="#263238"/>
<path d="M175.451 129.575C175.413 129.575 175.489 129.154 175.793 128.58C176.059 128.006 176.592 127.241 177.353 126.552C178.114 125.902 178.951 125.481 179.56 125.328C180.169 125.137 180.587 125.137 180.587 125.137C180.587 125.175 180.207 125.252 179.598 125.481C178.989 125.711 178.228 126.132 177.467 126.744C176.744 127.394 176.212 128.083 175.907 128.656C175.641 129.23 175.489 129.575 175.451 129.575Z" fill="#263238"/>
<g opacity="0.3">
<g opacity="0.3">
<g opacity="0.3">
<path opacity="0.3" d="M195.199 131.526C193.22 130.378 191.242 129.536 189.149 128.58C187.056 127.623 185.039 126.399 183.669 124.563C181.082 121.082 181.386 116.032 178.761 112.589C178.951 114.922 179.103 117.218 179.294 119.551C179.446 121.655 179.141 123.76 180.473 125.213C181.615 126.438 183.86 127.356 185.42 127.891C188.616 128.886 192.041 130.454 195.199 131.526Z" fill="black"/>
</g>
</g>
</g>
<path opacity="0.3" d="M201.515 109.528L203.151 119.551L201.629 116.72L201.515 109.528Z" fill="black"/>
<path d="M177.582 103.369C177.582 103.369 177.43 103.407 177.163 103.407C176.859 103.407 176.44 103.407 175.984 103.445C174.995 103.484 173.625 103.522 172.103 103.637C170.581 103.751 169.211 103.905 168.26 104.019C167.803 104.058 167.423 104.134 167.08 104.172C166.814 104.211 166.661 104.211 166.661 104.211C166.661 104.211 166.814 104.172 167.08 104.096C167.346 104.058 167.765 103.981 168.26 103.905C169.249 103.751 170.619 103.598 172.141 103.484C173.663 103.369 175.033 103.331 176.022 103.369C176.517 103.369 176.935 103.369 177.201 103.407C177.43 103.331 177.582 103.369 177.582 103.369Z" fill="#455A64"/>
<path d="M172.683 113.508C175.698 113.259 178.139 113.006 178.134 112.943C178.129 112.88 175.68 113.03 172.664 113.28C169.648 113.529 167.207 113.782 167.212 113.845C167.217 113.908 169.667 113.758 172.683 113.508Z" fill="#455A64"/>
<path d="M179.027 122.994C179.027 122.994 178.913 123.071 178.647 123.224C178.381 123.339 178 123.53 177.543 123.721C176.592 124.142 175.26 124.601 173.738 124.946C172.216 125.29 170.809 125.443 169.781 125.481C169.287 125.519 168.868 125.519 168.564 125.481C168.259 125.481 168.107 125.443 168.107 125.443C168.107 125.443 168.259 125.405 168.564 125.405C168.83 125.405 169.248 125.366 169.781 125.328C170.809 125.252 172.178 125.099 173.7 124.754C175.222 124.41 176.554 123.951 177.505 123.607C178 123.415 178.381 123.262 178.609 123.147C178.875 123.033 179.027 122.994 179.027 122.994Z" fill="#455A64"/>
<path d="M185.648 128.159C185.686 128.197 184.659 128.656 183.784 129.651C182.908 130.646 182.566 131.679 182.49 131.64C182.452 131.64 182.528 131.373 182.68 130.952C182.87 130.531 183.175 129.995 183.631 129.498C184.088 129.001 184.583 128.618 184.963 128.427C185.382 128.236 185.648 128.159 185.648 128.159Z" fill="#455A64"/>
<path d="M192.421 134.816C192.383 134.816 192.573 133.859 193.144 132.826C193.715 131.793 194.362 131.105 194.4 131.143C194.438 131.181 193.867 131.908 193.296 132.941C192.764 133.936 192.459 134.816 192.421 134.816Z" fill="#455A64"/>
<path d="M179.115 98.3174C180.583 98.0521 181.764 97.7866 181.753 97.7242C181.742 97.6618 180.542 97.8263 179.074 98.0916C177.605 98.3569 176.424 98.6225 176.435 98.6848C176.447 98.7472 177.646 98.5827 179.115 98.3174Z" fill="#455A64"/>
<path d="M195.974 98.248C197.977 98.4866 199.607 98.6291 199.615 98.5661C199.622 98.5032 198.004 98.2587 196.001 98.0201C193.998 97.7814 192.367 97.639 192.36 97.7019C192.353 97.7649 193.971 98.0093 195.974 98.248Z" fill="#455A64"/>
<path d="M201.173 106.889C201.173 106.889 201.097 106.889 200.944 106.889C200.754 106.889 200.564 106.889 200.259 106.889C199.651 106.889 198.814 106.889 197.786 106.889C195.693 106.889 192.84 106.889 189.681 107.003C186.523 107.08 183.631 107.233 181.577 107.309C180.549 107.348 179.712 107.424 179.103 107.424C178.837 107.424 178.609 107.462 178.418 107.462C178.266 107.462 178.19 107.462 178.19 107.462C178.19 107.462 178.266 107.424 178.418 107.424C178.609 107.424 178.799 107.386 179.103 107.348C179.674 107.309 180.511 107.233 181.577 107.156C183.669 107.003 186.523 106.85 189.681 106.774C192.84 106.697 195.731 106.697 197.786 106.735C198.814 106.735 199.651 106.774 200.259 106.812C200.526 106.812 200.754 106.85 200.944 106.85C201.097 106.889 201.173 106.889 201.173 106.889Z" fill="#455A64"/>
<path d="M201.363 117.486C201.363 117.524 196.455 117.906 190.443 118.327C184.393 118.71 179.522 119.016 179.484 118.939C179.484 118.901 184.354 118.518 190.404 118.098C196.455 117.715 201.363 117.409 201.363 117.486Z" fill="#455A64"/>
<path d="M200.868 126.782C200.868 126.782 200.716 126.858 200.45 126.973C200.183 127.088 199.803 127.203 199.308 127.356C198.319 127.662 196.949 128.083 195.427 128.465C193.905 128.848 192.497 129.115 191.47 129.269C190.975 129.345 190.557 129.422 190.252 129.422C189.948 129.46 189.796 129.46 189.796 129.46C189.796 129.46 189.948 129.422 190.214 129.345C190.518 129.269 190.937 129.192 191.394 129.115C192.383 128.924 193.791 128.618 195.313 128.274C196.835 127.891 198.205 127.509 199.194 127.241C199.651 127.088 200.031 127.011 200.374 126.897C200.716 126.82 200.868 126.782 200.868 126.782Z" fill="#455A64"/>
<path d="M205.126 110.96C207.101 110.45 208.688 109.987 208.672 109.925C208.657 109.864 207.043 110.228 205.069 110.738C203.094 111.248 201.507 111.711 201.523 111.772C201.538 111.834 203.152 111.47 205.126 110.96Z" fill="#455A64"/>
<path d="M203.367 103.183C204.256 103.023 204.968 102.843 204.957 102.781C204.946 102.718 204.216 102.797 203.326 102.957C202.437 103.117 201.725 103.297 201.736 103.36C201.747 103.422 202.477 103.343 203.367 103.183Z" fill="#455A64"/>
<path d="M178.228 104.976C178.19 104.976 178.114 104.325 177.772 103.369C177.429 102.413 176.744 101.15 175.603 100.079C174.461 99.0459 173.13 98.4721 172.14 98.2426C171.151 98.013 170.504 98.013 170.504 97.9748C170.504 97.9748 170.656 97.9365 170.961 97.9748C171.265 97.9748 171.684 98.013 172.178 98.1278C173.168 98.3191 174.575 98.8929 175.755 99.9641C176.935 101.035 177.619 102.336 177.924 103.331C178.076 103.828 178.152 104.249 178.19 104.517C178.228 104.823 178.228 104.976 178.228 104.976Z" fill="#263238"/>
<path d="M201.091 103.36C200.782 101.42 200.481 99.855 200.418 99.8651C200.356 99.8752 200.555 101.456 200.864 103.397C201.173 105.337 201.474 106.902 201.537 106.892C201.599 106.882 201.4 105.301 201.091 103.36Z" fill="#263238"/>
<path d="M221.225 156.278C221.225 156.278 235.57 160.256 236.141 160.486C237.016 160.792 236.864 163.967 235.532 163.929C234.885 163.891 224.536 164.311 223.204 164.235C221.91 164.158 217.953 162.59 217.953 162.59L221.225 156.278Z" fill="#FF725E"/>
<path d="M227.199 161.748C227.275 161.748 227.352 160.983 227.846 160.218C228.303 159.415 228.912 158.956 228.874 158.879C228.835 158.841 228.151 159.223 227.656 160.103C227.123 160.945 227.161 161.748 227.199 161.748Z" fill="#263238"/>
<path d="M225.715 161.06C225.791 161.06 225.944 160.409 226.324 159.644C226.705 158.879 227.161 158.382 227.123 158.305C227.085 158.267 226.514 158.726 226.134 159.529C225.677 160.333 225.639 161.06 225.715 161.06Z" fill="#263238"/>
<path d="M224.307 160.715C224.384 160.715 224.307 159.988 224.65 159.185C224.954 158.382 225.487 157.884 225.449 157.846C225.411 157.808 224.764 158.229 224.46 159.109C224.079 159.95 224.231 160.715 224.307 160.715Z" fill="#263238"/>
<path d="M224.574 158.841C224.612 158.841 224.726 158.458 224.726 157.77C224.726 157.425 224.688 157.043 224.574 156.584C224.536 156.354 224.46 156.125 224.346 155.933C224.307 155.818 224.231 155.704 224.117 155.589C223.965 155.474 223.737 155.474 223.623 155.627C223.508 155.742 223.432 155.895 223.432 156.048C223.432 156.163 223.394 156.316 223.432 156.431C223.432 156.66 223.47 156.928 223.508 157.119C223.623 157.578 223.775 157.923 223.965 158.229C224.307 158.802 224.574 159.109 224.612 159.109C224.65 159.07 224.422 158.764 224.117 158.152C223.965 157.846 223.813 157.502 223.737 157.081C223.699 156.89 223.661 156.66 223.661 156.431C223.661 156.201 223.661 155.933 223.775 155.818C223.851 155.78 223.889 155.742 223.965 155.818C224.041 155.857 224.079 155.971 224.117 156.086C224.193 156.316 224.269 156.507 224.346 156.737C224.46 157.157 224.498 157.54 224.536 157.846C224.574 158.42 224.536 158.841 224.574 158.841Z" fill="#263238"/>
<path d="M224.536 158.688C224.536 158.649 224.193 158.535 223.623 158.535C223.318 158.535 222.976 158.573 222.595 158.649C222.405 158.688 222.215 158.764 222.024 158.879C221.834 158.994 221.606 159.262 221.682 159.529C221.758 159.797 221.986 159.988 222.215 160.027C222.443 160.103 222.671 160.065 222.862 160.027C223.242 159.95 223.546 159.759 223.775 159.568C224.231 159.223 224.46 158.917 224.46 158.917C224.422 158.879 224.155 159.109 223.699 159.453C223.47 159.606 223.166 159.759 222.824 159.835C222.633 159.874 222.443 159.874 222.291 159.835C222.139 159.797 221.986 159.644 221.948 159.491C221.91 159.338 221.986 159.185 222.177 159.07C222.329 158.955 222.519 158.917 222.709 158.879C223.052 158.764 223.394 158.726 223.661 158.726C224.193 158.688 224.536 158.726 224.536 158.688Z" fill="#263238"/>
<path d="M229.406 161.901C229.482 161.901 229.406 161.289 229.673 160.601C229.939 159.912 230.434 159.529 230.358 159.491C230.319 159.415 229.749 159.759 229.444 160.524C229.14 161.289 229.368 161.94 229.406 161.901Z" fill="#263238"/>
<path d="M219.399 162.59C219.399 162.59 219.589 162.705 219.97 162.858C220.35 163.011 220.883 163.202 221.568 163.355C222.938 163.699 224.878 163.891 227.047 163.891C229.178 163.852 231.118 163.776 232.526 163.699C233.173 163.661 233.744 163.623 234.201 163.623C234.581 163.585 234.809 163.585 234.809 163.546C234.809 163.546 234.581 163.508 234.201 163.508C233.744 163.508 233.211 163.508 232.526 163.508C231.08 163.546 229.178 163.585 227.047 163.623C224.916 163.661 222.976 163.47 221.606 163.164C220.236 162.896 219.437 162.552 219.399 162.59Z" fill="#263238"/>
<path d="M218.98 162.896C219.018 162.934 219.399 162.705 220.046 162.399C220.693 162.131 221.682 161.786 222.747 161.939C223.813 162.092 224.612 162.819 225.106 163.355C225.601 163.891 225.906 164.235 225.944 164.197C225.982 164.197 225.715 163.814 225.259 163.24C225.03 162.972 224.726 162.628 224.307 162.36C223.927 162.054 223.394 161.825 222.823 161.71C221.682 161.519 220.655 161.901 220.008 162.246C219.323 162.59 218.98 162.896 218.98 162.896Z" fill="#263238"/>
<path d="M204.255 152.911C204.255 152.911 190.671 161.825 190.214 162.207C189.491 162.781 190.328 165.421 191.584 164.962C192.193 164.732 203.57 161.557 204.788 161.098C206.005 160.601 209.316 157.923 209.316 157.923L204.255 152.911Z" fill="#FF725E"/>
<path d="M200.221 159.988C200.298 159.988 200.031 159.185 199.308 158.535C198.585 157.884 197.786 157.693 197.786 157.77C197.748 157.846 198.471 158.114 199.156 158.726C199.841 159.3 200.183 160.027 200.221 159.988Z" fill="#263238"/>
<path d="M201.439 158.879C201.515 158.841 201.249 158.152 200.602 157.54C199.993 156.89 199.308 156.622 199.27 156.698C199.232 156.775 199.841 157.119 200.412 157.731C201.059 158.305 201.401 158.917 201.439 158.879Z" fill="#263238"/>
<path d="M202.657 158.076C202.733 158.076 202.657 157.31 202.048 156.584C201.477 155.857 200.716 155.627 200.716 155.704C200.678 155.78 201.325 156.086 201.858 156.737C202.428 157.387 202.619 158.114 202.657 158.076Z" fill="#263238"/>
<path d="M201.858 156.392C201.896 156.392 201.706 156.01 201.553 155.359C201.477 155.053 201.401 154.671 201.401 154.212C201.401 153.982 201.401 153.753 201.401 153.523C201.401 153.408 201.439 153.294 201.477 153.217C201.515 153.141 201.591 153.141 201.667 153.179C201.82 153.255 201.896 153.523 201.972 153.714C202.048 153.944 202.086 154.135 202.086 154.365C202.124 154.786 202.086 155.168 202.048 155.512C201.934 156.163 201.82 156.545 201.858 156.584C201.896 156.584 202.086 156.201 202.2 155.551C202.276 155.206 202.314 154.824 202.276 154.365C202.276 154.135 202.2 153.906 202.162 153.676C202.124 153.561 202.086 153.447 202.048 153.332C202.01 153.217 201.896 153.064 201.744 152.988C201.591 152.911 201.363 152.949 201.249 153.102C201.173 153.255 201.135 153.37 201.135 153.523C201.135 153.753 201.135 154.02 201.135 154.212C201.173 154.671 201.249 155.053 201.363 155.359C201.591 156.048 201.858 156.392 201.858 156.392Z" fill="#263238"/>
<path d="M201.858 156.239C201.858 156.278 202.2 156.125 202.733 155.971C202.999 155.895 203.342 155.857 203.722 155.857C203.912 155.857 204.103 155.857 204.293 155.895C204.483 155.933 204.597 156.048 204.635 156.201C204.635 156.354 204.559 156.545 204.407 156.622C204.255 156.737 204.065 156.775 203.912 156.775C203.57 156.813 203.227 156.737 202.961 156.66C202.428 156.507 202.086 156.354 202.086 156.392C202.086 156.431 202.39 156.622 202.923 156.813C203.189 156.928 203.532 157.004 203.95 156.966C204.141 156.966 204.369 156.89 204.559 156.775C204.749 156.66 204.902 156.392 204.902 156.125C204.902 155.818 204.597 155.627 204.407 155.589C204.179 155.551 203.988 155.551 203.798 155.551C203.418 155.589 203.075 155.665 202.809 155.742C202.124 156.01 201.82 156.201 201.858 156.239Z" fill="#263238"/>
<path d="M193.296 164.464C193.296 164.503 193.525 164.311 193.639 163.929C193.753 163.546 193.677 162.972 193.372 162.437C193.22 162.169 193.068 161.94 192.916 161.748C192.764 161.557 192.611 161.366 192.459 161.251C192.307 161.136 192.155 161.06 192.041 161.06C191.926 161.06 191.85 161.098 191.888 161.098C191.888 161.136 192.117 161.136 192.383 161.366C192.497 161.48 192.649 161.672 192.764 161.863C192.916 162.054 193.068 162.284 193.182 162.513C193.449 163.011 193.525 163.508 193.487 163.852C193.41 164.235 193.296 164.426 193.296 164.464Z" fill="#263238"/>
<path d="M198.167 160.792C198.243 160.792 198.205 160.103 197.672 159.491C197.139 158.879 196.493 158.726 196.493 158.802C196.454 158.879 197.025 159.109 197.52 159.644C197.976 160.218 198.129 160.792 198.167 160.792Z" fill="#263238"/>
<path d="M207.908 158.382C207.908 158.382 207.679 158.535 207.299 158.802C206.918 159.07 206.348 159.453 205.625 159.835C204.902 160.218 203.988 160.639 202.961 161.021C201.934 161.404 200.792 161.786 199.575 162.131C197.139 162.819 194.932 163.47 193.334 163.967C192.573 164.197 191.927 164.388 191.432 164.541C190.975 164.694 190.747 164.77 190.747 164.77C190.747 164.77 191.013 164.732 191.47 164.617C191.965 164.503 192.611 164.311 193.372 164.12C194.971 163.661 197.177 163.049 199.651 162.36C200.868 162.016 202.048 161.633 203.075 161.251C204.103 160.868 205.016 160.409 205.739 159.988C206.462 159.568 207.033 159.185 207.375 158.879C207.755 158.573 207.908 158.382 207.908 158.382Z" fill="#263238"/>
<path d="M208.402 158.573C208.402 158.535 207.984 158.382 207.261 158.267C206.538 158.152 205.472 158.076 204.407 158.611C203.874 158.879 203.494 159.262 203.189 159.682C202.885 160.065 202.695 160.486 202.542 160.83C202.238 161.519 202.124 161.94 202.162 161.978C202.2 161.978 202.39 161.557 202.695 160.907C202.999 160.256 203.532 159.338 204.521 158.841C205.51 158.343 206.538 158.382 207.261 158.458C207.984 158.496 208.402 158.611 208.402 158.573Z" fill="#263238"/>
<path d="M232.45 130.569C232.45 130.569 236.522 132.023 236.522 136.614C236.56 145.413 218.866 155.092 218.866 155.092L195.313 139.406L193.829 138.794C193.867 138.833 225.639 126.82 232.45 130.569Z" fill="#263238"/>
<path d="M207.261 147.326C207.261 147.326 207.489 147.173 207.87 146.905C208.25 146.637 208.821 146.216 209.468 145.68C210.799 144.648 212.664 143.156 214.643 141.434C216.621 139.713 218.371 138.144 219.589 136.958C220.198 136.384 220.693 135.887 221.035 135.543C221.377 135.198 221.568 135.007 221.53 135.007C221.53 135.007 221.301 135.16 220.959 135.466C220.578 135.81 220.084 136.269 219.475 136.843C218.219 137.991 216.469 139.559 214.49 141.281C212.512 142.964 210.723 144.495 209.392 145.566C208.745 146.101 208.212 146.522 207.831 146.866C207.451 147.134 207.261 147.326 207.261 147.326Z" fill="#455A64"/>
<path d="M225.829 133.859C225.829 133.783 224.802 133.706 223.546 134.051C222.329 134.395 221.492 135.083 221.53 135.122C221.568 135.198 222.443 134.624 223.622 134.28C224.802 133.936 225.829 133.936 225.829 133.859Z" fill="#455A64"/>
<path d="M223.775 132.482C223.737 132.444 223.014 132.75 222.367 133.553C221.758 134.318 221.568 135.122 221.644 135.16C221.72 135.198 221.986 134.433 222.557 133.706C223.166 132.941 223.813 132.559 223.775 132.482Z" fill="#455A64"/>
<path d="M233.744 160.295C233.744 160.256 233.478 160.218 233.135 160.486C232.831 160.754 232.526 161.251 232.45 161.863C232.374 162.475 232.488 163.011 232.679 163.393C232.831 163.738 233.021 163.929 233.059 163.891C233.097 163.852 232.945 163.661 232.831 163.317C232.717 162.972 232.602 162.437 232.679 161.901C232.755 161.366 232.983 160.868 233.249 160.639C233.516 160.371 233.782 160.333 233.744 160.295Z" fill="#263238"/>
<path d="M230.776 118.098L224.08 136.231C223.699 137.264 222.71 137.953 221.606 137.953L184.735 137.455V134.624L198.434 135.122L204.255 117.026C204.445 116.414 205.016 115.994 205.663 115.994L229.445 116.07C230.472 116.07 231.157 117.141 230.776 118.098Z" fill="#E0E0E0"/>
<path d="M230.776 118.099V118.06C230.776 118.022 230.814 117.984 230.814 117.907C230.852 117.754 230.89 117.525 230.814 117.219C230.738 116.913 230.548 116.568 230.167 116.339C229.977 116.224 229.749 116.148 229.482 116.109C229.216 116.109 228.95 116.109 228.645 116.109C226.324 116.109 222.938 116.109 218.714 116.109C216.583 116.109 214.262 116.109 211.751 116.109C210.495 116.109 209.201 116.109 207.832 116.109C207.147 116.109 206.462 116.109 205.777 116.109C205.434 116.109 205.092 116.148 204.787 116.339C204.483 116.53 204.293 116.798 204.179 117.142C202.428 122.613 200.488 128.696 198.395 135.238V135.276H198.357C193.981 135.123 189.415 134.932 184.659 134.779L184.735 134.702C184.735 134.855 184.735 135.046 184.735 135.199C184.735 136.003 184.735 136.768 184.735 137.495L184.659 137.418C192.916 137.533 200.754 137.648 207.832 137.724C211.37 137.763 214.757 137.801 217.915 137.877C218.714 137.877 219.475 137.916 220.236 137.916C220.616 137.916 220.997 137.916 221.377 137.916C221.758 137.916 222.1 137.877 222.443 137.763C223.128 137.495 223.661 136.959 223.927 136.347C224.155 135.697 224.422 135.046 224.65 134.396C226.514 129.346 228.036 125.291 229.064 122.46C229.596 121.044 229.977 119.973 230.281 119.246C230.624 118.481 230.776 118.099 230.776 118.099C230.776 118.099 230.624 118.481 230.357 119.246C230.091 119.973 229.672 121.083 229.178 122.498C228.15 125.329 226.628 129.384 224.802 134.434C224.574 135.046 224.345 135.697 224.079 136.385C223.813 137.036 223.242 137.61 222.557 137.877C222.215 137.992 221.834 138.069 221.454 138.03C221.073 138.03 220.693 138.03 220.312 138.03C219.551 138.03 218.79 137.992 217.991 137.992C214.833 137.954 211.446 137.916 207.908 137.877C200.792 137.801 192.954 137.686 184.735 137.571H184.659V137.495C184.659 136.768 184.659 135.964 184.659 135.199C184.659 135.008 184.659 134.855 184.659 134.702V134.626H184.735C189.453 134.817 194.057 134.97 198.433 135.123L198.357 135.161C200.45 128.658 202.39 122.575 204.179 117.104C204.293 116.76 204.521 116.454 204.826 116.262C205.13 116.071 205.51 115.995 205.853 116.033C206.538 116.033 207.223 116.033 207.908 116.033C209.239 116.033 210.571 116.033 211.827 116.033C214.338 116.033 216.659 116.033 218.79 116.071C223.014 116.109 226.4 116.109 228.721 116.109C229.026 116.109 229.292 116.109 229.558 116.109C229.825 116.109 230.053 116.224 230.243 116.339C230.624 116.568 230.814 116.951 230.89 117.219C230.966 117.525 230.928 117.754 230.89 117.907C230.814 118.022 230.776 118.099 230.776 118.099Z" fill="#263238"/>
<path d="M214.414 124.946C214.909 124.601 215.784 124.754 216.203 125.137C216.621 125.519 216.773 126.208 216.545 126.744C216.317 127.279 215.784 127.662 215.213 127.7C214.605 127.738 213.958 127.356 213.806 126.744C213.615 126.17 213.805 125.252 214.414 124.946Z" fill="white"/>
<path d="M222.863 156.086C222.863 156.086 189.644 134.701 188.16 133.859C186.905 133.132 183.556 131.067 180.284 131.985C176.974 132.903 174.044 135.849 172.56 140.21C171.723 142.697 171.304 146.905 171.114 150.08C170.886 153.867 172.065 157.655 174.538 160.524C175.642 161.825 177.05 162.972 178.686 163.47C179.028 163.585 179.409 163.661 179.751 163.738C186.03 165.115 192.498 162.284 196.037 156.851L196.798 155.665C196.798 155.665 218.563 163.699 218.905 163.585L222.863 156.086Z" fill="#263238"/>
<path d="M189.872 135.047C189.872 135.047 189.834 135.047 189.796 135.008C189.72 134.97 189.643 134.932 189.567 134.855C189.377 134.702 189.073 134.511 188.654 134.243C187.855 133.746 186.714 133.019 185.115 132.445C184.316 132.178 183.441 131.948 182.452 131.871C181.463 131.833 180.435 131.986 179.408 132.369C178.381 132.751 177.391 133.363 176.478 134.167C176.021 134.549 175.565 135.008 175.184 135.468C174.766 135.927 174.423 136.462 174.119 136.998C173.472 138.107 173.015 139.293 172.673 140.441C172.369 141.589 172.102 142.775 171.874 143.846C171.417 146.026 171.151 148.016 171.113 149.699C171.075 151.382 171.265 152.759 171.417 153.678C171.493 154.137 171.569 154.519 171.608 154.749C171.646 154.864 171.646 154.94 171.646 155.017C171.646 155.093 171.646 155.093 171.646 155.131C171.646 155.131 171.646 155.093 171.608 155.055C171.569 154.978 171.569 154.902 171.531 154.787C171.455 154.558 171.379 154.175 171.303 153.716C171.113 152.798 170.923 151.42 170.923 149.737C170.923 148.054 171.189 146.026 171.646 143.846C171.874 142.736 172.14 141.627 172.445 140.441C172.787 139.255 173.244 138.069 173.891 136.96C174.195 136.386 174.575 135.85 174.994 135.391C175.413 134.932 175.869 134.473 176.326 134.09C177.239 133.287 178.266 132.675 179.332 132.292C180.397 131.91 181.463 131.757 182.452 131.795C183.441 131.871 184.354 132.101 185.153 132.407C186.752 133.019 187.893 133.746 188.692 134.282C189.073 134.549 189.377 134.779 189.567 134.932C189.643 135.008 189.72 135.047 189.796 135.123C189.872 135.008 189.872 135.047 189.872 135.047Z" fill="#455A64"/>
<path d="M181.691 150.042C181.691 150.042 181.767 150.08 181.881 150.118C181.995 150.156 182.186 150.233 182.414 150.348C182.909 150.539 183.631 150.807 184.507 151.151C186.371 151.84 189.035 152.873 192.345 154.135C195.693 155.398 199.651 156.851 204.141 158.496C208.631 160.141 213.577 161.939 218.866 163.738L218.98 163.776L219.018 163.699C219.856 162.092 220.731 160.409 221.606 158.726C222.062 157.846 222.519 157.004 222.938 156.163L222.976 156.048L222.9 155.971C212.892 149.583 203.988 143.882 197.52 139.789C194.286 137.761 191.698 136.116 189.91 134.969C189.035 134.395 188.312 133.974 187.855 133.668C187.627 133.515 187.437 133.4 187.322 133.324C187.208 133.247 187.132 133.209 187.132 133.209C187.132 133.209 187.208 133.247 187.322 133.324C187.437 133.4 187.627 133.515 187.855 133.668C188.35 133.974 189.035 134.433 189.91 135.007C191.698 136.155 194.286 137.838 197.482 139.904C203.912 144.035 212.854 149.774 222.823 156.163L222.785 156.01C222.367 156.813 221.91 157.693 221.454 158.573C220.578 160.294 219.703 161.978 218.866 163.546L219.018 163.47C213.729 161.672 208.745 159.874 204.293 158.267C199.803 156.622 195.808 155.168 192.497 153.944C189.187 152.72 186.485 151.725 184.621 151.036C183.708 150.692 182.985 150.424 182.49 150.271C182.262 150.195 182.071 150.118 181.919 150.08C181.767 150.08 181.691 150.042 181.691 150.042Z" fill="#455A64"/>
<path d="M183.403 79.0378C182.832 77.8901 182.224 76.7424 181.919 75.4799C181.615 74.2175 181.577 72.8785 182.109 71.6926C182.414 71.0039 182.908 70.3918 183.137 69.7032C183.479 68.7086 183.327 67.5609 183.936 66.7192C184.887 65.4185 186.904 65.7246 188.35 65.0359C189.491 64.5004 190.29 63.3527 191.47 62.9701C192.497 62.6258 193.639 62.9701 194.666 63.3909C195.655 63.8117 196.645 64.3856 197.748 64.5004C198.509 64.6151 199.308 64.5004 200.069 64.5004C200.868 64.5004 201.667 64.6916 202.238 65.2655C202.771 65.8393 202.885 66.834 202.314 67.3696C203.684 67.1401 204.978 68.5173 204.94 69.8945C204.94 71.2717 203.874 72.4959 202.619 73.1081C201.363 73.6819 199.917 73.7201 198.547 73.6054C194.628 73.2993 190.709 71.8073 188.045 68.8998" fill="#FF725E"/>
<path d="M184.278 74.141L181.615 93.5753C181.158 96.8653 183.555 99.8876 186.866 100.194C189.948 100.461 192.725 98.2425 193.144 95.1438C193.334 93.69 193.524 92.4658 193.524 92.3128C193.524 92.3128 198.509 92.5423 199.536 87.6838C200.031 85.3501 200.678 80.415 201.173 75.9773C201.743 71.1952 198.547 66.7957 193.829 65.8393L193.372 65.7628C188.274 65.0359 184.849 69.0146 184.278 74.141Z" fill="#FFBE9D"/>
<path d="M193.524 92.2745C193.524 92.2745 190.404 91.8919 187.589 89.214C187.589 89.214 188.388 93.0014 193.296 93.537L193.524 92.2745Z" fill="#EB996E"/>
<path d="M199.004 80.109C198.928 80.4916 198.585 80.7211 198.205 80.6828C197.824 80.6446 197.558 80.3003 197.634 79.9177C197.71 79.5351 198.053 79.3056 198.433 79.3439C198.814 79.4204 199.08 79.7647 199.004 80.109Z" fill="#263238"/>
<path d="M199.651 78.1579C199.536 78.2344 199.118 77.7371 198.357 77.5841C197.634 77.431 196.987 77.6988 196.949 77.5841C196.911 77.5458 197.025 77.3928 197.291 77.278C197.558 77.1632 197.976 77.0485 198.471 77.1632C198.928 77.2397 199.308 77.5075 199.46 77.7371C199.651 77.9666 199.727 78.1196 199.651 78.1579Z" fill="#263238"/>
<path d="M192.078 78.923C192.002 79.3056 191.66 79.5351 191.279 79.4969C190.899 79.4586 190.633 79.1143 190.709 78.7317C190.785 78.3492 191.127 78.1196 191.508 78.1579C191.85 78.1961 192.117 78.5405 192.078 78.923Z" fill="#263238"/>
<path d="M192.307 76.8572C192.193 76.9337 191.774 76.4364 191.013 76.2833C190.29 76.1303 189.643 76.3981 189.605 76.2833C189.567 76.2451 189.681 76.0921 189.948 75.9773C190.214 75.8625 190.633 75.7477 191.127 75.8625C191.584 75.9773 191.926 76.2068 192.117 76.4364C192.345 76.6276 192.383 76.8189 192.307 76.8572Z" fill="#263238"/>
<path d="M193.905 82.9399C193.905 82.9017 194.4 82.9017 195.161 82.9782C195.351 82.9782 195.541 82.9782 195.617 82.8634C195.693 82.7487 195.655 82.5191 195.617 82.2896C195.541 81.7923 195.427 81.2567 195.351 80.7211C194.97 78.5022 194.742 76.6659 194.856 76.6659C194.932 76.6659 195.313 78.4257 195.693 80.6828C195.77 81.2184 195.846 81.754 195.922 82.2513C195.96 82.4809 196.036 82.7487 195.884 83.0165C195.808 83.1312 195.655 83.2077 195.503 83.246C195.389 83.246 195.275 83.246 195.161 83.2077C194.4 83.0547 193.905 82.9782 193.905 82.9399Z" fill="#263238"/>
<path d="M191.622 83.0164C191.736 83.0164 191.584 83.8581 192.155 84.5467C192.725 85.2736 193.601 85.3501 193.601 85.4649C193.601 85.5031 193.372 85.5796 193.03 85.5031C192.687 85.4266 192.193 85.2353 191.812 84.7762C191.47 84.3554 191.356 83.8198 191.394 83.4755C191.432 83.1695 191.584 82.9782 191.622 83.0164Z" fill="#263238"/>
<path d="M193.106 73.9497C192.992 74.141 192.269 73.9114 191.394 73.8349C190.519 73.7584 189.758 73.8732 189.682 73.6436C189.644 73.5289 189.796 73.3758 190.138 73.2228C190.443 73.0698 190.938 72.9933 191.47 73.0315C192.003 73.0698 192.46 73.2611 192.764 73.4524C193.03 73.6819 193.144 73.8732 193.106 73.9497Z" fill="#FF725E"/>
<path d="M199.803 75.939C199.651 76.092 199.156 75.786 198.547 75.6712C197.938 75.5182 197.406 75.5564 197.291 75.3652C197.253 75.2504 197.368 75.0974 197.634 74.9826C197.9 74.8678 198.281 74.8296 198.699 74.9061C199.118 75.0208 199.46 75.2504 199.651 75.4417C199.841 75.6712 199.879 75.8625 199.803 75.939Z" fill="#FF725E"/>
<path d="M183.936 77.8136C183.86 77.7753 180.816 76.1686 180.245 79.4969C179.674 82.8252 183.137 82.7104 183.175 82.6339C183.213 82.5191 183.936 77.8136 183.936 77.8136Z" fill="#FFBE9D"/>
<path d="M182.376 81.1802C182.376 81.1802 182.3 81.2184 182.224 81.2567C182.109 81.295 181.957 81.295 181.805 81.1802C181.463 80.9889 181.272 80.3768 181.348 79.7647C181.386 79.4586 181.501 79.1908 181.653 78.9613C181.805 78.7318 181.995 78.5787 182.147 78.5787C182.338 78.5787 182.452 78.6935 182.452 78.8083C182.49 78.923 182.452 78.9613 182.452 78.9996C182.452 78.9996 182.528 78.9613 182.528 78.8083C182.528 78.7318 182.49 78.6552 182.414 78.5787C182.338 78.5022 182.224 78.464 182.109 78.4257C181.843 78.3875 181.577 78.617 181.425 78.8465C181.234 79.0761 181.12 79.4204 181.082 79.7647C181.006 80.4533 181.234 81.1419 181.691 81.3332C181.919 81.448 182.109 81.4097 182.224 81.3332C182.338 81.2567 182.376 81.1802 182.376 81.1802Z" fill="#EB996E"/>
<path d="M202.124 71.463C201.553 72.6872 198.623 73.1846 196.454 72.5342C194.476 71.9221 193.753 70.6597 192.497 69.5502C191.698 68.8616 191.698 68.8616 190.404 68.7086C189.339 68.5938 188.502 69.665 187.703 70.3536C188.159 73.0315 186.98 75.633 185.838 78.0814C185.724 78.3492 185.572 78.6552 185.306 78.77C184.849 78.9996 184.316 78.6552 184.05 78.1962C183.631 77.5076 183.555 76.6659 183.593 75.8625C183.631 74.0262 183.936 72.1517 184.697 70.4684C185.458 68.7851 186.637 67.2548 188.159 66.2602C190.1 65.036 192.535 64.6534 194.78 65.1507C197.025 65.6481 199.042 66.9105 200.602 68.6703C201.287 69.512 201.896 70.4301 202.124 71.463Z" fill="#FF725E"/>
<path d="M195.351 79.5734C195.389 79.5734 195.351 79.2674 195.503 78.8083C195.617 78.3109 195.96 77.6223 196.683 77.0867C197.368 76.5511 198.509 76.2451 199.613 76.6659C200.145 76.8572 200.678 77.2398 201.059 77.7371C201.439 78.2344 201.667 78.8848 201.667 79.5734C201.667 80.262 201.439 80.9124 201.059 81.4097C200.678 81.9071 200.183 82.2896 199.613 82.4809C198.509 82.9017 197.368 82.5957 196.683 82.0601C195.96 81.5245 195.617 80.8359 195.503 80.3385C195.389 79.8412 195.389 79.5734 195.351 79.5734C195.351 79.5734 195.351 79.6499 195.351 79.7647C195.351 79.9177 195.351 80.109 195.427 80.3768C195.541 80.8741 195.846 81.6393 196.607 82.2131C197.33 82.7869 198.547 83.1695 199.765 82.7104C200.374 82.5192 200.906 82.0983 201.325 81.5627C201.743 81.0272 201.972 80.3003 201.972 79.5734C201.972 78.8465 201.743 78.1197 201.325 77.5841C200.906 77.0102 200.374 76.6277 199.765 76.4364C198.547 76.0156 197.33 76.3599 196.607 76.9337C195.846 77.5076 195.541 78.2727 195.427 78.77C195.389 79.0378 195.351 79.2291 195.351 79.3821C195.351 79.4969 195.351 79.5734 195.351 79.5734Z" fill="#263238"/>
<path d="M187.474 78.1579C187.513 78.1579 187.474 77.8518 187.627 77.3928C187.741 76.8954 188.083 76.2068 188.806 75.6712C189.491 75.1356 190.633 74.8296 191.736 75.2504C192.269 75.4417 192.802 75.8243 193.182 76.3216C193.563 76.8189 193.791 77.4693 193.791 78.1579C193.791 78.8465 193.563 79.4969 193.182 79.9942C192.802 80.4915 192.307 80.8741 191.736 81.0654C190.633 81.4862 189.491 81.1802 188.806 80.6446C188.083 80.109 187.741 79.4204 187.627 78.923C187.474 78.464 187.474 78.1579 187.474 78.1579C187.474 78.1579 187.474 78.2344 187.474 78.3492C187.474 78.5022 187.474 78.6935 187.551 78.9613C187.665 79.4586 187.969 80.2237 188.73 80.7976C189.453 81.3714 190.671 81.754 191.888 81.2949C192.497 81.1036 193.03 80.6828 193.448 80.1472C193.867 79.6116 194.095 78.8848 194.095 78.1579C194.095 77.431 193.867 76.7042 193.448 76.1686C193.03 75.5947 192.497 75.2122 191.888 75.0209C190.671 74.6001 189.453 74.9444 188.73 75.5182C187.969 76.0921 187.665 76.8572 187.551 77.3545C187.513 77.6223 187.474 77.8136 187.474 77.9666C187.436 78.1196 187.436 78.1579 187.474 78.1579Z" fill="#263238"/>
<path d="M193.981 78.2727C194.019 78.3492 194.438 78.1579 194.932 78.3109C195.427 78.464 195.655 78.8465 195.731 78.8083C195.769 78.8083 195.731 78.6552 195.617 78.5022C195.503 78.3492 195.275 78.1197 194.97 78.0431C194.666 77.9666 194.362 78.0049 194.209 78.0814C194.019 78.1579 193.943 78.2727 193.981 78.2727Z" fill="#263238"/>
<path d="M185.373 77.1382C184.07 77.1566 183.015 77.2401 183.016 77.3246C183.017 77.4091 184.074 77.4626 185.377 77.4442C186.68 77.4257 187.735 77.3423 187.734 77.2578C187.733 77.1733 186.676 77.1197 185.373 77.1382Z" fill="#263238"/>
<path d="M203.684 68.2878C203.684 68.2878 203.684 68.4025 203.646 68.5938C203.57 68.7851 203.418 69.0529 203.151 69.3207C202.885 69.5502 202.428 69.7415 201.972 69.818C201.477 69.8945 200.944 69.818 200.374 69.7415C199.27 69.5885 198.281 69.3589 197.558 69.1677C197.215 69.0911 196.911 68.9764 196.721 68.9381C196.645 68.8999 196.569 68.8999 196.492 68.8616C196.454 68.8616 196.416 68.8233 196.416 68.8233C196.416 68.8233 196.454 68.8233 196.492 68.8233C196.569 68.8233 196.645 68.8616 196.721 68.8999C196.949 68.9764 197.253 69.0146 197.558 69.1294C198.281 69.3207 199.27 69.512 200.374 69.665C200.944 69.7415 201.477 69.818 201.934 69.7415C202.428 69.7033 202.809 69.512 203.113 69.2824C203.38 69.0529 203.57 68.7851 203.608 68.5938C203.684 68.4025 203.684 68.2878 203.684 68.2878Z" fill="white"/>
<path d="M204.407 69.0529C204.407 69.0529 204.369 69.4354 204.141 69.971C203.912 70.5066 203.38 71.1952 202.619 71.6926C201.82 72.1516 200.982 72.2664 200.412 72.2282C199.803 72.1899 199.46 72.0369 199.46 72.0369C199.46 72.0369 199.537 72.0369 199.727 72.0751C199.879 72.1134 200.107 72.1517 200.412 72.1517C200.982 72.1899 201.82 72.0369 202.581 71.5778C203.342 71.1187 203.836 70.4301 204.103 69.8945C204.217 69.6267 204.331 69.3972 204.369 69.2442C204.407 69.1294 204.407 69.0529 204.407 69.0529Z" fill="white"/>
</g>
<defs>
<clipPath id="clip0">
<rect width="267" height="165" fill="white"/>
</clipPath>
</defs>
</svg>
