<svg width="247" height="45" viewBox="0 0 247 45" fill="none" xmlns="http://www.w3.org/2000/svg">
<path d="M0.16 0.975999V0.399998H4.672V0.975999C4.672 7.376 6.928 11.872 11.44 14.464C13.968 13.056 15.728 11.232 16.72 8.992C17.744 6.752 18.256 4.08 18.256 0.975999V0.399998H22.864V1.408C22.864 8.064 20.4 13.072 15.472 16.432C20.4 19.856 22.864 24.864 22.864 31.456V34H18.256V31.888C18.256 28.784 17.744 26.112 16.72 23.872C15.728 21.632 13.968 19.808 11.44 18.4C6.928 20.992 4.672 25.488 4.672 31.888V34H0.16V31.888C0.16 25.04 2.624 19.888 7.552 16.432C2.624 13.04 0.16 7.888 0.16 0.975999Z" fill="#6B4986"/>
<path d="M32.7269 44.944V22.48C32.7269 20.816 33.0309 19.248 33.6389 17.776C34.2469 16.304 35.0789 15.04 36.1349 13.984C37.1909 12.896 38.4389 12.048 39.8789 11.44C41.3189 10.8 42.8549 10.48 44.4869 10.48C46.1189 10.48 47.6389 10.8 49.0469 11.44C50.4869 12.048 51.7349 12.896 52.7909 13.984C53.8789 15.072 54.7269 16.352 55.3349 17.824C55.9429 19.264 56.2469 20.816 56.2469 22.48C56.2469 24.144 55.9429 25.712 55.3349 27.184C54.7589 28.624 53.9429 29.888 52.8869 30.976C51.8309 32.064 50.5829 32.928 49.1429 33.568C47.7029 34.176 46.1509 34.48 44.4869 34.48C42.4389 34.48 40.5349 34 38.7749 33.04V28.72C40.3429 29.872 42.1989 30.448 44.3429 30.448C45.4949 30.448 46.5349 30.256 47.4629 29.872C48.4229 29.456 49.2229 28.896 49.8629 28.192C50.5349 27.488 51.0469 26.656 51.3989 25.696C51.7509 24.704 51.9269 23.632 51.9269 22.48C51.9269 21.328 51.7509 20.272 51.3989 19.312C51.0469 18.32 50.5509 17.472 49.9109 16.768C49.2709 16.064 48.4869 15.52 47.5589 15.136C46.6629 14.72 45.6389 14.512 44.4869 14.512C43.3669 14.512 42.3429 14.704 41.4149 15.088C40.5189 15.472 39.7349 16.016 39.0629 16.72C38.4229 17.424 37.9269 18.272 37.5749 19.264C37.2229 20.224 37.0469 21.296 37.0469 22.48V44.944H32.7269ZM77.3537 10.48C82.7937 10.704 85.5138 12.96 85.5138 17.248C85.5138 22.592 82.0097 25.264 75.0017 25.264H73.0337V21.568H75.3377C77.4817 21.568 78.9697 21.248 79.8017 20.608C80.6337 19.936 81.0497 18.832 81.0497 17.296C81.0497 16.304 80.6817 15.568 79.9457 15.088C79.2097 14.576 78.2657 14.32 77.1137 14.32C74.8417 14.32 73.0497 15.12 71.7377 16.72C70.4577 18.32 69.8177 20.24 69.8177 22.48C69.8177 24.848 70.5057 26.768 71.8817 28.24C73.2897 29.712 75.1137 30.448 77.3537 30.448C79.3697 30.448 81.0177 29.952 82.2977 28.96L85.1778 31.792C82.9697 33.584 80.3617 34.48 77.3537 34.48C73.7057 34.48 70.7937 33.408 68.6177 31.264C66.4417 29.12 65.3537 26.352 65.3537 22.96C65.3537 19.184 66.4257 16.128 68.5697 13.792C70.7137 11.456 73.6417 10.352 77.3537 10.48ZM94.3881 34V20.896C94.3881 17.216 95.0761 14.672 96.4521 13.264C97.1241 12.56 97.9401 12.032 98.9001 11.68C99.8601 11.328 100.692 11.12 101.396 11.056C102.132 10.992 103.124 10.96 104.372 10.96H108.596V14.992H103.508C102.868 14.992 102.372 15.008 102.02 15.04C101.668 15.072 101.252 15.184 100.772 15.376C100.292 15.568 99.8761 15.872 99.5241 16.288C98.9161 17.056 98.6121 18.592 98.6121 20.896V34H94.3881ZM114.102 14.992L122.694 6.4V10.96H129.174V14.992H122.694V24.88C122.694 26 122.87 26.928 123.222 27.664C123.606 28.4 124.15 28.928 124.854 29.248C125.558 29.536 126.214 29.728 126.822 29.824C127.462 29.92 128.246 29.968 129.174 29.968V34C125.494 34 122.774 33.296 121.014 31.888C119.254 30.48 118.374 28.144 118.374 24.88V14.992H114.102ZM143.544 34H139.032V0.399998H143.544V14.512H158.136V0.399998H162.648V34H158.136V18.736H143.544V34ZM192.784 34H184.48C180.928 34 178.384 33.472 176.848 32.416C175.472 31.488 174.592 30.384 174.208 29.104C173.856 27.792 173.68 26.08 173.68 23.968V10.96H177.904V23.92C177.904 24.496 177.92 24.992 177.952 25.408C177.984 25.792 178.096 26.304 178.288 26.944C178.48 27.552 178.752 28.064 179.104 28.48C179.456 28.864 179.968 29.216 180.64 29.536C181.312 29.824 182.128 29.968 183.088 29.968H188.56V10.96H192.784V34ZM203.845 10.96H212.149C215.701 10.96 218.245 11.488 219.781 12.544C221.157 13.472 222.021 14.592 222.373 15.904C222.757 17.184 222.949 18.88 222.949 20.992V34H218.725V21.04C218.725 20.464 218.709 19.984 218.677 19.6C218.645 19.184 218.533 18.672 218.341 18.064C218.149 17.424 217.877 16.912 217.525 16.528C217.173 16.112 216.661 15.76 215.989 15.472C215.317 15.152 214.501 14.992 213.541 14.992H208.069V34H203.845V10.96ZM231.13 14.992L239.722 6.4V10.96H246.202V14.992H239.722V24.88C239.722 26 239.898 26.928 240.25 27.664C240.634 28.4 241.178 28.928 241.882 29.248C242.586 29.536 243.242 29.728 243.85 29.824C244.49 29.92 245.274 29.968 246.202 29.968V34C242.522 34 239.802 33.296 238.042 31.888C236.282 30.48 235.402 28.144 235.402 24.88V14.992H231.13Z" fill="#263238"/>
</svg>
