<svg width="334" height="82" viewBox="0 0 334 82" fill="none" xmlns="http://www.w3.org/2000/svg">
<path d="M2.88 18.968V18.2H8.896V18.968C8.896 27.5013 11.904 33.496 17.92 36.952C21.2907 35.0747 23.6373 32.6427 24.96 29.656C26.3253 26.6693 27.008 23.1067 27.008 18.968V18.2H33.152V19.544C33.152 28.4187 29.8667 35.096 23.296 39.576C29.8667 44.1413 33.152 50.8187 33.152 59.608V63H27.008V60.184C27.008 56.0453 26.3253 52.4827 24.96 49.496C23.6373 46.5093 21.2907 44.0773 17.92 42.2C11.904 45.656 8.896 51.6507 8.896 60.184V63H2.88V60.184C2.88 51.0533 6.16533 44.184 12.736 39.576C6.16533 35.0533 2.88 28.184 2.88 18.968Z" fill="#6B4986"/>
<path d="M46.3025 77.592V47.64C46.3025 45.4213 46.7078 43.3307 47.5185 41.368C48.3292 39.4053 49.4385 37.72 50.8465 36.312C52.2545 34.8613 53.9185 33.7307 55.8385 32.92C57.7585 32.0667 59.8065 31.64 61.9825 31.64C64.1585 31.64 66.1852 32.0667 68.0625 32.92C69.9825 33.7307 71.6465 34.8613 73.0545 36.312C74.5052 37.7627 75.6358 39.4693 76.4465 41.432C77.2572 43.352 77.6625 45.4213 77.6625 47.64C77.6625 49.8587 77.2572 51.9493 76.4465 53.912C75.6785 55.832 74.5905 57.5173 73.1825 58.968C71.7745 60.4187 70.1105 61.5707 68.1905 62.424C66.2705 63.2347 64.2012 63.64 61.9825 63.64C59.2518 63.64 56.7132 63 54.3665 61.72V55.96C56.4572 57.496 58.9318 58.264 61.7905 58.264C63.3265 58.264 64.7132 58.008 65.9505 57.496C67.2305 56.9413 68.2972 56.1947 69.1505 55.256C70.0465 54.3173 70.7292 53.208 71.1985 51.928C71.6678 50.6053 71.9025 49.176 71.9025 47.64C71.9025 46.104 71.6678 44.696 71.1985 43.416C70.7292 42.0933 70.0678 40.9627 69.2145 40.024C68.3612 39.0853 67.3158 38.36 66.0785 37.848C64.8838 37.2933 63.5185 37.016 61.9825 37.016C60.4892 37.016 59.1238 37.272 57.8865 37.784C56.6918 38.296 55.6465 39.0213 54.7505 39.96C53.8972 40.8987 53.2358 42.0293 52.7665 43.352C52.2972 44.632 52.0625 46.0613 52.0625 47.64V77.592H46.3025ZM105.805 31.64C113.058 31.9387 116.685 34.9467 116.685 40.664C116.685 47.7893 112.013 51.352 102.669 51.352H100.045V46.424H103.117C105.976 46.424 107.96 45.9973 109.069 45.144C110.178 44.248 110.733 42.776 110.733 40.728C110.733 39.4053 110.242 38.424 109.261 37.784C108.28 37.1013 107.021 36.76 105.485 36.76C102.456 36.76 100.066 37.8267 98.317 39.96C96.6103 42.0933 95.757 44.6533 95.757 47.64C95.757 50.7973 96.6743 53.3573 98.509 55.32C100.386 57.2827 102.818 58.264 105.805 58.264C108.493 58.264 110.69 57.6027 112.397 56.28L116.237 60.056C113.293 62.4453 109.816 63.64 105.805 63.64C100.941 63.64 97.0583 62.2107 94.157 59.352C91.2557 56.4933 89.805 52.8027 89.805 48.28C89.805 43.2453 91.2343 39.1707 94.093 36.056C96.9517 32.9413 100.856 31.4693 105.805 31.64ZM128.517 63V45.528C128.517 40.6213 129.435 37.2293 131.269 35.352C132.165 34.4133 133.253 33.7093 134.533 33.24C135.813 32.7707 136.923 32.4933 137.861 32.408C138.843 32.3227 140.165 32.28 141.829 32.28H147.461V37.656H140.677C139.824 37.656 139.163 37.6773 138.693 37.72C138.224 37.7627 137.669 37.912 137.029 38.168C136.389 38.424 135.835 38.8293 135.365 39.384C134.555 40.408 134.149 42.456 134.149 45.528V63H128.517ZM154.803 37.656L166.259 26.2V32.28H174.899V37.656H166.259V50.84C166.259 52.3333 166.493 53.5707 166.963 54.552C167.475 55.5333 168.2 56.2373 169.139 56.664C170.077 57.048 170.952 57.304 171.763 57.432C172.616 57.56 173.661 57.624 174.899 57.624V63C169.992 63 166.365 62.0613 164.019 60.184C161.672 58.3067 160.499 55.192 160.499 50.84V37.656H154.803ZM194.059 63H188.043V18.2H194.059V37.016H213.515V18.2H219.531V63H213.515V42.648H194.059V63ZM259.712 63H248.64C243.904 63 240.512 62.296 238.464 60.888C236.629 59.6507 235.456 58.1787 234.944 56.472C234.475 54.7227 234.24 52.44 234.24 49.624V32.28H239.872V49.56C239.872 50.328 239.893 50.9893 239.936 51.544C239.979 52.056 240.128 52.7387 240.384 53.592C240.64 54.4027 241.003 55.0853 241.472 55.64C241.941 56.152 242.624 56.6213 243.52 57.048C244.416 57.432 245.504 57.624 246.784 57.624H254.08V32.28H259.712V63ZM274.46 32.28H285.532C290.268 32.28 293.66 32.984 295.708 34.392C297.543 35.6293 298.695 37.1227 299.164 38.872C299.676 40.5787 299.932 42.84 299.932 45.656V63H294.3V45.72C294.3 44.952 294.279 44.312 294.236 43.8C294.193 43.2453 294.044 42.5627 293.788 41.752C293.532 40.8987 293.169 40.216 292.7 39.704C292.231 39.1493 291.548 38.68 290.652 38.296C289.756 37.8693 288.668 37.656 287.388 37.656H280.092V63H274.46V32.28ZM310.84 37.656L322.296 26.2V32.28H330.936V37.656H322.296V50.84C322.296 52.3333 322.531 53.5707 323 54.552C323.512 55.5333 324.237 56.2373 325.176 56.664C326.115 57.048 326.989 57.304 327.8 57.432C328.653 57.56 329.699 57.624 330.936 57.624V63C326.029 63 322.403 62.0613 320.056 60.184C317.709 58.3067 316.536 55.192 316.536 50.84V37.656H310.84Z" fill="#FAFAFA"/>
</svg>
